<svg xmlns:dc="http://purl.org/dc/elements/1.1/" xmlns:cc="http://creativecommons.org/ns#" xmlns:rdf="http://www.w3.org/1999/02/22-rdf-syntax-ns#" xmlns:svg="http://www.w3.org/2000/svg" xmlns="http://www.w3.org/2000/svg" xmlns:sodipodi="http://sodipodi.sourceforge.net/DTD/sodipodi-0.dtd" xmlns:inkscape="http://www.inkscape.org/namespaces/inkscape" version="1.1" x="0px" y="0px" viewBox="0 0 100 125"><g transform="translate(0,-952.36218)"><path style="color:#000000;enable-background:accumulate;" d="m 50,959.36218 -5.59375,3.8125 -6.65625,-1.40625 -3.71875,5.6875 -6.65625,1.25 -1.25,6.6875 -5.6875,3.71875 1.375,6.625 -3.8125,5.62499 3.8125,5.5938 -1.375,6.62503 5.6875,3.7187 1.25,6.6875 6.65625,1.25 3.71875,5.6875 6.65625,-1.4063 5.59375,3.8438 5.59375,-3.8438 6.65625,1.4063 3.71875,-5.6875 6.65625,-1.25 1.25,-6.6875 5.6875,-3.7187 -1.375,-6.62503 3.8125,-5.5938 -3.8125,-5.62499 1.375,-6.625 -5.6875,-3.71875 -1.25,-6.6875 -6.65625,-1.25 -3.71875,-5.6875 -6.65625,1.40625 L 50,959.36218 z m -1.1875,9 c 0.39104,-0.0199 0.79166,0 1.1875,0 12.66702,0 23,10.33298 23,22.99999 0,12.66703 -10.33298,23.00003 -23,23.00003 -12.66702,0 -23,-10.333 -23,-23.00003 0,-12.27117 9.69021,-22.38193 21.8125,-22.99999 z m 1.1875,6 c -9.42438,0 -17,7.57562 -17,16.99999 0,9.42443 7.57562,17.00003 17,17.00003 9.42438,0 17,-7.5756 17,-17.00003 0,-9.42436 -7.57562,-16.99999 -17,-16.99999 z m -26.1875,33.84372 -16.8125001,26.1563 15.0000001,-3 4,14 13.6875,-22.8125 -1.53125,0.3125 c -0.78046,0.1714 -1.65019,-0.1791 -2.09375,-0.8438 l -3.25,-4.9687 -5.8125,-1.125 c -0.78372,-0.1485 -1.44529,-0.81 -1.59375,-1.5938 l -1.125,-5.8125 -0.46875,-0.3125 z m 52.375,0 -0.46875,0.3125 -1.125,5.8125 c -0.14846,0.7838 -0.81003,1.4453 -1.59375,1.5938 l -5.8125,1.125 -3.25,4.9687 c -0.44356,0.6647 -1.31329,1.0152 -2.09375,0.8438 l -1.53125,-0.3125 13.6875,22.8125 4,-14 15,3 -16.8125,-26.1563 z" fill="#000000" stroke="none" marker="none" visibility="visible" display="inline" overflow="visible"/></g><text x="0" y="115" fill="#000000" font-size="5px" font-weight="bold" font-family="'Helvetica Neue', Helvetica, Arial-Unicode, Arial, Sans-serif">Created by iconsphere</text><text x="0" y="120" fill="#000000" font-size="5px" font-weight="bold" font-family="'Helvetica Neue', Helvetica, Arial-Unicode, Arial, Sans-serif">from the Noun Project</text></svg>