<?xml version="1.0" encoding="utf-8"?>
<!-- Generator: Adobe Illustrator 16.0.0, SVG Export Plug-In . SVG Version: 6.00 Build 0)  -->
<!DOCTYPE svg PUBLIC "-//W3C//DTD SVG 1.1//EN" "http://www.w3.org/Graphics/SVG/1.1/DTD/svg11.dtd">
<svg version="1.1" xmlns="http://www.w3.org/2000/svg" xmlns:xlink="http://www.w3.org/1999/xlink" x="0px" y="0px" width="800px"
	 height="600px" viewBox="0 0 800 600" enable-background="new 0 0 800 600" xml:space="preserve">
<g id="Layer_1">
	<g opacity="0.7">
		<g>
			<defs>
				<rect id="SVGID_1_" x="-69" y="-170.731" width="1220.9" height="872.236"/>
			</defs>
			<clipPath id="SVGID_2_">
				<use xlink:href="#SVGID_1_"  overflow="visible"/>
			</clipPath>
			<g clip-path="url(#SVGID_2_)">
				<defs>
					<rect id="SVGID_3_" x="-1.044" y="-1.181" width="802.045" height="602.185"/>
				</defs>
				<clipPath id="SVGID_4_">
					<use xlink:href="#SVGID_3_"  overflow="visible"/>
				</clipPath>
				<g clip-path="url(#SVGID_4_)">
					
						<image overflow="visible" width="3700" height="2778" xlink:href="C8BA64699DCB472C.png"  transform="matrix(0.2168 0 0 0.2168 -1.0444 -1.1807)">
					</image>
				</g>
			</g>
		</g>
	</g>
	<g id="AsianCitiesWithPopCorrect">
		<circle fill="#010101" cx="453.32" cy="279.3" r="3"/>
		<circle fill="#010101" cx="685.129" cy="168.743" r="3"/>
		<circle fill="#010101" cx="525.328" cy="207.992" r="3"/>
		<circle fill="#010101" cx="397.019" cy="537.533" r="3"/>
		<circle fill="#010101" cx="480.887" cy="131.646" r="3"/>
		<circle fill="#010101" cx="521.037" cy="354.378" r="3"/>
		<circle fill="#010101" cx="573.611" cy="152.222" r="3"/>
		<circle fill="#010101" cx="648.381" cy="177.508" r="3"/>
		<circle fill="#010101" cx="341.372" cy="361.8" r="3"/>
		<circle fill="#010101" cx="487.85" cy="138.863" r="3"/>
		<circle fill="#010101" cx="483.297" cy="277.319" r="3"/>
		<circle fill="#010101" cx="372.641" cy="213.785" r="3"/>
		<circle fill="#010101" cx="395.125" cy="387.617" r="3"/>
		<circle fill="#010101" cx="660.699" cy="173.215" r="3"/>
		<circle fill="#010101" cx="462.451" cy="213.602" r="3"/>
		<circle fill="#010101" cx="460.734" cy="285.75" r="3"/>
		<circle fill="#010101" cx="403.803" cy="543.77" r="3"/>
		<circle fill="#010101" cx="542.502" cy="114.909" r="3"/>
		<circle fill="#010101" cx="526.131" cy="262.543" r="3"/>
		<circle fill="#010101" cx="513.762" cy="216.41" r="3"/>
		<circle fill="#010101" cx="448.826" cy="546.764" r="3"/>
		<circle fill="#010101" cx="351.767" cy="455.252" r="3"/>
		<circle fill="#010101" cx="415.391" cy="180.608" r="3"/>
		<circle fill="#010101" cx="388.146" cy="297.797" r="3"/>
		<circle fill="#010101" cx="394.439" cy="222.669" r="3"/>
		<circle fill="#010101" cx="500.785" cy="263.94" r="3"/>
		<circle fill="#010101" cx="501.85" cy="200.688" r="3"/>
		<circle fill="#010101" cx="495.645" cy="267.411" r="3"/>
		<circle fill="#010101" cx="447.043" cy="149.545" r="3"/>
		<circle fill="#010101" cx="515.76" cy="165.419" r="3"/>
		<circle fill="#010101" cx="325.325" cy="451.238" r="3"/>
		<circle fill="#010101" cx="569.725" cy="79.717" r="3"/>
		<circle fill="#010101" cx="456.492" cy="177.038" r="3"/>
		<circle fill="#010101" cx="450.465" cy="234.417" r="3"/>
		<circle fill="#010101" cx="488.082" cy="202.798" r="3"/>
		<circle fill="#010101" cx="538.668" cy="121.044" r="3"/>
		<circle fill="#010101" cx="526.566" cy="140.362" r="3"/>
		<circle fill="#010101" cx="559.098" cy="97.205" r="3"/>
		<circle fill="#010101" cx="303.198" cy="335.178" r="3"/>
		<circle fill="#010101" cx="370.475" cy="470.982" r="3"/>
		<circle fill="#010101" cx="464.289" cy="148.033" r="3"/>
		<circle fill="#010101" cx="506.23" cy="253.375" r="3"/>
		<circle fill="#010101" cx="361.821" cy="263.888" r="3"/>
		<circle fill="#010101" cx="592.01" cy="173.232" r="3"/>
		<circle fill="#010101" cx="487.141" cy="160.278" r="3"/>
		<circle fill="#010101" cx="518.537" cy="236.477" r="3"/>
		<circle fill="#010101" cx="428.342" cy="544.203" r="3"/>
		<circle fill="#010101" cx="515.137" cy="205.697" r="3"/>
		<circle fill="#010101" cx="525.943" cy="219.981" r="3"/>
		<circle fill="#010101" cx="515.047" cy="283.717" r="3"/>
		<circle fill="#010101" cx="512.174" cy="202.88" r="3"/>
		<circle fill="#010101" cx="476.072" cy="230.415" r="3"/>
		<circle fill="#010101" cx="228.352" cy="97.129" r="3"/>
		<circle fill="#010101" cx="495.34" cy="158.85" r="3"/>
		<circle fill="#010101" cx="524.863" cy="230.649" r="3"/>
		<circle fill="#010101" cx="447.779" cy="553.006" r="3"/>
		<circle fill="#010101" cx="370.603" cy="165.473" r="3"/>
		<circle fill="#010101" cx="459.133" cy="172.146" r="3"/>
		<circle fill="#010101" cx="431.85" cy="549.484" r="3"/>
		<circle fill="#010101" cx="417.016" cy="543.438" r="3"/>
		<circle fill="#010101" cx="395.128" cy="248.329" r="3"/>
		<circle fill="#010101" cx="496.439" cy="134.051" r="3"/>
		<circle fill="#010101" cx="603.645" cy="187.22" r="3"/>
		<circle fill="#010101" cx="488.58" cy="181.803" r="3"/>
		<circle fill="#010101" cx="423.285" cy="125.017" r="3"/>
		<circle fill="#010101" cx="587.85" cy="167.142" r="3"/>
		<circle fill="#010101" cx="446.211" cy="178.16" r="3"/>
		<circle fill="#010101" cx="472.623" cy="140.714" r="3"/>
		<circle fill="#010101" cx="440.027" cy="123.386" r="3"/>
		<circle fill="#010101" cx="518.312" cy="270.334" r="3"/>
		<circle fill="#010101" cx="410.359" cy="282.047" r="3"/>
		<circle fill="#010101" cx="427.928" cy="551.5" r="3"/>
		<circle fill="#010101" cx="523.512" cy="217.319" r="3"/>
		<circle fill="#010101" cx="699.713" cy="103.85" r="3"/>
		<circle fill="#010101" cx="339.863" cy="435.221" r="3"/>
		<circle fill="#010101" cx="453.633" cy="130.126" r="3"/>
		<circle fill="#010101" cx="411.988" cy="542.137" r="3"/>
		<circle fill="#010101" cx="497.984" cy="173.892" r="3"/>
		<circle fill="#010101" cx="378.749" cy="508.893" r="3"/>
		<circle fill="#010101" cx="408.898" cy="547.43" r="3"/>
		<circle fill="#010101" cx="507.426" cy="528.191" r="3"/>
		<circle fill="#010101" cx="464.5" cy="160.503" r="3"/>
		<circle fill="#010101" cx="503.764" cy="187.043" r="3"/>
		<circle fill="#010101" cx="505.049" cy="159.79" r="3"/>
		<circle fill="#010101" cx="607.795" cy="184.64" r="3"/>
		<circle fill="#010101" cx="546.484" cy="392.082" r="3"/>
		<circle fill="#010101" cx="452.021" cy="164.29" r="3"/>
		<circle fill="#010101" cx="470.445" cy="559.02" r="3"/>
		<circle fill="#010101" cx="573.426" cy="153.737" r="3"/>
		<circle fill="#010101" cx="453.121" cy="172.912" r="3"/>
		<circle fill="#010101" cx="352.569" cy="160.579" r="3"/>
		<circle fill="#010101" cx="363.233" cy="368.218" r="3"/>
		<circle fill="#010101" cx="483.072" cy="131.595" r="3"/>
		<circle fill="#010101" cx="426.426" cy="306.455" r="3"/>
		<circle fill="#010101" cx="562.947" cy="139.259" r="3"/>
		<circle fill="#010101" cx="441.5" cy="156.971" r="3"/>
		<circle fill="#010101" cx="525.104" cy="153.125" r="3"/>
		<circle fill="#010101" cx="457.148" cy="554.824" r="3"/>
		<circle fill="#010101" cx="397.734" cy="543.789" r="3"/>
		<circle fill="#010101" cx="419.562" cy="268.77" r="3"/>
		<circle fill="#010101" cx="369.968" cy="469.807" r="3"/>
		<circle fill="#010101" cx="503.699" cy="258.835" r="3"/>
		<circle fill="#010101" cx="569.854" cy="97.021" r="3"/>
		<circle fill="#010101" cx="442.334" cy="551.686" r="3"/>
		<circle fill="#010101" cx="432.805" cy="292.205" r="3"/>
		<circle fill="#010101" cx="508.898" cy="131.371" r="3"/>
		<circle fill="#010101" cx="532.01" cy="124.931" r="3"/>
		<circle fill="#010101" cx="464.203" cy="156.587" r="3"/>
		<circle fill="#010101" cx="395.636" cy="299.406" r="3"/>
		<circle fill="#010101" cx="391.625" cy="144.118" r="3"/>
		<circle fill="#010101" cx="542.387" cy="114.474" r="3"/>
		<circle fill="#010101" cx="450.508" cy="237.925" r="3"/>
		<circle fill="#010101" cx="514.9" cy="201.917" r="3"/>
		<circle fill="#010101" cx="557.172" cy="72.803" r="3"/>
		<circle fill="#010101" cx="528.043" cy="139.16" r="3"/>
		<circle fill="#010101" cx="467.547" cy="124.046" r="3"/>
		<circle fill="#010101" cx="406.342" cy="546.504" r="3"/>
		<circle fill="#010101" cx="302.616" cy="289.458" r="3"/>
		<circle fill="#010101" cx="695.457" cy="146.046" r="3"/>
		<circle fill="#010101" cx="402.203" cy="539.244" r="3"/>
		<circle fill="#010101" cx="462.469" cy="176.597" r="3"/>
		<circle fill="#010101" cx="550.596" cy="130.795" r="3"/>
		<circle fill="#010101" cx="484.318" cy="184.003" r="3"/>
		<circle fill="#010101" cx="502.641" cy="110.929" r="3"/>
		<circle fill="#010101" cx="399.52" cy="542.889" r="3"/>
		<circle fill="#010101" cx="572.512" cy="173.408" r="3"/>
		<circle fill="#010101" cx="486.084" cy="195.713" r="3"/>
		<circle fill="#010101" cx="519.002" cy="204.267" r="3"/>
		<circle fill="#010101" cx="512.822" cy="228.605" r="3"/>
		<circle fill="#010101" cx="416.121" cy="550.643" r="3"/>
		<circle fill="#010101" cx="427.838" cy="295.657" r="3"/>
		<circle fill="#010101" cx="137.126" cy="230.558" r="3"/>
		<circle fill="#010101" cx="99.095" cy="314.992" r="3"/>
		<circle fill="#010101" cx="234.835" cy="284.542" r="3"/>
		<circle fill="#010101" cx="140.433" cy="368.703" r="3"/>
		<circle fill="#010101" cx="163.722" cy="367.99" r="3"/>
		<circle fill="#010101" cx="148.159" cy="329.945" r="3"/>
		<circle fill="#010101" cx="96.777" cy="280.144" r="3"/>
		<circle fill="#010101" cx="98.677" cy="296.573" r="3"/>
	</g>
</g>
<g id="Layer_2">
</g>
</svg>
