<?xml version="1.0" encoding="utf-8"?>
<!-- Generator: Adobe Illustrator 16.0.0, SVG Export Plug-In . SVG Version: 6.00 Build 0)  -->
<!DOCTYPE svg PUBLIC "-//W3C//DTD SVG 1.1//EN" "http://www.w3.org/Graphics/SVG/1.1/DTD/svg11.dtd">
<svg version="1.1" id="Layer_1" xmlns="http://www.w3.org/2000/svg" xmlns:xlink="http://www.w3.org/1999/xlink" x="0px" y="0px"
	 width="193.007px" height="145.455px" viewBox="0 0 193.007 145.455" enable-background="new 0 0 193.007 145.455"
	 xml:space="preserve">

<style type="text/css" media="screen">  
    <![CDATA[  
    a { 
    	cursor: pointer; 
    }

    a:hover > text tspan {
        fill: black;
        font-weight: bold;
     }
     a:hover > text {
        fill: black;
        font-weight: bold;
     }
    ]]>  
</style> 

<g>
	<g>
		<g>
			<defs>
				<rect id="SVGID_1_" x="16.312" y="30.624" width="115.141" height="46.45"/>
			</defs>
			<clipPath id="SVGID_2_">
				<use xlink:href="#SVGID_1_"  overflow="visible"/>
			</clipPath>
			<g clip-path="url(#SVGID_2_)">
				<text transform="matrix(1 0 0 1 18.4531 41.3145)"><tspan x="0" y="0" fill="#FFC20E" font-family="'UniversLTStd-BoldCn'" font-size="10">A</tspan><tspan x="5.91" y="0" fill="#FFC20E" font-family="'UniversLTStd-BoldCn'" font-size="10">SI</tspan><tspan x="13.87" y="0" fill="#FFC20E" font-family="'UniversLTStd-BoldCn'" font-size="10">A&apos;S</tspan><tspan x="27.439" y="0" fill="#FFC20E" font-family="'UniversLTStd-BoldCn'" font-size="10"> L</tspan><tspan x="33.72" y="0" fill="#FFC20E" font-family="'UniversLTStd-BoldCn'" font-size="10">A</tspan><tspan x="39.629" y="0" fill="#FFC20E" font-family="'UniversLTStd-BoldCn'" font-size="10">R</tspan><tspan x="45" y="0" fill="#FFC20E" font-family="'UniversLTStd-BoldCn'" font-size="10">G</tspan><tspan x="50.909" y="0" fill="#FFC20E" font-family="'UniversLTStd-BoldCn'" font-size="10">EST CIT</tspan><tspan x="80.699" y="0" fill="#FFC20E" font-family="'UniversLTStd-BoldCn'" font-size="10">I</tspan><tspan x="83.279" y="0" fill="#FFC20E" font-family="'UniversLTStd-BoldCn'" font-size="10">E</tspan><tspan x="88.09" y="0" fill="#FFC20E" font-family="'UniversLTStd-BoldCn'" font-size="10">S</tspan></text>
			</g>
			<g clip-path="url(#SVGID_2_)">
				<text transform="matrix(1 0 0 1 18.4531 54.8145)" fill="#333333" font-family="'UniversLTStd-LightCn'" font-size="7">Population of metropolitan areas</text>
			</g>
			<g clip-path="url(#SVGID_2_)">
				<text transform="matrix(1 0 0 1 104.3398 54.8145)" fill="#333333" font-family="'UniversLTStd-LightCn'" font-size="7"> </text>
			</g>
			<g clip-path="url(#SVGID_2_)">
				<text transform="matrix(1 0 0 1 18.4531 64.8145)" fill="#333333" font-family="'UniversLTStd-LightCn'" font-size="7">over a Population Raster</text>
			</g>
		</g>
	</g>
	<g>
		<g>
			<defs>
				<rect id="SVGID_3_" x="17.453" y="12.074" width="16" height="16"/>
			</defs>
			<clipPath id="SVGID_4_">
				<use xlink:href="#SVGID_3_"  overflow="visible"/>
			</clipPath>
			<path clip-path="url(#SVGID_4_)" fill="#19191A" d="M32.453,20.074c0,3.866-3.134,7-7,7s-7-3.134-7-7s3.134-7,7-7
				S32.453,16.208,32.453,20.074"/>
			<path clip-path="url(#SVGID_4_)" fill="#FFC20E" d="M25.453,20.574c-0.828,0-1.5-0.671-1.5-1.5s0.672-1.5,1.5-1.5
				s1.5,0.671,1.5,1.5S26.281,20.574,25.453,20.574 M25.453,16.074c-1.655,0-3,1.343-3,3c0,2,3,5,3,5s3-3,3-5
				C28.453,17.417,27.108,16.074,25.453,16.074"/>
		</g>
	</g>
</g>
<rect x="17.453" y="75.524" fill="none" width="89.511" height="13.986"/>
<text transform="matrix(1 0 0 1 17.4531 81.334)" font-family="'UniversLTStd-LightCnObl'" font-size="7">SOURCES</text>
<rect x="26.16" y="86.602" fill="none" width="51.049" height="9.79"/>

<a xlink:href="#" target="_blank">
	<text transform="matrix(1 0 0 1 26.1602 92.4111)" fill="#808080" font-family="'UniversLTStd-LightCnObl'" font-size="7">
		WorldPop
	</text>
</a>

<rect x="26.132" y="97.392" fill="none" width="135.665" height="27.272"/>
<a xlink:href="#" target="_blank">
	<text transform="matrix(1 0 0 1 26.1318 103.2012)">
		<tspan x="0" y="0" fill="#808080" font-family="'UniversLTStd-LightCnObl'" font-size="7">
		United Nations, Department of Economioc and Social 
		</tspan>
		<tspan x="0" y="8.4" fill="#808080" font-family="'UniversLTStd-LightCnObl'" font-size="7">Affairs, Population division, 2014
		</tspan>
	</text>
</a>
<rect x="26.132" y="116.573" fill="none" width="131.469" height="18.182"/>
<a xlink:href="https://openknowledge.worldbank.org/bitstream/handle/10986/21159/9781464803635.pdf" target="_blank">
	<text transform="matrix(1 0 0 1 26.1318 122.3828)">
		<tspan x="0" y="0" fill="#808080" font-family="'UniversLTStd-LightCnObl'" font-size="7">
			World Bank, East Asia’s  Changing Urban
		</tspan>
		<tspan x="0" y="8.4" fill="#808080" font-family="'UniversLTStd-LightCnObl'" font-size="7">
		Landscape, 2015
		</tspan>
	</text>
</a>
</svg>
