<?xml version="1.0" encoding="utf-8"?>
<!-- Generator: Adobe Illustrator 16.0.0, SVG Export Plug-In . SVG Version: 6.00 Build 0)  -->
<!DOCTYPE svg PUBLIC "-//W3C//DTD SVG 1.1//EN" "http://www.w3.org/Graphics/SVG/1.1/DTD/svg11.dtd">
<svg version="1.1" id="Layer_1" xmlns="http://www.w3.org/2000/svg" xmlns:xlink="http://www.w3.org/1999/xlink" x="0px" y="0px"
	 width="164.336px" height="114.686px" viewBox="0 0 164.336 114.686" enable-background="new 0 0 164.336 114.686"
	 xml:space="preserve">
<g>
	<g>
		<g>
			<defs>
				<rect id="SVGID_1_" x="16.271" y="64.824" width="157.182" height="35.397"/>
			</defs>
			<clipPath id="SVGID_2_">
				<use xlink:href="#SVGID_1_"  overflow="visible"/>
			</clipPath>
			<g clip-path="url(#SVGID_2_)">
				<text transform="matrix(1 0 0 1 18.4531 87.3242)"><tspan x="0" y="0" fill="#808080" font-family="'UniversLTStd-LightCnObl'" font-size="7">Sou</tspan><tspan x="9.316" y="0" fill="#808080" font-family="'UniversLTStd-LightCnObl'" font-size="7">r</tspan><tspan x="11.123" y="0" fill="#808080" font-family="'UniversLTStd-LightCnObl'" font-size="7">ce: </tspan><tspan x="19.529" y="0" fill="#808080" font-family="'UniversLTStd-LightCnObl'" font-size="7">W</tspan><tspan x="25.102" y="0" fill="#808080" font-family="'UniversLTStd-LightCnObl'" font-size="7">orldPop. United Nations, Department o</tspan><tspan x="118.129" y="0" fill="#808080" font-family="'UniversLTStd-LightCnObl'" font-size="7">f </tspan></text>
			</g>
			<g clip-path="url(#SVGID_2_)">
				<text transform="matrix(1 0 0 1 18.4531 97.3242)"><tspan x="0" y="0" fill="#808080" font-family="'UniversLTStd-LightCnObl'" font-size="7">Economic and </tspan><tspan x="34.803" y="0" fill="#808080" font-family="'UniversLTStd-LightCnObl'" font-size="7">S</tspan><tspan x="38.162" y="0" fill="#808080" font-family="'UniversLTStd-LightCnObl'" font-size="7">ocial </tspan><tspan x="50.965" y="0" fill="#808080" font-family="'UniversLTStd-LightCnObl'" font-size="7">A</tspan><tspan x="54.717" y="0" fill="#808080" font-family="'UniversLTStd-LightCnObl'" font-size="7">ffairs, Population </tspan><tspan x="96.884" y="0" fill="#808080" font-family="'UniversLTStd-LightCnObl'" font-size="7">D</tspan><tspan x="100.636" y="0" fill="#808080" font-family="'UniversLTStd-LightCnObl'" font-size="7">ivision (2014)</tspan><tspan x="132.19" y="0" fill="#808080" font-family="'UniversLTStd-LightCnObl'" font-size="7">.</tspan></text>
			</g>
		</g>
	</g>
	<g>
		<g>
			<defs>
				<rect id="SVGID_3_" x="16.312" y="30.624" width="115.141" height="46.45"/>
			</defs>
			<clipPath id="SVGID_4_">
				<use xlink:href="#SVGID_3_"  overflow="visible"/>
			</clipPath>
			<g clip-path="url(#SVGID_4_)">
				<text transform="matrix(1 0 0 1 18.4531 41.3145)"><tspan x="0" y="0" fill="#FFC20E" font-family="'UniversLTStd-BoldCn'" font-size="10">A</tspan><tspan x="5.91" y="0" fill="#FFC20E" font-family="'UniversLTStd-BoldCn'" font-size="10">SI</tspan><tspan x="13.87" y="0" fill="#FFC20E" font-family="'UniversLTStd-BoldCn'" font-size="10">A&apos;S</tspan><tspan x="27.439" y="0" fill="#FFC20E" font-family="'UniversLTStd-BoldCn'" font-size="10"> L</tspan><tspan x="33.72" y="0" fill="#FFC20E" font-family="'UniversLTStd-BoldCn'" font-size="10">A</tspan><tspan x="39.629" y="0" fill="#FFC20E" font-family="'UniversLTStd-BoldCn'" font-size="10">R</tspan><tspan x="45" y="0" fill="#FFC20E" font-family="'UniversLTStd-BoldCn'" font-size="10">G</tspan><tspan x="50.909" y="0" fill="#FFC20E" font-family="'UniversLTStd-BoldCn'" font-size="10">EST CIT</tspan><tspan x="80.699" y="0" fill="#FFC20E" font-family="'UniversLTStd-BoldCn'" font-size="10">I</tspan><tspan x="83.279" y="0" fill="#FFC20E" font-family="'UniversLTStd-BoldCn'" font-size="10">E</tspan><tspan x="88.09" y="0" fill="#FFC20E" font-family="'UniversLTStd-BoldCn'" font-size="10">S</tspan></text>
			</g>
			<g clip-path="url(#SVGID_4_)">
				<text transform="matrix(1 0 0 1 18.4531 54.8145)" fill="#333333" font-family="'UniversLTStd-LightCn'" font-size="7">Population of metropolitan areas, </text>
			</g>
			<g clip-path="url(#SVGID_4_)">
				<text transform="matrix(1 0 0 1 104.3398 54.8145)" fill="#333333" font-family="'UniversLTStd-LightCn'" font-size="7"> </text>
			</g>
			<g clip-path="url(#SVGID_4_)">
				<text transform="matrix(1 0 0 1 18.4531 64.8145)" fill="#333333" font-family="'UniversLTStd-LightCn'" font-size="7">over a Population Raster</text>
			</g>
		</g>
	</g>
	<g>
		<g>
			<defs>
				<rect id="SVGID_5_" x="17.453" y="12.074" width="16" height="16"/>
			</defs>
			<clipPath id="SVGID_6_">
				<use xlink:href="#SVGID_5_"  overflow="visible"/>
			</clipPath>
			<path clip-path="url(#SVGID_6_)" fill="#19191A" d="M32.453,20.074c0,3.866-3.134,7-7,7s-7-3.134-7-7s3.134-7,7-7
				S32.453,16.208,32.453,20.074"/>
			<path clip-path="url(#SVGID_6_)" fill="#FFC20E" d="M25.453,20.574c-0.828,0-1.5-0.671-1.5-1.5s0.672-1.5,1.5-1.5
				s1.5,0.671,1.5,1.5S26.281,20.574,25.453,20.574 M25.453,16.074c-1.655,0-3,1.343-3,3c0,2,3,5,3,5s3-3,3-5
				C28.453,17.417,27.108,16.074,25.453,16.074"/>
		</g>
	</g>
</g>
</svg>
