<?xml version="1.0" encoding="utf-8"?>
<!-- Generator: Adobe Illustrator 21.1.0, SVG Export Plug-In . SVG Version: 6.00 Build 0)  -->
<svg version="1.1" xmlns="http://www.w3.org/2000/svg" xmlns:xlink="http://www.w3.org/1999/xlink" x="0px" y="0px"
	 viewBox="0 0 125 125" style="enable-background:new 0 0 125 125;" xml:space="preserve">
<style type="text/css">
	g{cursor: pointer}

	.st0{fill:#FFFFFF;}
	.st0:hover{fill: blue;}
	.st1{fill:none;stroke:#7F7C7F;stroke-width:1.2479;stroke-miterlimit:3.8636;}
	.st2{fill:none;stroke:#FFFFFF;stroke-width:1.2479;stroke-miterlimit:3.8636;}
	.st3{fill:#7F7C7F;fill-opacity:0.8;}
	.st4{fill:none;stroke:#7F7C7F;stroke-miterlimit:10;}
	.st5{fill:none;stroke:#FFFFFF;stroke-width:1.295;stroke-miterlimit:3.8636;}
	.hov{pointer-events:all;}
	.hov:hover{stroke: #337ab7; stroke-width: 10;}
	

</style>
<g id="svg3399" inkscape:version="0.48.1 " sodipodi:docname="New document 4" xmlns:cc="http://creativecommons.org/ns#" xmlns:dc="http://purl.org/dc/elements/1.1/" xmlns:inkscape="http://www.inkscape.org/namespaces/inkscape" xmlns:rdf="http://www.w3.org/1999/02/22-rdf-syntax-ns#" xmlns:sodipodi="http://sodipodi.sourceforge.net/DTD/sodipodi-0.dtd" xmlns:svg="http://www.w3.org/2000/svg">
	
		<sodipodi:namedview  bordercolor="#666666" borderopacity="1.0" fit-margin-bottom="0" fit-margin-left="0" fit-margin-right="0" fit-margin-top="0" id="base" inkscape:current-layer="layer1" inkscape:cx="217.07879" inkscape:cy="107.28628" inkscape:document-units="px" inkscape:pageopacity="0.0" inkscape:pageshadow="2" inkscape:window-height="721" inkscape:window-maximized="1" inkscape:window-width="1024" inkscape:window-x="-4" inkscape:window-y="-4" inkscape:zoom="1" pagecolor="#ffffff" showgrid="false">
		</sodipodi:namedview>
	<path id="path3069" inkscape:connector-curvature="0" class="st0 hov" d="M10,37c0.2,0.2,0-32.3,0-32.3h106.1c0,0,0,17.4,0,32.3"/>
	<path id="path3071" inkscape:connector-curvature="0" class="st1 hov" d="M10,37c0.2,0.2,0-32.3,0-32.3h106.1c0,0,0,17.4,0,32.3L10,37
		L10,37z"/>
	<path id="path3073" inkscape:connector-curvature="0" class="st0 hov" d="M15.9,84.2c4.1,8.6,9.1,15.5,16.2,21.4L63,74.3l29.7,30.5
		c6.1-5.6,12.1-12.4,16.4-20.4L63,40L16.1,84.3"/>
	<path id="path3075" inkscape:connector-curvature="0" class="st2 hov" d="M15.9,84.2c4.1,8.6,9.1,15.5,16.2,21.4L63,74.3l29.7,30.5
		c6.1-5.6,12.1-12.4,16.4-20.4L63,40L16.1,84.3L15.9,84.2z"/>
	<path id="path3077" inkscape:connector-curvature="0" class="st2 hov" d="M10,37.2l106.1,0"/>
	<path id="path3129" inkscape:connector-curvature="0" class="st3 hov" d="M28.2,80.7c0-4.9,4.1-8.9,9.3-8.9s9.3,4,9.3,8.9
		c0,4.9-4.1,8.9-9.3,8.9S28.2,85.6,28.2,80.7"/>
	<path id="path3133" inkscape:connector-curvature="0" class="st3 hov" d="M53.7,59.2c0-4.9,4.1-8.9,9.3-8.9c5.1,0,9.3,4,9.3,8.9
		c0,4.9-4.1,8.9-9.3,8.9C57.8,68.1,53.7,64.2,53.7,59.2"/>
	<path id="path3137" inkscape:connector-curvature="0" class="st3 hov" d="M77.7,80.7c0-4.9,4.1-8.9,9.3-8.9c5.1,0,9.3,4,9.3,8.9
		c0,4.9-4.1,8.9-9.3,8.9C81.9,89.6,77.7,85.6,77.7,80.7"/>
	<g>
		<path id="path3081" inkscape:connector-curvature="0" class="st4 hov" d="M89.5,12.7h2.9c2.1-0.5,2.9-1.7,5.1-1.7c1.6,0,2.3,1,3.4,1
			c1,0,2.5-1.1,4.1-1.1c1.7,0,2.5,1,3.6,1.5c1,0.4,2.2,0.4,3.6,0.4c0,1,0,1.5,0,2.4c0,0.8,1.1,0.5,1.1,1.9c0,1.4-1.4,1.1-1.4,1.7
			l-0.1,5.3c0.1,0.7,1.4,0.7,1.4,1.7c0,1.5-1.5,1-1.4,2.1c0.1,0.9,0,2.7,0,2.7c-2.9,0-21.2,0.2-22.1,0.1c0.1-2,0.4-1.8,0.4-2.8
			c0.1-0.8-1.7-1.2-1.7-2.5c0-0.9,1-0.8,1.1-1.7v-5.3c-0.1-0.7-1.6-1-1.5-2c0.1-1.2,1.4-1,1.4-1.8C89.5,14.3,89.5,13.1,89.5,12.7
			L89.5,12.7z"/>
		<path id="path3083" inkscape:connector-curvature="0" class="st4 hov" d="M91.9,12.8c0,0,0,11.8,0,14.5c0,0,17.1,0,17.9,0
			c0-3.1,0-14.6,0-14.6"/>
		<path id="path3085" inkscape:connector-curvature="0" class="st4 hov" d="M100.8,12.1v15.3"/>
		<path id="path3087" inkscape:connector-curvature="0" class="st4 hov" d="M101.1,25.5c0.8,0,2.1,0.5,3.5,1c1.7,0.5,3.6,0.2,5,0.4
			c0.4,0.1-8.4,0.2-8.4,0.2C101.1,25.3,101.1,25.5,101.1,25.5"/>
		<path id="path3089" inkscape:connector-curvature="0" class="st4 hov" d="M101.1,25.5c0.8,0,2.1,0.5,3.5,1c1.7,0.5,3.6,0.2,5,0.4
			c0.4,0.1-8.4,0.2-8.4,0.2C101.1,25.3,101.1,25.5,101.1,25.5L101.1,25.5z"/>
		<path id="path3091" inkscape:connector-curvature="0" class="st4 hov" d="M99.8,27.8c0-0.4,0.4-0.7,1-0.7c0.6,0,1,0.3,1,0.7
			c0,0.4-0.4,0.7-1,0.7C100.2,28.4,99.8,28.1,99.8,27.8"/>
		<path id="path3093" inkscape:connector-curvature="0" class="st4 hov" d="M99.8,27.8c0-0.4,0.4-0.7,1-0.7c0.6,0,1,0.3,1,0.7
			c0,0.4-0.4,0.7-1,0.7C100.2,28.4,99.8,28.1,99.8,27.8z"/>
		<path id="path3095" inkscape:connector-curvature="0" class="st4 hov" d="M100.3,25.5c-0.8,0-2.1,0.5-3.5,1c-1.7,0.5-3.6,0.2-5,0.4
			c-0.4,0.1,8.4,0.2,8.4,0.2C100.3,25.3,100.3,25.5,100.3,25.5"/>
		<path id="path3097" inkscape:connector-curvature="0" class="st4 hov" d="M100.3,25.5c-0.8,0-2.1,0.5-3.5,1c-1.7,0.5-3.6,0.2-5,0.4
			c-0.4,0.1,8.4,0.2,8.4,0.2C100.3,25.3,100.3,25.5,100.3,25.5L100.3,25.5z"/>
		<path id="path3101" inkscape:connector-curvature="0" class="st4 hov" d="M41.5,32.1c0.3,1.1,1.1,1.9,2.5,1.9c2.6,0,5-1.9,6.5-3
			c1.2-0.8,2.4-1.7,2.4-3.5l-0.2,0.7c0,0,2-2,7-0.4c1.4,0.4,7.3,3.8,8.5,4.3c1.1,0.5,4.9,3.2,10.9,2.2c0,0,9.2-1.3,7.1-10.7
			c-1.5-6.7-1-7.2-0.5-9.4c-0.2-0.1-5.6-1.3-5.5,6.2c-2.3,0.2-5.3,2-3.4,6.6c0.8-1.2,1.8-2.4,3.3-2.4c0.9,0,1.9,1.3,1.9,2.3
			c0.1,2.4-2.2,3.4-5.2,2.9c-1.5-0.2-2.9-1.9-4.9-3.4c0.4-0.2,0.7-1.4,0.7-1.9c0-1.2-1-1.7-1.7-2.1c0.1-0.4,0.4-1,0.4-1.4
			c0-1-1.3-0.9-1.9-1.2c0.2-0.3,0.2-0.1,0.2-0.6c0-1.4,0.2-2.1-2.6-2.1c0.2-1.4-0.1-2.2-1-2.6l-2.1-0.3c-1.3-0.2,0-0.7-1.2-1.8
			c-1.1-1-2.8,0-2.8,0c0-1-0.7-1.7-1.8-1.7c-0.6,0-1.4,0.1-1.8,0.3l-0.9,0.7c-1.1,0-1.3-1-2.6-1c-1.2,0-1.7,1-2.2,1.6
			c-0.8-0.4-1-1.1-2.1-1.1c-0.7,0-0.9,0.7-1.1,1c-0.7,0.8-0.7,1.7-1.8,2.1l-0.4-0.8c0,0,0-0.1,0-0.1c-1.7,0.8-5.5,9.5-5.5,11.3
			c0,1.7,1.5,1,1.5,2.8c0,1.1-1.6,1.8-1.6,2.8c0,1.2,1.3,1.7,2.5,1.7L41.5,32.1L41.5,32.1z"/>
		<path id="path3103" inkscape:connector-curvature="0" class="st4 hov" d="M45.5,24.8c0,0,1.9,0.7,1.9,1.1c0,0.5-1.2,1.1-2,1.8h-1
			c0.4-1.2,0-0.7,0-1.8C44.3,25.2,45.1,24.8,45.5,24.8"/>
		<path id="path3105" inkscape:connector-curvature="0" class="st4 hov" d="M45.5,24.8c0,0,1.9,0.7,1.9,1.1c0,0.5-1.2,1.1-2,1.8h-1
			c0.4-1.2,0-0.7,0-1.8C44.3,25.2,45.1,24.8,45.5,24.8z"/>
		<path id="path3107" inkscape:connector-curvature="0" class="st4 hov" d="M52.3,21.7c1-0.5,0.5-1.7,2.1-1.7c1.4,0,1.9,1,3.2,1
			c0.8,0,1.4-0.8,2.6-0.8c1,0,2.4,1.4,2.2,3c0,0,3.6-1.2,3.4,2.7c2.9-1,2.6,1.4,2.9,2.6c0.3,1.1,2.2,0.2,1.9,2.6"/>
		<path id="path3111" inkscape:connector-curvature="0" class="st4 hov" d="M14,12.8h2.9c2.1-0.5,2.9-1.7,5.1-1.7c1.6,0,2.3,1,3.4,1
			c1,0,2.5-1.1,4.1-1.1c1.7,0,2.5,1,3.6,1.5c1,0.4,2.2,0.4,3.6,0.4c0,1,0,1.5,0,2.4c0,0.8,1.1,0.5,1.1,1.8c0,1.4-1.4,1.1-1.4,1.7
			l-0.1,5.3c0.1,0.7,1.4,0.7,1.4,1.7c0,1.5-1.5,1-1.4,2.1c0.1,0.9,0,2.7,0,2.7c-2.9,0-20.8,0-21.7,0c0.1-2,0-1.7,0-2.6
			c0.1-0.8-1.7-1.2-1.7-2.5c0-0.9,1-0.8,1.1-1.7v-5.3c-0.1-0.7-1.6-1-1.5-2c0.1-1.2,1.4-1,1.4-1.8C14,14.4,14,13.2,14,12.8L14,12.8z
			"/>
		<path id="path3113" inkscape:connector-curvature="0" class="st4 hov" d="M16.3,12.9c0,0,0,11.8,0,14.5c0,0,17.1,0,17.9,0
			c0-3.1,0-14.6,0-14.6"/>
		<path id="path3115" inkscape:connector-curvature="0" class="st4 hov" d="M25.3,12.2v15.3"/>
		<path id="path3117" inkscape:connector-curvature="0" class="st4 hov" d="M25.5,25.6c0.8,0,2.1,0.5,3.5,1c1.7,0.5,3.6,0.2,5,0.4
			c0.4,0.1-8.4,0.2-8.4,0.2C25.6,25.4,25.5,25.6,25.5,25.6"/>
		<path id="path3119" inkscape:connector-curvature="0" class="st4 hov" d="M25.5,25.6c0.8,0,2.1,0.5,3.5,1c1.7,0.5,3.6,0.2,5,0.4
			c0.4,0.1-8.4,0.2-8.4,0.2C25.6,25.4,25.5,25.6,25.5,25.6z"/>
		<path id="path3121" inkscape:connector-curvature="0" class="st4 hov" d="M24.3,27.8c0-0.4,0.4-0.7,1-0.7c0.6,0,1,0.3,1,0.7
			c0,0.4-0.4,0.7-1,0.7C24.7,28.5,24.3,28.2,24.3,27.8"/>
		<path id="path3123" inkscape:connector-curvature="0" class="st4 hov" d="M24.3,27.8c0-0.4,0.4-0.7,1-0.7c0.6,0,1,0.3,1,0.7
			c0,0.4-0.4,0.7-1,0.7C24.7,28.5,24.3,28.2,24.3,27.8z"/>
		<path id="path3125" inkscape:connector-curvature="0" class="st4 hov" d="M24.8,25.6c-0.8,0-2.1,0.5-3.5,1c-1.7,0.5-3.6,0.2-5,0.4
			c-0.4,0.1,8.4,0.2,8.4,0.2C24.7,25.4,24.8,25.6,24.8,25.6"/>
		<path id="path3127" inkscape:connector-curvature="0" class="st4 hov" d="M24.8,25.6c-0.8,0-2.1,0.5-3.5,1c-1.7,0.5-3.6,0.2-5,0.4
			c-0.4,0.1,8.4,0.2,8.4,0.2C24.7,25.4,24.8,25.6,24.8,25.6L24.8,25.6z"/>
		<path id="path3141" inkscape:connector-curvature="0" class="st4 hov" d="M72.2,26c-2.4-2.6-4.5-5.7-4.8-5.8c-1.2-0.5-3.9-6-11.4-6.4
			c-1.9-0.1-9,0.6-9.3,2.4"/>
		<path id="path3143" inkscape:connector-curvature="0" class="st4 hov" d="M53,28c0-0.2,0-0.4,0-0.6c0-0.3-1.7-0.1-2.2-0.3
			c-0.3-0.1,0.8-0.5,0.6-0.5c1.1-0.4,3.8-1.6,2.9-2.6c-0.9-0.9-1.5-1.8-2-2.4c-0.7-0.8-1.5-1.2-2.8-1.2c-1.1,0-2.9,1.9-3.6,2.4
			c0.5-0.5,2.1-1.9,2.1-3c0-2.5-2-4.6-2.5-6.7"/>
	</g>
	<path id="path3145" inkscape:connector-curvature="0" class="st4 hov" d="M42.2,31.7c2,0,3.1-0.1,4-0.6c1-0.5,2.9-1.7,3.3-2.7"/>
	<path id="path3147" inkscape:connector-curvature="0" class="st5 hov" d="M9.9,4.7h106.2c0,0,0,52.2,0,53.1
		c-0.7,43.3-49.2,66-55.3,65.8c-6.3-0.2-51-22.5-50.9-66C9.9,56.8,9.9,4.7,9.9,4.7L9.9,4.7z"/>
</g>
<g id="Layer_2">
</g>
</svg>
