<svg id="Layer_1" data-name="Layer 1" xmlns="http://www.w3.org/2000/svg" viewBox="0 0 108.25 120.2">
  <defs>
    <style>
    	g {
    	fill: blue;
    	}
      .cls-1 {
        fill: #fff;
      }
      .cls-1:hover {
      	fill: blue;
      }

      .cls-2, .cls-3, .cls-5, .cls-6 {
        fill: none;
      }

      .cls-2, .cls-5 {
        stroke: #7f7c7f;
      }

      .cls-2, .cls-3, .cls-6 {
        stroke-miterlimit: 3.86;
      }

      .cls-2, .cls-3 {
        stroke-width: 1.25px;
      }

      .cls-3, .cls-6 {
        stroke: #fff;
      }

      .cls-4 {
        fill: #7f7c7f;
        fill-opacity: 0.8;
      }

      .cls-5 {
        stroke-miterlimit: 10;
      }

      .cls-6 {
        stroke-width: 1.29px;
      }
    </style>
  </defs>
  <title>UPenn_logo</title>
  <g id="svg3399">
    <path id="path3069" class="cls-1" d="M10,37c.2.2,0-32.3,0-32.3H116.1V37" transform="translate(-8.49 -4.05)"/>
    <path id="path3071" class="cls-2" d="M10,37c.2.2,0-32.3,0-32.3H116.1V37Z" transform="translate(-8.49 -4.05)"/>
    <path id="path3073" class="cls-1" d="M15.9,84.2a60.46,60.46,0,0,0,16.2,21.4L63,74.3l29.7,30.5a79.08,79.08,0,0,0,16.4-20.4L63,40,16.1,84.3" transform="translate(-8.49 -4.05)"/>
    <path id="path3075" class="cls-3" d="M15.9,84.2a60.46,60.46,0,0,0,16.2,21.4L63,74.3l29.7,30.5a79.08,79.08,0,0,0,16.4-20.4L63,40,16.1,84.3Z" transform="translate(-8.49 -4.05)"/>
    <path id="path3077" class="cls-3" d="M10,37.2H116.1" transform="translate(-8.49 -4.05)"/>
    <path id="path3129" class="cls-4" d="M28.2,80.7a9.08,9.08,0,0,1,9.3-8.9,8.91,8.91,0,1,1,0,17.8,9.08,9.08,0,0,1-9.3-8.9" transform="translate(-8.49 -4.05)"/>
    <path id="path3133" class="cls-4" d="M53.7,59.2A9.31,9.31,0,1,1,63,68.1a9.08,9.08,0,0,1-9.3-8.9" transform="translate(-8.49 -4.05)"/>
    <path id="path3137" class="cls-4" d="M77.7,80.7A9.31,9.31,0,1,1,87,89.6a9.08,9.08,0,0,1-9.3-8.9" transform="translate(-8.49 -4.05)"/>
    <g>
      <path id="path3081" class="cls-5" d="M89.5,12.7h2.9c2.1-.5,2.9-1.7,5.1-1.7,1.6,0,2.3,1,3.4,1s2.5-1.1,4.1-1.1,2.5,1,3.6,1.5a9.93,9.93,0,0,0,3.6.4v2.4c0,.8,1.1.5,1.1,1.9s-1.4,1.1-1.4,1.7l-.1,5.3c.1.7,1.4.7,1.4,1.7,0,1.5-1.5,1-1.4,2.1a22.8,22.8,0,0,1,0,2.7c-2.9,0-21.2.2-22.1.1.1-2,.4-1.8.4-2.8.1-.8-1.7-1.2-1.7-2.5,0-.9,1-.8,1.1-1.7V18.4c-.1-.7-1.6-1-1.5-2,.1-1.2,1.4-1,1.4-1.8a11.48,11.48,0,0,0,.1-1.9Z" transform="translate(-8.49 -4.05)"/>
      <path id="path3083" class="cls-5" d="M91.9,12.8V27.3h17.9V12.7" transform="translate(-8.49 -4.05)"/>
      <path id="path3085" class="cls-5" d="M100.8,12.1V27.4" transform="translate(-8.49 -4.05)"/>
      <path id="path3087" class="cls-5" d="M101.1,25.5a13.74,13.74,0,0,1,3.5,1c1.7.5,3.6.2,5,.4.4.1-8.4.2-8.4.2-.1-1.8-.1-1.6-.1-1.6" transform="translate(-8.49 -4.05)"/>
      <path id="path3089" class="cls-5" d="M101.1,25.5a13.74,13.74,0,0,1,3.5,1c1.7.5,3.6.2,5,.4.4.1-8.4.2-8.4.2-.1-1.8-.1-1.6-.1-1.6Z" transform="translate(-8.49 -4.05)"/>
      <path id="path3091" class="cls-5" d="M99.8,27.8c0-.4.4-.7,1-.7s1,.3,1,.7-.4.7-1,.7-1-.4-1-.7" transform="translate(-8.49 -4.05)"/>
      <path id="path3093" class="cls-5" d="M99.8,27.8c0-.4.4-.7,1-.7s1,.3,1,.7-.4.7-1,.7S99.8,28.1,99.8,27.8Z" transform="translate(-8.49 -4.05)"/>
      <path id="path3095" class="cls-5" d="M100.3,25.5a13.74,13.74,0,0,0-3.5,1c-1.7.5-3.6.2-5,.4-.4.1,8.4.2,8.4.2.1-1.8.1-1.6.1-1.6" transform="translate(-8.49 -4.05)"/>
      <path id="path3097" class="cls-5" d="M100.3,25.5a13.74,13.74,0,0,0-3.5,1c-1.7.5-3.6.2-5,.4-.4.1,8.4.2,8.4.2.1-1.8.1-1.6.1-1.6Z" transform="translate(-8.49 -4.05)"/>
      <path id="path3101" class="cls-5" d="M41.5,32.1A2.42,2.42,0,0,0,44,34c2.6,0,5-1.9,6.5-3,1.2-.8,2.4-1.7,2.4-3.5l-.2.7s2-2,7-.4c1.4.4,7.3,3.8,8.5,4.3a15.88,15.88,0,0,0,10.9,2.2s9.2-1.3,7.1-10.7c-1.5-6.7-1-7.2-.5-9.4-.2-.1-5.6-1.3-5.5,6.2-2.3.2-5.3,2-3.4,6.6.8-1.2,1.8-2.4,3.3-2.4.9,0,1.9,1.3,1.9,2.3.1,2.4-2.2,3.4-5.2,2.9-1.5-.2-2.9-1.9-4.9-3.4.4-.2.7-1.4.7-1.9,0-1.2-1-1.7-1.7-2.1a7.37,7.37,0,0,0,.4-1.4c0-1-1.3-.9-1.9-1.2.2-.3.2-.1.2-.6,0-1.4.2-2.1-2.6-2.1.2-1.4-.1-2.2-1-2.6l-2.1-.3c-1.3-.2,0-.7-1.2-1.8s-2.8,0-2.8,0a1.66,1.66,0,0,0-1.8-1.7,4.84,4.84,0,0,0-1.8.3l-.9.7c-1.1,0-1.3-1-2.6-1s-1.7,1-2.2,1.6c-.8-.4-1-1.1-2.1-1.1-.7,0-.9.7-1.1,1-.7.8-.7,1.7-1.8,2.1l-.4-.8v-.1c-1.7.8-5.5,9.5-5.5,11.3s1.5,1,1.5,2.8c0,1.1-1.6,1.8-1.6,2.8,0,1.2,1.3,1.7,2.5,1.7l-.6.1Z" transform="translate(-8.49 -4.05)"/>
      <path id="path3103" class="cls-5" d="M45.5,24.8s1.9.7,1.9,1.1-1.2,1.1-2,1.8h-1c.4-1.2,0-.7,0-1.8-.1-.7.7-1.1,1.1-1.1" transform="translate(-8.49 -4.05)"/>
      <path id="path3105" class="cls-5" d="M45.5,24.8s1.9.7,1.9,1.1-1.2,1.1-2,1.8h-1c.4-1.2,0-.7,0-1.8C44.3,25.2,45.1,24.8,45.5,24.8Z" transform="translate(-8.49 -4.05)"/>
      <path id="path3107" class="cls-5" d="M52.3,21.7c1-.5.5-1.7,2.1-1.7,1.4,0,1.9,1,3.2,1,.8,0,1.4-.8,2.6-.8a2.74,2.74,0,0,1,2.2,3S66,22,65.8,25.9c2.9-1,2.6,1.4,2.9,2.6s2.2.2,1.9,2.6" transform="translate(-8.49 -4.05)"/>
      <path id="path3111" class="cls-5" d="M14,12.8h2.9c2.1-.5,2.9-1.7,5.1-1.7,1.6,0,2.3,1,3.4,1S27.9,11,29.5,11s2.5,1,3.6,1.5a9.93,9.93,0,0,0,3.6.4v2.4c0,.8,1.1.5,1.1,1.8s-1.4,1.1-1.4,1.7l-.1,5.3c.1.7,1.4.7,1.4,1.7,0,1.5-1.5,1-1.4,2.1a22.8,22.8,0,0,1,0,2.7H14.6a20.29,20.29,0,0,0,0-2.6c.1-.8-1.7-1.2-1.7-2.5,0-.9,1-.8,1.1-1.7V18.5c-.1-.7-1.6-1-1.5-2,.1-1.2,1.4-1,1.4-1.8a11.48,11.48,0,0,0,.1-1.9Z" transform="translate(-8.49 -4.05)"/>
      <path id="path3113" class="cls-5" d="M16.3,12.9V27.4H34.2V12.8" transform="translate(-8.49 -4.05)"/>
      <path id="path3115" class="cls-5" d="M25.3,12.2V27.5" transform="translate(-8.49 -4.05)"/>
      <path id="path3117" class="cls-5" d="M25.5,25.6a13.74,13.74,0,0,1,3.5,1c1.7.5,3.6.2,5,.4.4.1-8.4.2-8.4.2,0-1.8-.1-1.6-.1-1.6" transform="translate(-8.49 -4.05)"/>
      <path id="path3119" class="cls-5" d="M25.5,25.6a13.74,13.74,0,0,1,3.5,1c1.7.5,3.6.2,5,.4.4.1-8.4.2-8.4.2C25.6,25.4,25.5,25.6,25.5,25.6Z" transform="translate(-8.49 -4.05)"/>
      <path id="path3121" class="cls-5" d="M24.3,27.8c0-.4.4-.7,1-.7s1,.3,1,.7-.4.7-1,.7-1-.3-1-.7" transform="translate(-8.49 -4.05)"/>
      <path id="path3123" class="cls-5" d="M24.3,27.8c0-.4.4-.7,1-.7s1,.3,1,.7-.4.7-1,.7S24.3,28.2,24.3,27.8Z" transform="translate(-8.49 -4.05)"/>
      <path id="path3125" class="cls-5" d="M24.8,25.6a13.74,13.74,0,0,0-3.5,1c-1.7.5-3.6.2-5,.4-.4.1,8.4.2,8.4.2,0-1.8.1-1.6.1-1.6" transform="translate(-8.49 -4.05)"/>
      <path id="path3127" class="cls-5" d="M24.8,25.6a13.74,13.74,0,0,0-3.5,1c-1.7.5-3.6.2-5,.4-.4.1,8.4.2,8.4.2,0-1.8.1-1.6.1-1.6Z" transform="translate(-8.49 -4.05)"/>
      <path id="path3141" class="cls-5" d="M72.2,26c-2.4-2.6-4.5-5.7-4.8-5.8-1.2-.5-3.9-6-11.4-6.4-1.9-.1-9,.6-9.3,2.4" transform="translate(-8.49 -4.05)"/>
      <path id="path3143" class="cls-5" d="M53,28v-.6c0-.3-1.7-.1-2.2-.3-.3-.1.8-.5.6-.5,1.1-.4,3.8-1.6,2.9-2.6a27.87,27.87,0,0,1-2-2.4,3.36,3.36,0,0,0-2.8-1.2c-1.1,0-2.9,1.9-3.6,2.4.5-.5,2.1-1.9,2.1-3,0-2.5-2-4.6-2.5-6.7" transform="translate(-8.49 -4.05)"/>
    </g>
    <path id="path3145" class="cls-5" d="M42.2,31.7c2,0,3.1-.1,4-.6s2.9-1.7,3.3-2.7" transform="translate(-8.49 -4.05)"/>
    <path id="path3147" class="cls-6" d="M9.9,4.7H116.1V57.8c-.7,43.3-49.2,66-55.3,65.8-6.3-.2-51-22.5-50.9-66,0-.8,0-52.9,0-52.9Z" transform="translate(-8.49 -4.05)"/>
  </g>
</svg>
