<?xml version="1.0" encoding="utf-8"?>
<!-- Generator: Adobe Illustrator 21.1.0, SVG Export Plug-In . SVG Version: 6.00 Build 0)  -->
<svg version="1.1" id="Layer_1" xmlns="http://www.w3.org/2000/svg" xmlns:xlink="http://www.w3.org/1999/xlink" x="0px" y="0px"
	 viewBox="0 0 736 747.9" style="enable-background:new 0 0 736 747.9;" xml:space="preserve">
<style type="text/css">
	.st0{fill:#FFFFFF;}
	.st1{fill:#561E87;}
	#container {
		cursor: pointer;
	}

	#container:hover > .st0,st1 {
        fill: #67a4cc;
     }

</style>
<g id="container">
<path d="M0,359.9c1-8.9,2-17.8,3.1-26.7C11,269,34.3,210.9,73,159.1C119.3,97.1,179.5,54,252.7,29.4c29.1-9.8,59.2-15.5,89.9-17.4
	c2.5-0.2,4.9-0.7,7.3-1.1c12,0,24,0,36,0c9.4,1,18.8,2,28.2,3.2c38.6,4.7,75.5,15.5,110.7,32.1c41.2,19.5,77.7,45.7,109.1,78.7
	c36.1,37.9,63,81.4,80.5,130.8c12.1,34.1,18.8,69.3,20.7,105.4c0.1,1.6,0.5,3.2,0.8,4.9c0,8.7,0,17.3,0,26c-0.7,6.8-1.4,13.5-2,20.3
	c-3.8,43.6-15.3,85-34,124.5c-18.6,39.2-43.5,74-74.4,104.3c-31.7,31.1-67.9,55.6-108.5,73.7c-51.4,22.9-105.3,33.1-161.4,31.2
	c-75.1-2.6-143.3-25.9-204.2-70.1C102,639.9,63.8,594.4,37,539.5C17.8,500.2,6.1,458.8,2,415.2c-0.5-6.1-1.3-12.2-2-18.3
	C0,384.5,0,372.2,0,359.9z M367.8,735.9C564.3,736,725,576.2,725.2,380.4c0.2-198.5-159-358.7-356.8-358.9
	C170.6,21.3,10.8,180.9,10.6,378.9C10.5,575.8,170.6,735.9,367.8,735.9z"/>
<path class="st0" d="M367.8,735.9c-197.2,0-357.3-160.1-357.2-357c0.2-198,159.9-357.5,357.8-357.3c197.8,0.2,357,160.4,356.8,358.9
	C725,576.2,564.3,736,367.8,735.9z M92.7,377.6C92.4,529.6,215,652.5,367.2,653C519,653.5,642.6,530.9,643,379.5
	c0.4-152.9-121.9-276.3-274.2-276.6C216.1,102.6,93,225.1,92.7,377.6z M624.4,242.5c0.3-0.1,0.7-0.2,1-0.4c-0.3-1.3-1-2.7-0.8-4
	c0.3-2.1,0.5-5.1,1.9-6.1c4.6-3.1,9.7-5.5,14.9-8.3c4.8,9.5,9.1,18.2,13.4,26.8c-0.9,0.8-1.2,1.2-1.6,1.4c-2.8,1.5-5.6,3-8.4,4.3
	c-7.6,3.7-8,3.6-13.3-2.7c-0.1-0.1-0.6,0-1.6,0c5,9.8,9.8,19.4,14.6,29c0.2-4.3-1.9-8.7,3.1-11.3c9.7-5.1,19.6-10,29.4-14.8
	c3.4-1.7,6.5-1.3,8.7,2.2c0.6,0.9,0.8,2,1.2,3c0.6-0.5,1.1-1,1.7-1.6c-4.8-9.5-9.5-19-14.3-28.5c-0.7,1.7,0,3.1-0.2,4.4
	c-0.5,2.3-0.9,5.4-2.4,6.5c-4.1,2.9-8.9,4.9-13.8,7.4c-4.7-9.4-9.1-18.1-13.6-27.2c3.3-1.7,6.1-3.2,8.9-4.6c8-4.1,8-4.1,14.3,2.4
	c0.1,0.1,0.5-0.2,1.2-0.4c-4.9-9.5-9.7-19-14.5-28.5c0.5,9.6,0.5,9.5-8.5,14.1c-7,3.5-14,7-20.9,10.6c-7.5,3.8-7.9,3.7-13.3-2.7
	c-0.1-0.1-0.6,0.1-1.4,0.4C614.9,223.4,619.6,233,624.4,242.5z M496.7,83c0.2,3.4,0.3,5.1,0.3,6.9c0.1,8.7,0,17.3,0.3,26
	c0,1.6,0.8,3.9,1.9,4.4s3.4-0.4,4.5-1.5c7.4-6.7,14.4-13.9,21.9-20.5c5.7-5,9.6-12.9,18.9-13.3c-6.1-2.6-12.2-5.2-18.3-7.8
	c0.5,2,2.2,2.8,2.7,4.1c0.8,1.9,1.8,5,0.8,6.1c-5.8,6.9-12,13.5-18.1,20.1c-0.5-0.2-1-0.5-1.4-0.7c-0.1-1.6-0.4-3.1-0.4-4.7
	c-0.1-8.3,0-16.7-0.3-25c-0.1-2.9,1.8-7.2-2.4-8.1c-1.8-0.4-4.3,2.6-6.5,4.2c-1.1,0.8-1.9,1.9-2.8,2.8c-6.2,6-12.3,11.9-19.1,18.4
	c-0.4-1.8-0.8-2.7-0.8-3.6c0.1-7.3,0-14.7,0.3-22c0.3-7.6,1-8,8.7-6.8c0.5,0.1,1-0.3,2.8-0.7c-10.5-4.5-19.8-8.4-30.1-12.8
	c5.2,7.8,5.3,7.8,5.4,17.9c0.1,11.5,0.1,23,0.4,34.5c0.1,2,1.4,4,2.1,6c1.9-0.8,4.3-1.3,5.8-2.6C480.9,97.7,488.1,90.9,496.7,83z
	 M58.1,333.4c-0.6-1.8-0.9-2.4-1-3.1c-1.8-9.7-4.9-13.9-10.8-14c-5.7-0.2-10.4,4.9-12.6,13.5c-0.1,0.5-0.3,1-0.3,1.5
	c-1,7.6-2.1,15.2-3,22.7c-0.8,6.2-1.4,12.3-2.1,18.5c1.4-0.7,1.9-1.7,2.2-2.7c1.1-4.2,4-5.4,8-4.9c10.4,1.2,20.8,2.5,31.2,3.7
	c3.7,0.4,5.7,2.3,6.3,6c0.2,1.2,0.4,2.3,0.6,3.5c0.3,0,0.6-0.1,0.9-0.1c1.2-10.4,2.4-20.8,3.5-31.1c-3.8,7.3-4.7,7.9-12.8,7.2
	c-2.2-0.2-4.3-0.7-6.4-0.8c-4.2-0.2-4.5-2.2-2.6-5.1c1.2-1.8,2.7-3.4,4.4-4.7c5.4-4.2,11-8.1,16.4-12.2c1.3-1,3.1-2.2,3.3-3.5
	c0.9-5.6,1.2-11.3,1.7-16.8C76,318.3,67.4,325.6,58.1,333.4z M647.8,561.1c0.1-15.1-11.5-24.9-26.3-22.2
	c-18,3.3-36.6,27.5-35.2,45.8c1.1,14.6,13.7,23.3,28.1,19.5C631.4,599.9,647.7,578.7,647.8,561.1z M285.9,99.8
	c16.2-0.8,29-4.1,38.9-14.3c12.8-13.2,8-32.5-9.8-37.3c-6.8-1.8-14.6-1.9-21.6-0.9c-12,1.6-22.8,6.5-30,17
	c-7.7,11.3-3.7,26,8.7,31.5C277.1,98.1,282.8,99,285.9,99.8z M546.8,668.2c0.7,0.2,1.3,0.5,2,0.7c5.7-4.5,11.4-8.9,17-13.4
	c-0.1-0.6-0.1-1.1-0.2-1.7c-7.9,5.3-12.2,0.9-16.2-4.7c-1.8-2.6-3.9-5-5.8-7.5c-1.8-2.4-3.5-4.9-6.1-8.4c15.9,1.1,30.3,2,44.7,3
	c7.4,0.6,19.6-6,23.3-13.1c-1.7,0.7-3,1.4-4.4,1.6c-3.3,0.5-6.5,1-9-2.4c-5.1-7-10.6-13.7-15.8-20.6c-5.5-7.1-5.5-7.4-0.9-14.7
	c0.1-0.1-0.3-0.5-0.7-1.2c-5.8,4.5-11.4,9-16.6,13c3.9,0.5,8.9-0.4,10.9,1.7c6.8,6.9,12.5,14.9,19.2,23.2c-5.2,0-8.9,0.2-12.7,0
	c-14.8-0.8-29.6-1.9-44.4-2.6c-2.2-0.1-4.4,0.9-6.7,1.5c0.4,1.4,0.5,1.7,0.7,2c7,9.1,14.1,18.2,21,27.3
	C550.1,656.9,554.9,661.9,546.8,668.2z M706.6,329.4c-0.5-0.1-1-0.2-1.4-0.3c-0.3,0.8-0.7,1.7-0.9,2.5c-1.3,4.9-3.9,7.6-9.5,7.6
	c-7-0.1-14,0.6-20.9,0.8c-3.3,0.1-7,0.8-9.9-0.4c-2.7-1.2-4.5-4.4-6.2-6.3c0,6.4,0,13.4,0,20.3c0.5,0.3,1,0.6,1.5,0.9
	c0.2-10.1,7.2-10.3,13.8-10.5c7.2-0.2,14.4,0,22.3,0c-1.5,2-2.4,3.3-3.4,4.6c-10.4,12.8-20.8,25.6-31,38.5c-1.5,1.9-2.2,4.5-3.2,6.6
	c12.5,0,23.8,0,35.1,0c6.3,0,13.4-1.6,15.3,7.3c0-6.8,0-13.7,0-20.4c-2.4,2.9-4.2,7.2-6.6,7.7c-8.7,1.5-17.6,1.6-26.4,2.3
	c-0.2-0.5-0.3-1-0.5-1.5c1.3-1.6,2.5-3.3,3.9-4.9c8-9.8,15.6-20,24.2-29.2C710.3,346.7,705.1,337.9,706.6,329.4z M155.2,575.1
	c1.7,11.7,1.7,11.7-5.7,17.9c-4.4,3.6-8.7,7.3-13.1,10.8c-1.2,1-2.5,1.8-4.6,3.3c0-3.1,0-5.1,0-7.1c0.4-16.5,0.8-33,1-49.5
	c0-2.2-1.1-4.5-1.9-7.6c-10.5,8.8-19.8,16.3-28.9,24.2c-4.7,4.1-9.4,6.3-15,1.7c-0.1-0.1-0.5,0.3-1.2,0.7
	c4.6,5.4,9.2,10.8,13.3,15.6c0.4-3.8-0.5-8.5,1.5-10.6c5.8-6.3,12.6-11.5,19-17.2c0.4,0.2,0.8,0.4,1.3,0.6c0,2.2,0.1,4.5,0,6.7
	c-0.4,12.7-0.1,25.4-1.3,37.9c-1.1,11.2,8.4,14.9,13,22.1c0.4-1.1,0.2-1.8-0.1-2.5c-2.4-6.2-1.9-8.3,3.1-12.5
	c5.7-4.8,11.7-9.4,17.2-14.5c4.9-4.4,9.6-7.3,15.6-2.2c0.1,0.1,0.5-0.3,1-0.6C165,586.9,160.4,581.4,155.2,575.1z M694.5,463.3
	c7.1-9.5,9.6-20.7,8.2-32.7c-1.4-12.4-9.9-21.6-21.2-23.4c-10.5-1.6-20.3,4.3-25.7,15.8c-1.1,2.4-2.5,4.9-2.7,7.5
	c-0.9,10.4-1.2,20.8-2,31.2c-0.3,3.7,1,5,4.5,5.5c4.6,0.6,9.6,1.1,8.8,8.6c0.5-0.3,1-0.5,1.5-0.8c1.8-9.1,3.6-18.2,5.4-27.3
	c-0.5-0.2-1-0.4-1.4-0.7c-1.6,4.6-3.6,8.3-9.3,6.5c-4.9-1.5-6.9-4.2-6.9-10.1c0.1-15.5,12-23.6,28.1-19.3
	c10.3,2.8,16.8,9.2,17.4,17.5c0.8,10.4-3.9,17.7-14.4,22.5c-1.1,0.5-1.9,1.7-3.8,3.4c4.6,0.8,7.8,1.5,11,1.8
	c1.6,0.2,3.3-0.5,4.9-0.7C696.3,467.1,695.6,465.6,694.5,463.3z M59.4,239.1c-0.6,1.3-1.4,2.3-1.2,2.7c2,3.9-1,5.9-2.8,8.5
	c-5.8,8.8-9.7,18.3-7.4,29.1c1.5,7.1,7.6,10.7,13.8,8.2c2.8-1.1,5.6-3.1,7.6-5.3c4.5-5.1,8.5-10.7,12.8-15.9
	c2.9-3.4,6.4-6.6,11.1-4.3c4.8,2.3,4,7.1,3.5,11.5c0,0.3-0.1,0.6-0.2,1c-2.7,9.3-7.8,16.1-18,17.8c-1.3,0.2-2.5,1.7-3.7,2.6
	c1.1,1,2.1,2.2,3.4,2.8c2.4,1.2,4.9,2.1,7.4,2.8c0.9,0.3,2.5,0.1,2.9-0.5c0.5-0.7,0.5-2.1,0.2-3.1s-1.1-1.9-2-3.2
	c1.2-1,2.4-1.7,3.3-2.7c8.2-9.3,12-20.2,11.3-32.6c-0.3-5.1-2.5-9.3-7.5-11.5c-5.1-2.2-9.5-0.4-13.3,3c-2.9,2.7-5.6,5.7-8.1,8.8
	c-3.3,4-6.2,8.2-9.6,12.1c-2.2,2.6-5.6,5.1-8.6,2.6c-1.9-1.6-3.2-5.6-2.8-8.2c1.4-8.9,6-15.7,15.3-18.4c1.5-0.4,2.7-1.9,5-3.6
	C67,241.7,63.4,240.5,59.4,239.1z M583.9,160.7c-0.5-0.1-1-0.1-1.5-0.2c-3,2.6-6.1,5.1-9.1,7.8c-0.6,0.5-1.2,1.9-0.9,2.5
	c0.5,0.9,1.9,2,2.5,1.8c3.9-1.2,3.9,1.7,4.7,4c4.8,12.6,12.7,22.4,26,26.4c9.2,2.8,16.6-4,14.7-13.5c-1-5.2-3.2-10.1-5.1-15.1
	c-1.7-4.7-4.1-9.2-5.3-13.9c-0.5-2,0.5-5.6,2-6.5c1.8-1.1,5.2-0.8,7.3,0.2c8,4,12.1,14.1,10.3,22.9c-0.4,1.7,0.3,3.6,0.7,6.7
	c4.1-3.9,6.9-6.6,9.9-9.5c-0.8-1.1-1.3-2.6-1.9-2.5c-4.9,0.1-4.8-4.1-6.4-6.9c-4.7-8.7-10.8-16.1-20.4-19.6
	c-8.8-3.1-16.1,2.4-15.2,11.6c0.4,4.1,2,8,3.4,11.9c1.9,5.1,4.8,10,6.1,15.3c0.7,2.7-0.3,6.7-2.1,8.9c-2.4,3-6.1,1.3-9.1-0.4
	c-9.1-5.2-13.4-16-10.7-26.2C584.3,164.7,583.9,162.7,583.9,160.7z M84.5,440.6c-2.2-18.7-4.3-37.4-6.5-56.1c-3,0.3-5.2,0.4-7.3,0.7
	c-2.1,0.3-4.2,0.8-7.8,1.5c2.3,1.5,3.1,2.3,4,2.7c8.7,3.5,14.1,15.6,10.7,24.4c-0.6,1.6-2.1,3.6-3.5,3.9c-5.2,1.3-10.5,1.9-15.1,2.7
	c-4.5-8.3,1.5-12.5,6.1-18.4c-7.9,1-13.9,1.8-20,2.6c-0.1,0.5-0.1,1.1-0.2,1.6c1.2,0.5,2.4,1.1,3.7,1.6c3.6,1.5,7.4,7.4,5.9,11
	c-0.7,1.6-4.4,2.1-6.9,2.9c-1.6,0.5-3.3,0.5-4.9,0.6c-7.8,0.6-7.9,0.7-8.8-7.2c-0.8-7.3-1-14.5,6.6-18.9c0.6-0.4,0.7-1.6,1.3-3.3
	c-3.1,0.4-5.5,0.8-8,0.9c-4.1,0.2-5.2,2-4.4,6.2c1.3,6.9,1.8,13.9,2.7,20.8c1,8.5,2,16.9,3.1,25.4c3-8.7,3-8.8,12.5-10
	c7.4-0.9,14.9-1.7,22.3-2.5C79.8,432.4,79.8,432.4,84.5,440.6z M200.1,675.8c-0.4-1.6-0.4-2.1-0.6-2.4c-5.1-6.2-5.1-6.6-0.4-13.2
	c3.8-5.3,7.7-10.5,11.3-15.8c5.2-7.6,4.9-14.9-0.8-22.1c-5.9-7.2-13.2-12.8-21.8-16.2c-9.7-3.8-17-1.6-23.3,6.7
	c-3.8,5.1-7.4,10.3-11.1,15.4c-2.6,3.6-5.9,5.3-10.4,3.6c-0.8-0.3-1.7-0.2-2.5-0.3c-0.1,0.3-0.2,0.6-0.3,0.9
	c5.8,4.1,11.6,8.3,17.4,12.4c0.5-0.3,1-0.5,1.5-0.8c-6.9-5.8-4.2-11.1-0.1-16.5c2.7-3.6,5.2-7.3,7.9-10.9c7.4-10.2,14-11.4,24.6-4.4
	c2.4,1.5,4.6,3.3,6.6,5.3c5,5.1,5.9,10.3,2.1,16.3c-4.6,7.1-9.8,13.9-14.8,20.7c-2.3,3.1-5.3,3.8-8.8,1.9c-0.9-0.5-1.9-0.6-2.9-0.9
	c-0.1,0.3-0.3,0.6-0.4,0.9C181.9,662.6,190.6,668.9,200.1,675.8z M374.9,88.6c-3.6-1.6-8.4-1.6-8.8-6.8c-0.4-5.3-0.1-10.6-0.1-16.8
	c3.7,0.6,7.2,0.5,9.9,2c2.6,1.4,4.4,4.5,7.2,7.7c0-7.7,0-14,0-20.3c-0.4-0.2-0.9-0.3-1.3-0.5c-1.1,1.6-2.2,3.2-3.3,4.8
	c-2.6,3.7-6.6,5-10.5,3.7c-1.4-0.4-1.6-4.5-2.3-7c-0.2-0.9,0-2,0-3c0-11.2,0-11.2,11.3-10.5c6.3,0.4,12.3,1.4,15.3,8.2
	c0.3,0.7,1.7,1,3.3,1.9c0-2.7,0.1-4.5,0-6.2c-0.3-6.6-0.3-6.6-6.8-6.6c-13.8,0.1-27.6,0.1-41.4,0.2c-1.5,0-3.1,0.2-4.6,0.2
	c8.6,3.9,8.6,3.9,8.6,13.5c0,7.3,0,14.6,0,22c0,10,0,10-9.7,13.6C353.6,88.6,364.2,88.6,374.9,88.6z M392.6,688.9
	c0.4-3.8,0.2-8.7,1.4-13.2c1.6-6.1,7.9-7.1,12.3-2.6c1.4,1.5,3.4,3.4,5.1,3.3c2,0,4-1.9,6.1-3c-1.2-1.6-2.1-4.1-3.6-4.6
	c-3.2-1-6.9-1.7-10.2-1.3c-18.9,2.3-27.8,17.3-22.2,36.6c2.2,7.7,6.5,13.8,14.8,15.2c9.1,1.6,17.7-0.1,24-7.6
	c8.1-9.6,3.6-22.9-8.8-24.7C405.9,686.3,399.8,688.1,392.6,688.9z M335.2,694.3c-3,1.2-5.5,2-7.9,3.1c-7.5,3.8-8.5,12-1.7,16.8
	c9.8,6.9,20.8,8.1,31.8,3.3c10-4.3,11-15.1,2.8-22.2c-1.6-1.3-3.2-2.5-5.3-4.1c2.2-1,3.7-1.7,5.1-2.4c7.8-3.8,8.7-11.2,1.4-15.8
	c-9.1-5.8-19.1-6.9-29-2c-7,3.5-8.4,11.2-3.4,17.2C330.6,690.3,332.8,692,335.2,694.3z M162.9,174.4c-8.6,5-8.7,5-16.3-1.7
	c-7.1-6.3-14.3-12.5-21.2-18.9c-1.2-1.1-2.5-3.6-2-4.8c2.4-6.4,11-10.3,17.7-8.6c1.3,0.3,2.8-0.1,4.3-0.2c0.1-0.5,0.1-1,0.2-1.5
	c-3.3-2.7-6.5-5.4-10.2-8.4c-14.2,16.1-28,31.8-41.6,47.3c3.5,3.5,6.4,6.4,10.1,9.9c0.3-1.7,1.1-3.2,0.7-4.1
	c-4.1-7.6-1-13.3,4.5-18.6c2.4-2.4,4.3-2.4,6.8-0.1c6.4,5.8,13,11.4,19.4,17.2c8.6,7.7,8.6,7.7,5.4,17.8
	C148,191.2,155.4,182.8,162.9,174.4z M690.8,490.8c-3.6-1.8-6.5-3.4-9.5-4.8c-0.9-0.4-2-0.1-3.1-0.1c0.2,1.1,0.1,2.7,0.8,3.4
	c5.5,5.5,4.5,11.2,1.4,17.4c-1.9,3.9-4,5.1-8.2,3c-8.5-4.2-17.2-7.9-25.8-12c-8-3.7-8.1-4.2-6-13c0-0.1-0.4-0.4-1-1
	c-4.7,10.3-9.3,20.4-13.9,30.5c1.6-0.4,2.5-1.3,3.2-2.3c2.1-3.5,5.1-4,8.6-2.4c10.3,4.6,20.6,9.3,30.9,14.1c1.2,0.6,2.6,2.8,2.4,4
	c-1.2,7.4-7.3,12.6-14.8,13.2c-1.3,0.1-2.5,0.9-3.7,1.4c3.1,2.5,6,3.6,8.8,5c2.7,1.3,4.2,0.6,5.4-2.2c2.3-5.5,5-10.9,7.4-16.3
	C679.3,516.1,684.9,503.7,690.8,490.8z M567.5,165.3c0.5-0.3,1-0.6,1.6-0.9c-5-3.9-5-9-4.2-14.2c2-13.5,4.2-27,6.1-40.5
	c0.2-1.6,0-4.2-0.9-4.7c-1.4-0.8-3.8-0.6-5.4,0.1c-10.9,5-21.8,10.1-32.5,15.3c-6.3,3.1-12.4,6.6-19.9,2.8c-0.1,0.4-0.3,0.9-0.4,1.3
	c6,4.4,12,8.8,18,13.2c0.3-0.3,0.5-0.6,0.8-0.9c-0.5-0.6-0.9-1.3-1.5-1.8c-2.1-2.4-4-4.8-1.1-7.8c3-3.3,7.6-4.3,10.5-2.2
	c4.2,3,8.4,6,12.4,9.2c1.2,0.9,2.5,2.5,2.5,3.9c0.2,8.7-2.5,10.6-10.5,7.5c-0.2-0.1-0.6,0.2-1.6,0.7
	C550.4,152.7,559,159,567.5,165.3z M191,120.8c-1.7,0-2,0.1-2.3,0c-5.1-1.7-10.1-3.3-15.1-5c-8.1-2.8-8.4-3.7-3.3-10.3
	c0.1-0.2-0.1-0.6-0.4-1.5c-8.4,6-16.6,11.9-25.4,18.2c4.2,0.3,7.7,0,10.9,0.9c8.5,2.5,16.8,5.4,25.1,8.2c5.6,1.9,8.1,7.1,9.7,11.9
	c0.7,2.1-2.4,5.5-3.7,8.3c-0.1,0.2,0.2,0.5,0.6,1.2c8.9-6.4,17.7-12.7,27.1-19.5c-4.1,0.6-8.6,2.5-9.7,1.2c-4-4.3-9.6-9.7-9.6-14.7
	c-0.1-11.6-2.1-23.7,3.5-36.2C192,88.1,186.6,92,181.2,96c1.5,0.5,2.5,0.2,3.5-0.1c3.7-1.3,6.2,0.4,6.4,3.9
	C191.3,106.7,191,113.6,191,120.8z M79.2,468.5c-6.6,7.1-12.8,14-19.3,20.6c-5.3,5.4-6.7,5-10.6-1.6c-0.2-0.4-0.9-0.6-2.2-1.4
	c3.7,11.1,7,21.2,10.3,31.2c0.5,0.1,1,0.1,1.5,0.2c-2.1-8.4,3.9-12.2,8.5-16.9c8.5-8.6,17.1-17.3,25.5-26c1.1-1.1,2.4-3.4,2-4.4
	c-0.6-1.4-2.6-2.7-4.3-3.1c-8.1-1.7-16.5-2.5-24.5-4.6c-10-2.6-21.9-0.1-29.9-10c2.4,7.2,4.8,14.4,7.5,22.7c0.6-1.7,0.9-2.1,0.9-2.5
	c-0.5-7.5,0.5-8.9,7.7-8.2C61.4,465.6,70.4,467.3,79.2,468.5z M128.7,216.3c-7.8,5.7-7.8,5.7-16.4,0.5c-6.7-4-13.4-8-20.1-12
	c-7.4-4.5-7.4-4.7-5-13.2c0-0.1-0.4-0.4-1-1.1c-5.6,9.4-11.1,18.6-16.5,27.9c0.3,0.3,0.6,0.5,1,0.8c2.9-3.3,5.6-7.1,10.7-4.1
	c9.4,5.6,18.8,11.2,28.2,16.9c2.9,1.8,3.9,4.4,2.7,7.7c-0.4,1.1-0.6,2.3-0.9,3.5c0.3,0.1,0.6,0.3,0.9,0.4
	C117.7,234.5,123.2,225.4,128.7,216.3z M79.3,556.2c-1.1-9.5-1.1-9.5,7.6-14.3c6-3.3,12-6.5,18-9.8c9.6-5.3,9.6-5.3,17.9,0.3
	c-5.1-9.3-10.3-18.7-15.4-28c0.9,9.4,0.9,9.4-8,14.3c-6.9,3.8-13.7,7.6-20.6,11.3c-7.4,4-7.5,3.9-13.5-2.2c-0.1-0.1-0.6,0.1-1.5,0.3
	C69.1,537.6,74.2,546.9,79.3,556.2z M653.3,322.4c1.2-4,0.1-8.8,5.5-10.3c10.8-2.9,21.6-5.7,32.4-8.3c3.3-0.8,5.9,0.3,7.3,3.6
	c0.5,1.1,1.2,2.1,1.8,3.2c0.3-0.1,0.7-0.3,1-0.4c-2.6-10.2-5.2-20.4-7.8-30.7c-0.6-0.3-1.1-0.5-1.7-0.8c2.8,10.3-4.1,11.1-10.4,12.6
	c-7.1,1.7-14.2,3.6-21.3,5.4c-8.8,2.2-8.8,2.2-13.5-5.4c-0.1-0.1-0.5,0.1-1.1,0.2C648,302,650.7,312.2,653.3,322.4z M477,702.5
	c-9.4-0.8-9.4-0.8-12.2-9.8c-3.1-10-6.1-20.1-9.2-30.1c-0.6-2-1.5-3.8-2.3-5.8c-6.6,3.6-12.5,7-19.5,10.8c1.9,0.1,2.5,0.2,3.1,0.1
	c7.3-0.6,7.3-0.6,9.4,6.3c2.3,7.5,4.6,15,6.9,22.4c2.7,8.8,2.7,8.8-4.7,13.5c-0.1,0.1,0.1,0.5,0.2,1.2
	C458.2,708.2,467.6,705.3,477,702.5z M309.9,662.2c-7.4-0.5-14.4-0.9-21.3-1.3c0.3,1.1,0.8,1.5,1.3,1.7c6.8,2.9,7,3.2,5.1,10.4
	s-3.9,14.4-5.8,21.6c-2.6,9.7-2.6,9.7-11.8,11c9.5,2.6,19,5.1,28.5,7.7c-7.5-6.4-7.5-6.4-4.7-16.8c2.7-9.9,5.3-19.9,8-29.8
	C309.5,665.4,309.7,663.9,309.9,662.2z M430.5,61.7c-4.5,5.2-8.4,9.5-12.7,14.5c6.8,1.3,12.4,2.4,18.9,3.7
	C434.6,73.6,432.7,68.1,430.5,61.7z M243.5,99.2c-5.8-3.8-10.5-6.9-16-10.5c-0.5,6.7-0.9,12.4-1.5,19
	C232.2,104.8,237.3,102.3,243.5,99.2z M512,668.2c-5.7-3.6-10.6-6.8-16.5-10.6c0,7.1,0,12.8,0,18.9C500.8,673.9,506,671.3,512,668.2
	z M235.3,675c6.3,3.1,11.5,5.7,17.5,8.6c-0.5-6.8-1-12.5-1.5-18.9C245.7,668.3,241,671.3,235.3,675z"/>
<path d="M92.7,377.6C93,225,216.1,102.6,368.8,102.9c152.3,0.3,274.6,123.7,274.2,276.6c-0.4,151.4-124,274-275.9,273.5
	C215,652.5,92.4,529.6,92.7,377.6z M102.8,377.3C102.5,522.6,219,641.2,364.5,642.9c147.9,1.8,267.7-116.6,268.5-263.4
	c0.8-146.9-117.8-266.4-263.7-266.7C222.3,112.5,103,230.9,102.8,377.3z"/>
<path d="M624.4,242.5c-4.8-9.5-9.5-19-14.4-28.6c0.9-0.2,1.3-0.5,1.4-0.4c5.4,6.4,5.8,6.5,13.3,2.7c7-3.5,14-7.1,20.9-10.6
	c9-4.5,9-4.5,8.5-14.1c4.8,9.5,9.6,18.9,14.5,28.5c-0.7,0.2-1.1,0.5-1.2,0.4c-6.3-6.5-6.3-6.5-14.3-2.4c-2.8,1.4-5.6,2.9-8.9,4.6
	c4.5,9,8.9,17.7,13.6,27.2c4.9-2.5,9.7-4.5,13.8-7.4c1.6-1.1,2-4.2,2.4-6.5c0.2-1.2-0.5-2.6,0.2-4.4c4.8,9.5,9.5,19,14.3,28.5
	c-0.6,0.5-1.1,1-1.7,1.6c-0.4-1-0.6-2.1-1.2-3c-2.2-3.5-5.3-3.8-8.7-2.2c-9.9,4.9-19.7,9.8-29.4,14.8c-5,2.6-2.9,7-3.1,11.3
	c-4.8-9.6-9.6-19.1-14.6-29c1,0,1.5-0.1,1.6,0c5.3,6.4,5.7,6.5,13.3,2.7c2.8-1.4,5.6-2.9,8.4-4.3c0.4-0.2,0.7-0.6,1.6-1.4
	c-4.3-8.6-8.7-17.3-13.4-26.8c-5.2,2.8-10.3,5.2-14.9,8.3c-1.4,1-1.6,3.9-1.9,6.1c-0.2,1.3,0.5,2.7,0.8,4
	C625.1,242.2,624.8,242.3,624.4,242.5z"/>
<path d="M496.7,83c-8.6,7.9-15.8,14.7-23.3,21.3c-1.5,1.3-3.8,1.8-5.8,2.6c-0.7-2-2.1-4-2.1-6c-0.3-11.5-0.3-23-0.4-34.5
	c-0.1-10.1-0.1-10.1-5.4-17.9c10.3,4.4,19.6,8.4,30.1,12.8c-1.7,0.5-2.3,0.8-2.8,0.7c-7.8-1.1-8.4-0.8-8.7,6.8
	c-0.3,7.3-0.3,14.7-0.3,22c0,0.9,0.4,1.8,0.8,3.6c6.7-6.5,12.9-12.5,19.1-18.4c1-0.9,1.8-2,2.8-2.8c2.1-1.6,4.7-4.6,6.5-4.2
	c4.2,0.9,2.3,5.3,2.4,8.1c0.3,8.3,0.2,16.7,0.3,25c0,1.6,0.2,3.1,0.4,4.7c0.5,0.2,1,0.5,1.4,0.7c6.1-6.7,12.4-13.2,18.1-20.1
	c0.9-1.1-0.1-4.2-0.8-6.1c-0.5-1.3-2.2-2.1-2.7-4.1c6.1,2.6,12.2,5.2,18.3,7.8c-9.4,0.4-13.2,8.3-18.9,13.3
	c-7.5,6.6-14.5,13.7-21.9,20.5c-1.1,1-3.5,2-4.5,1.5c-1.1-0.5-1.8-2.8-1.9-4.4c-0.2-8.7-0.2-17.3-0.3-26
	C497,88.1,496.9,86.4,496.7,83z"/>
<path d="M58.1,333.4c9.3-7.8,17.9-15.1,26.9-22.6c-0.5,5.4-0.9,11.1-1.7,16.8c-0.2,1.3-2,2.5-3.3,3.5c-5.4,4.1-11,8.1-16.4,12.2
	c-1.7,1.3-3.2,3-4.4,4.7c-1.9,2.9-1.6,5,2.6,5.1c2.2,0.1,4.3,0.6,6.4,0.8c8.1,0.7,9,0.1,12.8-7.2c-1.2,10.4-2.4,20.8-3.5,31.1
	c-0.3,0-0.6,0.1-0.9,0.1c-0.2-1.2-0.4-2.3-0.6-3.5c-0.5-3.6-2.6-5.5-6.3-6c-10.4-1.2-20.8-2.5-31.2-3.7c-4-0.5-6.9,0.7-8,4.9
	c-0.3,1-0.8,1.9-2.2,2.7c0.7-6.2,1.3-12.4,2.1-18.5c0.9-7.6,2-15.2,3-22.7c0.1-0.5,0.2-1,0.3-1.5c2.2-8.6,6.9-13.7,12.6-13.5
	c5.9,0.2,9.1,4.3,10.8,14C57.2,331,57.5,331.5,58.1,333.4z M55.2,352.4c0.3-4.1,0.8-7.1,0.6-10c-0.2-4.4-1.8-8.2-6.4-9.7
	c-4.1-1.4-9-2-11.4,2c-2.4,3.8-2.9,8.8-4.1,13.3c-0.1,0.4,1.2,1.7,2,1.8C42.1,350.8,48.3,351.6,55.2,352.4z"/>
<path d="M647.8,561.1c-0.1,17.6-16.4,38.8-33.4,43.2c-14.4,3.7-26.9-5-28.1-19.5c-1.4-18.3,17.1-42.5,35.2-45.8
	C636.4,536.3,647.9,546,647.8,561.1z M614.1,549.6c-7.3-0.1-13.8,4.3-17.9,12.2c-3.5,6.7-2.9,13.2,1.6,19.2
	c4.4,5.9,10.2,10,17.2,12.3s13.1,0.3,18.2-4.8c5.3-5.4,8.6-11.5,6.5-19.3C636.9,559.5,624.2,549.8,614.1,549.6z"/>
<path d="M285.9,99.8c-3.1-0.9-8.8-1.7-13.8-4c-12.4-5.5-16.4-20.3-8.7-31.5c7.1-10.5,18-15.4,30-17c7.1-1,14.8-0.9,21.6,0.9
	c17.8,4.8,22.7,24.1,9.8,37.3C314.9,95.7,302.1,99,285.9,99.8z M317.4,75.8c-1.7-5.3-2.9-10.9-5.2-15.9c-4.2-8.8-12.1-11.8-22.3-9.3
	c-9.7,2.3-15.5,8.8-14.8,18.4c0.4,5.8,2,11.9,4.5,17.1c4.3,9,12.2,11.8,22.3,9.1C311.8,92.5,316.6,86.3,317.4,75.8z"/>
<path d="M546.8,668.2c8.1-6.4,3.3-11.3-0.5-16.3c-7-9.1-14-18.2-21-27.3c-0.2-0.2-0.2-0.6-0.7-2c2.3-0.5,4.5-1.6,6.7-1.5
	c14.8,0.8,29.6,1.8,44.4,2.6c3.7,0.2,7.5,0,12.7,0c-6.8-8.4-12.5-16.3-19.2-23.2c-2-2.1-7.1-1.2-10.9-1.7c5.1-4,10.8-8.5,16.6-13
	c0.4,0.7,0.8,1.1,0.7,1.2c-4.6,7.4-4.6,7.6,0.9,14.7c5.3,6.9,10.7,13.6,15.8,20.6c2.5,3.4,5.7,2.9,9,2.4c1.4-0.2,2.7-1,4.4-1.6
	c-3.7,7.2-15.9,13.7-23.3,13.1c-14.4-1.1-28.8-2-44.7-3c2.6,3.5,4.3,6,6.1,8.4c1.9,2.5,3.9,5,5.8,7.5c4,5.5,8.3,10,16.2,4.7
	c0.1,0.6,0.1,1.1,0.2,1.7c-5.7,4.5-11.4,8.9-17,13.4C548.1,668.7,547.4,668.5,546.8,668.2z"/>
<path d="M706.6,329.4c-1.5,8.4,3.7,17.2-4,25.5c-8.6,9.2-16.2,19.4-24.2,29.2c-1.3,1.6-2.6,3.3-3.9,4.9c0.2,0.5,0.3,1,0.5,1.5
	c8.8-0.7,17.7-0.8,26.4-2.3c2.4-0.4,4.2-4.7,6.6-7.7c0,6.7,0,13.5,0,20.4c-1.9-8.9-9-7.3-15.3-7.3c-11.3,0-22.6,0-35.1,0
	c1-2.1,1.7-4.7,3.2-6.6c10.2-12.9,20.7-25.7,31-38.5c1-1.3,2-2.6,3.4-4.6c-7.9,0-15.1-0.2-22.3,0c-6.7,0.2-13.6,0.4-13.8,10.5
	c-0.5-0.3-1-0.6-1.5-0.9c0-7,0-14,0-20.3c1.7,1.9,3.5,5.1,6.2,6.3c2.8,1.2,6.5,0.5,9.9,0.4c7-0.2,14-0.9,20.9-0.8
	c5.6,0.1,8.2-2.7,9.5-7.6c0.2-0.9,0.6-1.7,0.9-2.5C705.6,329.3,706.1,329.4,706.6,329.4z"/>
<path d="M155.2,575.1c5.2,6.3,9.8,11.8,14.5,17.3c-0.5,0.3-1,0.7-1,0.6c-6.1-5.1-10.8-2.2-15.6,2.2c-5.6,5-11.5,9.6-17.2,14.5
	c-5,4.3-5.5,6.4-3.1,12.5c0.3,0.7,0.5,1.5,0.1,2.5c-4.6-7.2-14.1-10.9-13-22.1c1.2-12.6,0.9-25.3,1.3-37.9c0.1-2.2,0-4.5,0-6.7
	c-0.4-0.2-0.8-0.4-1.3-0.6c-6.4,5.7-13.3,10.9-19,17.2c-1.9,2.1-1,6.8-1.5,10.6c-4.1-4.8-8.7-10.2-13.3-15.6
	c0.7-0.4,1.1-0.8,1.2-0.7c5.6,4.5,10.2,2.4,15-1.7c9.1-7.8,18.4-15.4,28.9-24.2c0.8,3.1,2,5.4,1.9,7.6c-0.2,16.5-0.7,33-1,49.5
	c0,2,0,3.9,0,7.1c2.1-1.5,3.4-2.3,4.6-3.3c4.4-3.6,8.7-7.2,13.1-10.8C156.9,586.8,156.9,586.8,155.2,575.1z"/>
<path d="M694.5,463.3c1,2.2,1.8,3.7,2.5,5.2c-1.6,0.3-3.3,0.9-4.9,0.7c-3.2-0.3-6.4-1-11-1.8c1.9-1.7,2.7-2.9,3.8-3.4
	c10.5-4.8,15.2-12.1,14.4-22.5c-0.7-8.3-7.1-14.8-17.4-17.5c-16.1-4.3-27.9,3.9-28.1,19.3c-0.1,5.9,1.9,8.6,6.9,10.1
	c5.8,1.8,7.8-1.9,9.3-6.5c0.5,0.2,1,0.4,1.4,0.7c-1.8,9.1-3.6,18.2-5.4,27.3c-0.5,0.3-1,0.5-1.5,0.8c0.8-7.5-4.1-8-8.8-8.6
	c-3.5-0.4-4.8-1.8-4.5-5.5c0.8-10.4,1.2-20.8,2-31.2c0.2-2.6,1.6-5.1,2.7-7.5c5.3-11.4,15.2-17.4,25.7-15.8
	c11.3,1.8,19.7,11,21.2,23.4C704.2,442.7,701.6,453.8,694.5,463.3z"/>
<path d="M59.4,239.1c4.1,1.3,7.7,2.5,12.8,4.3c-2.4,1.7-3.5,3.2-5,3.6c-9.3,2.7-13.9,9.4-15.3,18.4c-0.4,2.6,0.8,6.6,2.8,8.2
	c3,2.5,6.4,0,8.6-2.6c3.4-3.9,6.3-8.2,9.6-12.1c2.5-3.1,5.2-6.1,8.1-8.8c3.8-3.4,8.2-5.2,13.3-3c5,2.2,7.2,6.4,7.5,11.5
	c0.7,12.4-3.1,23.2-11.3,32.6c-0.9,1-2,1.7-3.3,2.7c0.9,1.3,1.7,2.2,2,3.2s0.3,2.4-0.2,3.1c-0.5,0.6-2,0.8-2.9,0.5
	c-2.5-0.7-5.1-1.7-7.4-2.8c-1.3-0.6-2.3-1.9-3.4-2.8c1.2-0.9,2.3-2.4,3.7-2.6c10.2-1.8,15.3-8.6,18-17.8c0.1-0.3,0.2-0.6,0.2-1
	c0.5-4.3,1.3-9.2-3.5-11.5s-8.3,0.9-11.1,4.3c-4.4,5.2-8.3,10.8-12.8,15.9c-2,2.3-4.8,4.2-7.6,5.3c-6.2,2.5-12.3-1.1-13.8-8.2
	c-2.3-10.8,1.6-20.3,7.4-29.1c1.7-2.6,4.8-4.7,2.8-8.5C58,241.4,58.8,240.4,59.4,239.1z"/>
<path d="M583.9,160.7c0,1.9,0.4,4-0.1,5.8c-2.7,10.2,1.6,20.9,10.7,26.2c3,1.7,6.7,3.4,9.1,0.4c1.8-2.2,2.8-6.2,2.1-8.9
	c-1.3-5.3-4.2-10.1-6.1-15.3c-1.4-3.9-3-7.9-3.4-11.9c-0.9-9.2,6.3-14.8,15.2-11.6c9.6,3.4,15.7,10.9,20.4,19.6
	c1.5,2.8,1.5,7,6.4,6.9c0.5,0,1.1,1.5,1.9,2.5c-3,2.8-5.8,5.6-9.9,9.5c-0.4-3.1-1.1-5-0.7-6.7c1.8-8.9-2.3-18.9-10.3-22.9
	c-2-1-5.5-1.3-7.3-0.2c-1.5,0.9-2.5,4.5-2,6.5c1.2,4.8,3.6,9.3,5.3,13.9c1.8,5,4,9.9,5.1,15.1c1.9,9.4-5.5,16.2-14.7,13.5
	c-13.3-4-21.1-13.8-26-26.4c-0.9-2.3-0.8-5.2-4.7-4c-0.6,0.2-2-1-2.5-1.8c-0.3-0.5,0.3-1.9,0.9-2.5c2.9-2.7,6-5.2,9.1-7.8
	C582.9,160.6,583.4,160.6,583.9,160.7z"/>
<path d="M84.5,440.6c-4.7-8.2-4.7-8.2-14.3-7.1c-7.4,0.8-14.9,1.5-22.3,2.5c-9.6,1.2-9.6,1.3-12.5,10c-1-8.5-2-16.9-3.1-25.4
	c-0.8-6.9-1.4-13.9-2.7-20.8c-0.8-4.1,0.3-5.9,4.4-6.2c2.4-0.1,4.8-0.5,8-0.9c-0.7,1.7-0.7,2.9-1.3,3.3c-7.6,4.5-7.4,11.7-6.6,18.9
	c0.9,7.8,1,7.8,8.8,7.2c1.7-0.1,3.4-0.2,4.9-0.6c2.4-0.7,6.2-1.3,6.9-2.9c1.5-3.6-2.4-9.4-5.9-11c-1.2-0.5-2.4-1.1-3.7-1.6
	c0.1-0.5,0.1-1.1,0.2-1.6c6-0.8,12.1-1.5,20-2.6c-4.6,5.9-10.7,10.1-6.1,18.4c4.6-0.8,9.9-1.4,15.1-2.7c1.4-0.3,2.9-2.3,3.5-3.9
	c3.4-8.8-2-20.9-10.7-24.4c-1-0.4-1.8-1.2-4-2.7c3.6-0.7,5.7-1.2,7.8-1.5c2.1-0.3,4.3-0.4,7.3-0.7C80.2,403.2,82.3,421.9,84.5,440.6
	z"/>
<path d="M200.1,675.8c-9.5-6.9-18.3-13.2-27-19.5c0.1-0.3,0.3-0.6,0.4-0.9c1,0.3,2,0.5,2.9,0.9c3.5,2,6.5,1.2,8.8-1.9
	c5-6.8,10.2-13.6,14.8-20.7c3.9-5.9,3-11.2-2.1-16.3c-2-2-4.2-3.8-6.6-5.3c-10.6-6.9-17.2-5.7-24.6,4.4c-2.6,3.6-5.1,7.4-7.9,10.9
	c-4.1,5.3-6.8,10.6,0.1,16.5c-0.5,0.3-1,0.5-1.5,0.8c-5.8-4.1-11.6-8.3-17.4-12.4c0.1-0.3,0.2-0.6,0.3-0.9c0.8,0.1,1.7,0,2.5,0.3
	c4.5,1.7,7.8,0.1,10.4-3.6c3.7-5.1,7.3-10.3,11.1-15.4c6.2-8.3,13.6-10.5,23.3-6.7c8.7,3.4,16,8.9,21.8,16.2
	c5.8,7.1,6,14.4,0.8,22.1c-3.6,5.4-7.6,10.6-11.3,15.8c-4.7,6.6-4.6,7,0.4,13.2C199.8,673.7,199.8,674.2,200.1,675.8z"/>
<path d="M374.9,88.6c-10.6,0-21.3,0-33.1,0c9.7-3.6,9.7-3.6,9.7-13.6c0-7.3,0-14.6,0-22c0-9.7,0-9.7-8.6-13.5
	c1.5-0.1,3.1-0.2,4.6-0.2c13.8-0.1,27.6-0.1,41.4-0.2c6.5,0,6.5,0,6.8,6.6c0.1,1.8,0,3.6,0,6.2c-1.6-0.9-2.9-1.2-3.3-1.9
	c-3-6.8-9-7.8-15.3-8.2c-11.4-0.7-11.4-0.6-11.3,10.5c0,1-0.2,2,0,3c0.6,2.5,0.9,6.6,2.3,7c3.9,1.2,7.9,0,10.5-3.7
	c1.1-1.6,2.2-3.2,3.3-4.8c0.4,0.2,0.9,0.3,1.3,0.5c0,6.3,0,12.6,0,20.3c-2.8-3.1-4.6-6.2-7.2-7.7c-2.7-1.5-6.2-1.3-9.9-2
	c0,6.3-0.3,11.6,0.1,16.8C366.5,87,371.2,87,374.9,88.6z"/>
<path d="M392.6,688.9c7.2-0.8,13.3-2.6,19-1.8c12.4,1.8,16.8,15.1,8.8,24.7c-6.3,7.5-14.9,9.2-24,7.6c-8.3-1.5-12.5-7.6-14.8-15.2
	c-5.6-19.3,3.3-34.3,22.2-36.6c3.3-0.4,7,0.2,10.2,1.3c1.5,0.5,2.4,3,3.6,4.6c-2,1.1-4,2.9-6.1,3c-1.7,0-3.7-1.9-5.1-3.3
	c-4.4-4.5-10.7-3.5-12.3,2.6C392.8,680.2,393,685.1,392.6,688.9z M411.4,707.1c0.2-0.1,0.3-0.1,0.5-0.2c-1-4.1-1.7-8.4-3.1-12.4
	c-1.4-3.9-5.2-5-8.7-3.6c-2.4,0.9-5.9,3.7-5.9,5.5c0.2,5.7,1.3,11.5,3.2,16.9c0.8,2.1,4.7,4,7.4,4.2c3.4,0.3,5.6-2.5,6.2-6
	C411.3,710,411.3,708.5,411.4,707.1z"/>
<path d="M335.2,694.3c-2.5-2.3-4.6-4-6.2-6c-4.9-6-3.5-13.7,3.4-17.2c9.9-4.9,19.8-3.8,29,2c7.3,4.6,6.5,12-1.4,15.8
	c-1.5,0.7-3,1.4-5.1,2.4c2,1.6,3.7,2.8,5.3,4.1c8.3,7.1,7.2,17.9-2.8,22.2c-10.9,4.7-22,3.5-31.8-3.3c-6.9-4.8-5.8-13,1.7-16.8
	C329.7,696.3,332.2,695.5,335.2,694.3z M345.6,718.1c1-0.3,3.6-0.6,5.8-1.5c4.3-1.9,6.1-6.5,3.9-10.3c-3.5-6.1-9.9-7.9-16-10
	c-0.8-0.3-2.2,0.7-3.1,1.3c-4.3,2.9-6.5,8.3-5.1,12.5C332.5,714.7,337.5,717.8,345.6,718.1z M344.5,670.4c-3.1,0.1-7.2,0.7-8.6,5.3
	s1.9,7.1,5.3,9.1c2.4,1.4,4.9,3.1,7.6,3.7c1.8,0.4,4.6-0.1,5.9-1.4c2.9-2.9,3.4-6.8,1.6-10.6C354.2,672,350.2,670.7,344.5,670.4z"/>
<path d="M162.9,174.4c-7.4,8.4-14.9,16.8-22.3,25.2c3.2-10.1,3.2-10.1-5.4-17.8c-6.4-5.8-13-11.4-19.4-17.2
	c-2.4-2.2-4.3-2.3-6.8,0.1c-5.4,5.3-8.6,11-4.5,18.6c0.4,0.8-0.4,2.3-0.7,4.1c-3.6-3.6-6.5-6.5-10.1-9.9
	c13.7-15.5,27.4-31.2,41.6-47.3c3.6,3,6.9,5.7,10.2,8.4c-0.1,0.5-0.1,1-0.2,1.5c-1.4,0.1-2.9,0.5-4.3,0.2
	c-6.7-1.6-15.4,2.3-17.7,8.6c-0.5,1.2,0.8,3.7,2,4.8c7,6.4,14.1,12.7,21.2,18.9C154.2,179.4,154.3,179.4,162.9,174.4z"/>
<path d="M690.8,490.8c-5.9,12.9-11.5,25.3-17.2,37.7c-2.5,5.4-5.1,10.8-7.4,16.3c-1.2,2.8-2.6,3.5-5.4,2.2c-2.8-1.3-5.7-2.5-8.8-5
	c1.2-0.5,2.4-1.3,3.7-1.4c7.5-0.6,13.6-5.7,14.8-13.2c0.2-1.2-1.2-3.4-2.4-4c-10.2-4.9-20.5-9.5-30.9-14.1c-3.5-1.6-6.5-1.1-8.6,2.4
	c-0.6,1-1.5,1.9-3.2,2.3c4.6-10.1,9.2-20.2,13.9-30.5c0.6,0.6,1.1,0.8,1,1c-2.1,8.8-1.9,9.3,6,13c8.6,4,17.3,7.7,25.8,12
	c4.2,2.1,6.3,0.9,8.2-3c3-6.2,4-12-1.4-17.4c-0.7-0.7-0.5-2.2-0.8-3.4c1,0,2.2-0.3,3.1,0.1C684.3,487.3,687.2,488.9,690.8,490.8z"/>
<path d="M567.5,165.3c-8.6-6.3-17.1-12.6-26-19.2c1-0.4,1.4-0.8,1.6-0.7c8,3,10.7,1.2,10.5-7.5c0-1.3-1.3-2.9-2.5-3.9
	c-4-3.2-8.2-6.2-12.4-9.2c-2.9-2.1-7.5-1.1-10.5,2.2c-2.8,3-1,5.5,1.1,7.8c0.5,0.6,1,1.2,1.5,1.8c-0.3,0.3-0.5,0.6-0.8,0.9
	c-6-4.4-12-8.8-18-13.2c0.1-0.4,0.3-0.9,0.4-1.3c7.4,3.8,13.6,0.3,19.9-2.8c10.8-5.2,21.6-10.4,32.5-15.3c1.6-0.7,4-0.8,5.4-0.1
	c0.9,0.5,1.1,3.1,0.9,4.7c-1.9,13.5-4.1,27-6.1,40.5c-0.8,5.2-0.9,10.3,4.2,14.2C568.6,164.7,568.1,165,567.5,165.3z M554.5,132.8
	c1.3-7.3,2.3-13.4,3.7-20.9c-7,3.4-12.6,6.1-19.3,9.3C544.2,125.2,548.8,128.6,554.5,132.8z"/>
<path d="M191,120.8c0-7.2,0.3-14.1-0.1-21c-0.2-3.6-2.6-5.2-6.4-3.9c-1,0.3-2,0.7-3.5,0.1c5.4-3.9,10.8-7.8,17.2-12.5
	c-5.5,12.4-3.6,24.5-3.5,36.2c0.1,5,5.6,10.4,9.6,14.7c1.2,1.2,5.7-0.6,9.7-1.2c-9.4,6.8-18.2,13.1-27.1,19.5
	c-0.3-0.7-0.6-1-0.6-1.2c1.3-2.8,4.4-6.2,3.7-8.3c-1.6-4.8-4-10-9.7-11.9c-8.3-2.8-16.7-5.8-25.1-8.2c-3.1-0.9-6.6-0.6-10.9-0.9
	c8.8-6.3,17-12.2,25.4-18.2c0.2,0.9,0.5,1.4,0.4,1.5c-5.1,6.6-4.8,7.5,3.3,10.3c5,1.7,10.1,3.4,15.1,5
	C189,120.9,189.3,120.8,191,120.8z"/>
<path d="M79.2,468.5c-8.8-1.3-17.8-2.9-26.9-3.8c-7.2-0.7-8.2,0.7-7.7,8.2c0,0.4-0.3,0.8-0.9,2.5c-2.7-8.3-5.1-15.5-7.5-22.7
	c8,9.9,19.9,7.3,29.9,10c8,2.1,16.4,2.9,24.5,4.6c1.6,0.3,3.7,1.7,4.3,3.1c0.4,1-0.9,3.2-2,4.4c-8.4,8.7-17,17.4-25.5,26
	c-4.6,4.6-10.5,8.5-8.5,16.9c-0.5-0.1-1-0.1-1.5-0.2c-3.3-10.1-6.7-20.1-10.3-31.2c1.4,0.8,2,1,2.2,1.4c3.9,6.6,5.3,7,10.6,1.6
	C66.4,482.6,72.6,475.7,79.2,468.5z"/>
<path d="M128.7,216.3c-5.5,9.1-10.9,18.3-16.4,27.4c-0.3-0.1-0.6-0.3-0.9-0.4c0.3-1.2,0.5-2.4,0.9-3.5c1.2-3.3,0.2-5.9-2.7-7.7
	c-9.4-5.7-18.8-11.3-28.2-16.9c-5.1-3.1-7.8,0.7-10.7,4.1c-0.3-0.3-0.6-0.5-1-0.8c5.5-9.2,11-18.5,16.5-27.9c0.6,0.6,1,0.9,1,1.1
	c-2.4,8.4-2.4,8.6,5,13.2c6.7,4.1,13.4,8,20.1,12C120.8,222,120.8,222,128.7,216.3z"/>
<path d="M79.3,556.2c-5.1-9.3-10.2-18.6-15.5-28.1c0.9-0.2,1.3-0.4,1.5-0.3c6,6.1,6.1,6.2,13.5,2.2c6.9-3.7,13.7-7.5,20.6-11.3
	c8.8-4.8,8.8-4.8,8-14.3c5.1,9.3,10.3,18.7,15.4,28c-8.4-5.6-8.4-5.6-17.9-0.3c-6,3.3-12,6.5-18,9.8
	C78.2,546.7,78.2,546.8,79.3,556.2z"/>
<path d="M653.3,322.4c-2.6-10.2-5.2-20.4-7.8-30.7c0.6-0.1,1.1-0.3,1.1-0.2c4.8,7.6,4.8,7.6,13.5,5.4c7.1-1.8,14.2-3.8,21.3-5.4
	c6.3-1.5,13.2-2.3,10.4-12.6c0.6,0.3,1.1,0.5,1.7,0.8c2.6,10.2,5.2,20.4,7.8,30.7c-0.3,0.1-0.7,0.3-1,0.4c-0.6-1.1-1.3-2.1-1.8-3.2
	c-1.4-3.3-4.1-4.4-7.3-3.6c-10.8,2.7-21.6,5.4-32.4,8.3C653.3,313.6,654.5,318.4,653.3,322.4z"/>
<path d="M477,702.5c-9.4,2.9-18.8,5.8-28.3,8.7c-0.1-0.6-0.3-1.1-0.2-1.2c7.4-4.7,7.4-4.7,4.7-13.5c-2.3-7.5-4.6-15-6.9-22.4
	c-2.1-6.9-2.2-6.9-9.4-6.3c-0.6,0.1-1.2,0-3.1-0.1c7-3.9,13-7.2,19.5-10.8c0.8,2,1.7,3.9,2.3,5.8c3.1,10,6.1,20.1,9.2,30.1
	C467.7,701.6,467.7,701.6,477,702.5z"/>
<path d="M309.9,662.2c-0.3,1.7-0.4,3.2-0.8,4.5c-2.6,10-5.3,19.9-8,29.8c-2.8,10.4-2.8,10.4,4.7,16.8c-9.5-2.6-19-5.1-28.5-7.7
	c9.2-1.3,9.2-1.3,11.8-11c1.9-7.2,3.9-14.4,5.8-21.6c1.9-7.2,1.7-7.5-5.1-10.4c-0.5-0.2-1-0.6-1.3-1.7
	C295.6,661.3,302.5,661.7,309.9,662.2z"/>
<path d="M430.5,61.7c2.2,6.4,4,11.8,6.2,18.2c-6.5-1.3-12.1-2.4-18.9-3.7C422.2,71.3,426,66.9,430.5,61.7z"/>
<path d="M243.5,99.2c-6.2,3-11.4,5.5-17.5,8.5c0.5-6.6,0.9-12.3,1.5-19C233,92.4,237.8,95.5,243.5,99.2z"/>
<path d="M512,668.2c-6,3-11.1,5.6-16.5,8.4c0-6.1,0-11.8,0-18.9C501.4,661.5,506.3,664.6,512,668.2z"/>
<path d="M235.3,675c5.7-3.7,10.4-6.7,16-10.3c0.5,6.5,0.9,12.1,1.5,18.9C246.8,680.7,241.6,678.1,235.3,675z"/>
<path class="st0" d="M55.2,352.4c-6.9-0.9-13.1-1.6-19.3-2.5c-0.8-0.1-2.1-1.4-2-1.8c1.1-4.5,1.7-9.5,4.1-13.3
	c2.4-3.9,7.3-3.3,11.4-2c4.6,1.5,6.3,5.3,6.4,9.7C55.9,345.4,55.5,348.4,55.2,352.4z"/>
<path class="st0" d="M614.1,549.6c10.1,0.2,22.8,9.9,25.5,19.5c2.1,7.8-1.2,14-6.5,19.3c-5.1,5.2-11.2,7.1-18.2,4.8
	s-12.8-6.4-17.2-12.3c-4.5-6-5.1-12.4-1.6-19.2C600.3,553.9,606.8,549.5,614.1,549.6z"/>
<path class="st0" d="M317.4,75.8c-0.8,10.5-5.6,16.8-15.6,19.4c-10.1,2.7-18-0.1-22.3-9.1c-2.5-5.3-4.1-11.3-4.5-17.1
	c-0.6-9.6,5.1-16.1,14.8-18.4c10.1-2.5,18.1,0.5,22.3,9.3C314.6,64.9,315.7,70.5,317.4,75.8z"/>
<path class="st0" d="M411.4,707.1c-0.1,1.5-0.1,3-0.4,4.4c-0.6,3.5-2.8,6.3-6.2,6c-2.7-0.3-6.6-2.1-7.4-4.2c-2-5.3-3-11.2-3.2-16.9
	c-0.1-1.8,3.5-4.5,5.9-5.5c3.5-1.4,7.2-0.3,8.7,3.6c1.5,4,2.1,8.3,3.1,12.4C411.7,706.9,411.6,707,411.4,707.1z"/>
<path class="st0" d="M345.6,718.1c-8.1-0.3-13.1-3.4-14.6-8.1c-1.3-4.2,0.9-9.6,5.1-12.5c0.9-0.6,2.3-1.6,3.1-1.3
	c6.1,2.1,12.5,3.9,16,10c2.2,3.8,0.4,8.4-3.9,10.3C349.1,717.6,346.6,717.8,345.6,718.1z"/>
<path class="st0" d="M344.5,670.4c5.7,0.3,9.7,1.6,11.8,6c1.8,3.8,1.3,7.7-1.6,10.6c-1.2,1.2-4.1,1.8-5.9,1.4
	c-2.7-0.6-5.2-2.2-7.6-3.7c-3.4-2-6.7-4.5-5.3-9.1C337.3,671.1,341.5,670.5,344.5,670.4z"/>
<path class="st0" d="M554.5,132.8c-5.7-4.2-10.2-7.6-15.7-11.6c6.7-3.2,12.4-6,19.3-9.3C556.8,119.4,555.8,125.5,554.5,132.8z"/>
<path class="st1" d="M594,472.9c0.3,2.2,0.7,4.4,1,6.6c0.5,0,1.1,0,1.6,0c0.9-2.4,1.8-4.7,2.9-7.7c0.4,1.4,0.7,2.3,1.1,3.4
	c1.7-0.7,3.3-1.3,4.9-2c0.2,0.3,0.4,0.6,0.5,0.9c-2,1.1-4.4,1.8-5.9,3.3c-1.6,1.7-2.4,4.1-4,7c3.1-0.1,5.1-0.2,7.2-0.3
	c-4.3,2.1-10.3,1.5-10.5,9c1.8,0.1,4,0.2,6.2,0.4c-5.1,1.2-10.9,1.1-12.2,8.2c2.1,0.3,4.3,0.7,6.4,1c-5.2,0.7-10.8-0.3-13.4,6.4
	c2.2,0.4,4.4,0.8,6.6,1.2c-4.7,1.6-10.8-1.8-13.8,5c2.3,0.6,4.7,1.3,7,1.9c-5.2,1.1-11.4-3.2-15.6,3.5c1.8,0.8,3.8,1.6,7.1,3
	c-6.1,0.2-11-4.2-15.6,0.7c1.9,0.8,3.7,1.6,5.6,2.3c-9.1-1.9-17.8-3.3-23.5,7.4c2.4,0.4,4.5,0.8,7.6,1.4c-4.5,2-9.6-2.4-11.9,3.7
	c2.2,0.4,4.1,0.7,6.1,1.1c-3.9,1.9-9.9-1.8-11.7,5.4c2.3,0.5,4.6,1.1,7,1.7c-4.8,1-11.1-2.6-13.5,5.5c2.6,0.6,5.3,1.3,8.1,1.9
	c-5.3,1.1-11.9-3.3-15.1,5.1c2.1,0.5,4.1,0.9,7.3,1.7c-5,1.7-10.5-2.6-13.2,3.8c2,0.5,3.9,1.1,6,1.6c-0.3,0.4-0.5,0.8-0.6,0.8
	c-6.8-2.1-11.2,1.5-15.5,6c-3.3,3.4-7.2,6.3-11.9,10.4c4.6-0.3,7.9-0.5,11.2-0.7c-6.1,3.6-14.3,0-19.2,7.7c3,0.5,5.8,1,8.6,1.5
	c-5.1,2-11-2.6-15.7,3.6c2.9,0.5,5.5,1,9.5,1.8c-6.5,1.8-12.8-3-17,3.7c2.6,0.7,5,1.4,7.5,2.2c-5.3,0.9-11.6-3.4-15.9,3.6
	c2.9,0.9,5.8,1.8,9.7,2.9c-6.2,1.5-11.5-4.7-17,1.3c3.1,0.9,5.7,1.7,9.8,2.9c-6.5,1.3-12.3-4.7-17.3,1.6c3.2,0.8,6.1,1.6,9,2.3
	c-5.9,1.4-12-3.9-17.8,2.2c3.5,0.9,6.7,1.7,10,2.6c-5.9,1.7-11.7-3.9-18.1,1.1c2.8,1,5.1,1.8,7.4,2.6c-5,1.3-10-4-15.3,1
	c2.7,1.1,5.2,2,7.7,3c-6.6-0.5-13.2-4.3-19.5,1.5c2.6,0.9,5.3,1.9,8,2.9c-6.1,0.8-11.7-4.4-18.4-0.4c2.2,0.9,4,1.7,5.9,2.4
	c-0.3,0.5-0.6,0.9-0.6,0.9c-7.5-3.5-15.3-2.1-23-1.3c-1.8,0.2-3.4,1.1-5.2,1.6c-1.1,0.3-2.4,1.1-3.2,0.7c-9.7-3.9-19.5-4.5-29.5-1
	c-0.2,0.1-0.5-0.3-1.3-0.7c2.2-0.9,4.1-1.6,6-2.3c0-0.4-0.1-0.9-0.1-1.3c-3,0-6-0.3-8.9,0.1c-2.9,0.4-5.7,1.5-8.5,2.3
	c-0.1-0.4-0.3-0.8-0.4-1.2c2.6-0.8,5.3-1.7,8-2.6c-6.4-5.8-13-2.3-19.7-1.7c2.4-0.9,4.8-1.8,7.6-2.8c-5.2-5.1-10.2,0.2-16.5-0.4
	c3.5-1.4,5.8-2.3,8.4-3.3c-6-5.2-11.9,0.8-19.1-0.6c4.4-1.2,7.5-2,11-3c-5.6-6.2-11.7-0.9-17.5-2.3c2.9-0.7,5.8-1.5,9-2.3
	c-5.1-6.2-10.6-0.7-16-1.9c2.7-0.9,5.3-1.8,8.3-2.8c-5.2-6-10.7,0.3-16.9-1.2c3.9-1.2,6.8-2,9.8-2.9c-4.3-7-10.4-2.8-16-3.4
	c2.5-0.8,5-1.5,7.5-2.3c-4.1-6.8-10.4-1.9-15.5-4c2.5-0.4,5-0.8,7.9-1.3c-4.1-6.7-10.4-1.7-15.3-4c2.6-0.4,5.3-0.7,8.4-1.2
	c-4.6-8-13.1-4.2-19.1-8c3.3,0.3,6.6,0.6,11.1,1c-6.8-6-12.3-11.6-18.5-16.1c-2.2-1.6-6.3-0.6-10.6-0.8c3-0.9,5-1.4,7-2
	c-2.1-3.1-2.1-3.1-12.1-3.9c2.1-0.5,4.2-1.1,6.3-1.6c-3.1-8.4-9.7-4-15-5.1c2.6-0.6,5.3-1.2,8-1.9c-2.5-8-8.5-4.7-13.8-5.4
	c2.4-0.6,4.7-1.1,7.1-1.7c-1.7-7.1-7.6-3.8-11.7-5.4c2-0.3,3.9-0.7,6.1-1.1c-2.3-6.3-7.4-1.7-11.8-3.7c2.9-0.6,4.9-1,6.8-1.4
	c-2.5-8.1-5.5-9.1-22.9-7.4c1.8-0.8,3.7-1.5,5.7-2.4c-4.5-5.2-9.5-0.7-14.3-1.5c2-0.8,4-1.5,6.1-2.3c-4.4-6.3-10.2-3.1-15.8-3.6
	c2.3-0.6,4.6-1.2,6.9-1.8c-3-6.8-9-3.9-13.9-5.2c2.2-0.3,4.3-0.7,6.5-1c-2.4-6.9-8-5.7-13.2-6.5c2.1-0.3,4.2-0.7,6.4-1
	c-1.5-7-7-7.1-12.3-8.1c2.1,0,4.2,0,6.5,0c-1.4-4.6-1.4-4.6-11.3-9.3c1.6,0,2.7,0,3.8,0c1,0,1.9,0.1,2.9,0.1c0.3-6.4-5-8-8.5-11.2
	c1.6,0.6,3.2,1.3,5,2c0.3-1,0.5-1.9,1-3.6c1.2,3.1,2.1,5.5,3.6,9.3c1.2-3.4,2-5.6,2.8-7.9c2.3,0.8,4.6,1.5,6.8,2.3
	c-4.6-1.1-7.1,1.5-8.1,5.3c-0.5,2.1,0.4,4.6,0.7,6.9c0.5,0,1-0.1,1.5-0.1c1.3-2.4,2.6-4.8,4-7.2c-0.2,3.1-2.2,5.6-2.5,8.3
	c-0.3,2.4,1.3,5,2.1,7.5c0.5-0.1,0.9-0.2,1.4-0.4c0.7-2,1.4-4.1,2.1-6.1c1,4.6-3.6,10.1,3.5,13.4c0.6-2.9,1.1-5.7,1.6-8.5
	c1.5,5.4-2.9,12.2,5.4,15.5c0-2.8,0-5.3,0-8.9c3,5.4-0.6,13.1,7.9,14.6c-0.2-2.7-0.4-5.3-0.6-8c1.5,2.7,1.4,5.9,2.7,8.3
	c1.2,2.2,4,3.5,6,5.2c0.3-0.3,0.6-0.7,1-1c-0.8-3-1.6-6-2.3-9c0.4-0.2,0.7-0.4,1.1-0.5c2.2,6.9,3,15.2,13.8,13.8
	c-2.9-3.9-5.9-7.7-8.5-11.7c-1.8-2.7-3.7-4.6-7.1-4.3c-0.2,0-0.4-0.5-0.7-0.8c1-0.4,2-0.8,4.4-1.8c-3.9-1.8-6.6-3.1-10.4-4.8
	c2.5,0,3.9,0,6.6,0c-2.3-1.9-3.5-3.3-5-4c-1.5-0.8-3.3-0.9-5-1.3c0-0.2,0.1-0.5,0.1-0.7c1.5-0.1,3-0.2,4.3-0.4c-0.7-7-7-6.2-11-8.6
	c2.1,0.2,4.2,0.4,6.6,0.7c-2.4-6.1-4.6-11.8-12.3-12.5c1-0.9,1.6-1.2,2.3-1.5s1.3-0.6,2-0.9c-3.2-5.2-3.5-5.3-6.7-2.8
	c-2.6-0.4-4-0.7-5.5-0.7c-1.3,0-2.6,0.5-3.9,0.8c-0.2-1.9-0.3-3.8-0.8-5.6c-0.2-0.7-1.4-1.1-2.2-1.6l0.1,0.1c-0.4-1-0.8-2.1-1.2-3.1
	c-1,1.4-1.9,2.7-2.9,4.1c-0.7,0.7-1.3,1.4-2,2.1c-0.9-2.5-6.1-4.3-1.6-7.9c1.1-0.9,2.5-1.8,3.8-1.9c2.8-0.1,5.6,0.3,8.7-0.6
	c-3.8-0.9-7.6-1.8-11.5-2.7c0-0.3,0.1-0.5,0.1-0.8c2.2,0.2,4.4,0.3,6.8,0.5c-2.4-6.9-9.2-5.7-13.9-8.6c2.3,0.3,4.7,0.5,7,0.8
	c0.2-0.5,0.5-1.1,0.7-1.6c-3.9-1.9-7.8-3.8-11.7-5.7c0-0.2,0.1-0.4,0.1-0.5c2.1,0.5,4.3,1,6.4,1.5c-0.9-4.6-0.9-4.6-10.4-10.5
	c1.9,0.5,3.9,0.9,6,1.4c1.3-7-5.1-7.4-8.5-10.7c2,0.6,3.9,1.2,5.8,1.8c2.4-6.8-4.3-7.1-6.9-10.6c2,0.8,3.9,1.5,5.9,2.3
	c2.4-5.1-2.2-7.1-3.9-10.5c1.3,0.8,2.6,1.7,4.2,2.8c0.5-2.1,1-4,1.4-5.8c0.3,0,0.6,0,0.9,0c-0.3,3.2-0.5,6.5-0.8,10.3
	c2.2-1,3.9-1.8,6.4-2.9c-2,3.8-9,4.3-5,10.2c1.8-1.1,3.5-2.1,6.4-3.9c-2.7,4.5-10.1,6-4.6,12.2c1.3-1.2,2.8-2.4,4.2-3.6
	c-0.8,3.7-6.6,6.7-1.2,11.4c1.5-1.9,3.1-3.8,4.6-5.8c-0.7,4.6-7.1,8.6-0.1,13.5c0.9-2,1.8-4,2.7-6c0.5,4.5-4.2,9.7,2.9,13.2
	c0.7-1.9,1.4-3.8,2-5.7c0.7,4.3-2.9,9.8,4.5,11.9c0.2-2.2,0.4-4.4,0.7-6.6c0.4,0,0.8,0,1.3,0c0,2.8-0.7,5.9,0.2,8.3
	c0.9,2.2,3.6,3.7,6.1,5.1c-3.2-7-0.5-17.1-10.6-20.6c1.6,0.5,3.3,1,4.9,1.6c0.4-4.2,0.4-4.2-6.6-12.2c2.3,1.1,3.7,1.8,5.1,2.5
	c0.5-2.8,0.5-2.8-5.4-11.2c1.6,1.2,3.2,2.3,5,3.6c3.1-5.9-2.2-9.3-3.5-14.1c1.4,1.5,2.8,3.1,4.1,4.6c0.5-0.2,1-0.5,1.5-0.7
	c-1.3-3.6-2.6-7.1-4-10.7c0.2-0.1,0.3-0.2,0.5-0.3c1.1,1.5,2.2,3.1,3.2,4.6c4.3-4.7,0.7-9,0.2-13.6c0.9,1.5,1.8,3,2.7,4.5
	c4.8-3.6,2.1-7.6,1.3-11.7c0.9,1.4,1.9,2.9,2.8,4.3c5.6-2.8,1.7-7.2,1.6-12.4c1.4,2.9,2.2,4.4,3.1,6.1c4.9-1.8,3-6.2,4.3-9.6
	c0.3,1.4,0.7,2.8,1.1,4.6c1.5-1,2.7-1.8,3.8-2.6c0.2,0.2,0.3,0.3,0.5,0.5c-2.3,1.6-4.6,3.3-6.8,4.9c0.4,0.6,0.8,1.2,1.1,1.8
	c1.4,0.4,2.9,0.7,4.3,1.1c0,0.3,0.1,0.6,0.1,0.9c-1.8,0-3.7-0.3-5.3,0.1c-1.5,0.4-2.7,1.7-5,3.3c3.1,0.4,4.6,0.5,7.2,0.8
	c-4,2.2-10.1-0.6-10,6.3c1.5-0.1,3.2-0.2,5.6-0.3c-2.9,2.9-9.1,0.7-8.7,7.1c2-0.3,4.1-0.7,7.6-1.3c-4.3,3.3-11,1.9-9.7,9.2
	c1.7-0.7,3.4-1.4,5.9-2.5c-2.4,4-9.2,4.1-6.8,10.4c1.6-0.7,3.1-1.5,4.7-2.2c-2.2,3.4-7.9,5.3-4.4,11.4c1.5-1.2,3.1-2.4,5.4-4.1
	c-1.2,4.6-8.3,6.1-4.7,11.9c1.4-1.3,2.7-2.5,4-3.7c-3.7,4.5-5.3,9.2-1.3,15.6c1-1.6,2-3.1,3-4.6c0.4,0.1,0.8,0.3,1.2,0.4
	c-2.2,4-6.5,7.8-1.6,12.5c1-1.2,2.1-2.5,3.1-3.9c-0.8,4.4-5,8.3,0.2,12.7c0.9-1.3,2-2.8,3.8-5.3c-0.7,5.1-5.8,9,0,13.5
	c2.1-2.6,5.4-5,6.3-8.1c0.8-2.8-0.8-6.4-1.4-9.7c1.1,1.5,2.4,3.2,3.6,4.9c3.1-3.1,3.1-3.1-1.9-11.2c1.6,1.2,2.2,1.7,2.9,2.3
	c0.8,0.6,1.5,1.3,2.3,2c4.3-5.4-2.2-6.6-3.9-10.7c2.4,1.5,4,2.5,5.8,3.7c2.8-6.5-4.1-6-6.7-10c2.8,1.2,4.7,1.9,7,2.9
	c1.9-5.8-4.5-4.5-6.1-7.6c2.1,0.5,3.9,0.9,5.9,1.4c0.8-5.9-4.6-4.6-8.3-7.2c2.9,0.3,4.5,0.4,6.5,0.6c0-5-5.3-2.8-7.1-5.4
	c1.6,0,3,0,5.2,0c-1.5-2.5-2.8-4.6-4.1-6.7c0.2-0.2,0.4-0.3,0.6-0.5c1,0.9,2,1.8,3.3,3c0.9-1.2,1.7-2.3,2.9-3.8
	c-0.5,3.2-0.9,6.1-1.2,8.9c0.5,0.2,0.9,0.3,1.4,0.5c1.5-1.1,3-2.3,5.4-4.1c-1.4,4-7.2,6-2.6,10.6c1.5-1.1,3-2.2,5.6-4
	c-1.9,4.6-8.6,6.1-4.4,11.5c1.6-1.1,3.4-2.2,5.7-3.8c-1.2,4.4-7.6,4.6-6.1,10.3c1.9-1,3.7-1.8,6.8-3.4c-3.6,3.6-6.2,6.2-8.8,8.8
	c0.4,0.5,0.8,0.9,1.2,1.4c2-0.8,4-1.7,6.7-2.8c-2.9,4.3-9.4,3.9-9.1,10.2c2.2-0.7,4.3-1.4,7.6-2.4c-4.1,4.2-10.6,3.5-11.5,10
	c2-0.7,3.6-1.2,5.6-1.9c-4.2,3.2-8,6.1-11.7,9c-3.9,3-3,6,0.2,9.4c1.1-2.2,2.2-4.1,3.2-6.1c-1.2,5.4-4,10.8,2.2,15.5
	c1.2-2.1,2.4-4.2,3.6-6.3c-7.4,11.8,4.3,17.3,7.9,26c1.1-1.5,1.7-2.4,1.8-2.5c1.1,3.3,2.4,7.1,3.7,10.9c0.6-0.1,1.3-0.2,1.9-0.3
	c0.6-3.1,1.2-6.2,1.8-9.2c-0.5,7.8-1.5,15.6,7.2,20.6c0.2-2.2,0.3-4.2,0.4-6.3c0.4,0,0.7,0,1.1,0c0,1.6-0.1,3.2,0,4.8
	s-0.1,3.5,0.5,4.9c0.7,1.6,2.2,2.8,3.8,4.7c0.8-2.4,1.4-4.1,2.4-6.8c1.3,4.5-3,9.5,2.7,11.9c4-6.7,3.4-9.1-3.5-16.3
	c1.9,1,3.7,1.9,5.7,3c2.2-6.3-4.2-5.2-6.8-8.5c2.6,0.6,4.3,1.1,6.1,1.5c0.3-3.3,0.3-3.3-7.2-8c2.4,0.4,4.1,0.6,5.9,0.9
	c-0.9-3.8-0.9-3.8-8.4-6.1c1.9-0.1,3.8-0.2,5.9-0.3c-1.1-5.3-5.7-1.8-8.6-4.1c2-0.4,3.6-0.7,5.5-1c-2-7.1-7.1-1.6-11.6-2.9
	c2.8-1,4.8-1.7,6.7-2.4c0.1-0.4,0.2-0.8,0.4-1.2c-1.8-0.6-3.7-1.2-5.3-1.7c0-2.7,0-5.7,0-9.2c1.3,2.9,2.4,5.5,4.1,9.4
	c1.5-3.1,2.2-4.5,3.3-6.7c0.9,3.8-3.3,8,2.4,9.9c0.9-1.5,1.9-3.2,3.3-5.6c0.6,4.4-5,8.2,0.7,11.5c1.1-1.5,2.3-3.2,4.2-5.9
	c-0.7,5.2-6.2,9-0.7,13.3c1.2-1.6,2.4-3.3,3.6-5c0.2,0.1,0.5,0.2,0.7,0.3c-1.4,3.1-2.9,6.3-4.3,9.4c0.5,0.3,0.9,0.5,1.4,0.8
	c1.4-1.6,2.9-3.2,4.9-5.4c-0.7,5-6.8,7.6-3.5,13c1.6-1.2,3.2-2.4,5.7-4.1c-2.8,4-4.9,7.1-7,10.2c0.5,0.4,0.9,0.8,1.4,1.1
	c1.7-1,3.5-2.1,5.2-3.1c0.1,0.2,0.2,0.3,0.4,0.5c-2.3,2.4-5.5,4.4-6.5,7.3c-1,2.7-3.7,6.3,0.4,10c0.8-2.6,1.4-4.8,2.4-8.1
	c0.6,11.8,0.6,11.8,3.9,14.1c0-2,0-3.9,0-5.8c0.8,7.7,4.8,13.1,11.7,17.3c-0.3-2.5-0.6-4.6-0.8-6.7c3,4.2,1.2,10.9,8,13.1
	c0-2.5,0-4.8,0-8.6c2.9,6,0.2,13.1,7.8,15.4c-0.5-3.3-0.9-6.4-1.5-10.5c4.2,5,0.5,12.6,7.6,15.8c0.1-2.7,0.3-5.1,0.4-8.4
	c2.7,4.8-1.1,11.8,6.6,13.4c0-2.2,0-4.3,0-6.4c0.2,0,0.4-0.1,0.6-0.1c0.8,3.6,1.5,7.2,2.3,10.8c0.6-0.1,1.2-0.2,1.9-0.3
	c0.2-1.8,0.4-3.6,0.5-5.4c-0.3,8.9,6.6,11.4,13,15.1c-0.3-2.5-0.5-4.4-0.9-7.2c3.4,3.8,1.2,10.3,7.6,11.4
	c-1.2-8.7-4.7-15.2-14.2-17.1c2.3,0.5,4.6,0.9,7,1.4c-0.7-7.1-6.5-6.5-10.9-8.3c1.7,0,3.5,0,5.3,0c-1.9-4.6-1.9-4.6-12.4-6.6
	c1.8-0.4,2.6-0.6,3.4-0.8c0.9-0.1,1.9-0.2,3-0.3c-3-4.4-3-4.4-13.6-3.7c3.1-1.2,4.8-1.9,6.7-2.6c-2.4-6.2-6.6-2.2-10.3-2.1
	c1.4-0.9,2.8-1.9,4.1-2.8c-4.1-6.1-7.9-2.9-11.9,0.1c1.4-1.5,2.8-3,4.2-4.6c-4.1-5.6-6.5-0.3-10,1.1c1-1.5,2-2.9,3.4-4.9
	c-3.5-1-6.6-1.8-9.7-2.7c0-0.2,0-0.4,0-0.6c1.6-0.1,3.2-0.1,5-0.2c-0.9-1.8-1.6-3.4-2.8-5.9c3.5,3.7,6.3,6.5,9.1,9.4
	c0.5-0.3,1-0.6,1.4-1c-0.5-2.1-1-4.2-1.8-7.6c3.8,4.4,2.8,11,9.5,11.3c-0.3-2.1-0.6-4.2-0.9-6.3c3,3.8,1.6,10.2,8.6,11.2
	c-0.3-2.4-0.6-4.6-0.9-6.8c3.2,4.2,1.4,11.3,8.4,13.3c0-2,0-3.9,0-5.8c0.3-0.1,0.6-0.1,0.9-0.2c0.4,2.4,0.4,4.9,1.2,7.1
	c0.8,2.3,2.5,4.3,3.7,6.5c0.4-0.2,0.7-0.3,1.1-0.5c0.1-2,0.2-4.1,0.3-7.3c1.3,5.9,2.4,10.6,3.4,15.3c0.6-0.1,1.2-0.1,1.9-0.2
	c0.5-1.8,0.9-3.5,1.7-6.5c0.4,5.4,0.7,9.6,1,13.9c0.6,0,1.2,0.1,1.7,0.1c0.8-1.7,1.5-3.5,2.3-5.2c-3.4,8,1.5,14.5,3.8,21.3
	c0.6,1.6,3.3,2.5,6.2,4.7c-1.3-5.3-2.3-9.1-3.2-13c4.4,5.8,2.3,16,13.4,17.3c-1.5-4.1-2.9-8.1-4.3-12.1c5.3,4.9,3,14.9,13.3,16.9
	c-1.1-3.5-2.1-6.7-3.1-9.8c4.4,4.4,2.9,13.7,12.8,13.7c-1.4-3.5-2.7-6.9-4-10.3c5,4.6,4.1,14.4,14.6,14.1c-2.2-3.8-4.1-7.3-6.1-10.8
	c5.9,4.3,6.1,14.8,17,13.9c-4.7-6.6-8-13.1-14.7-17.9c-56.6-40.6-99.3-92.7-128.1-156.2c-22.1-48.7-34.7-99.9-38.6-153.2
	c-1.2-16.8-1.9-33.6-1.7-50.4c0.1-9.2,2.1-18.5,4.1-27.5c1-4.6,3.4-9.1,5.9-13.1c5.9-9.3,13.5-13,23.9-9.3
	c11.8,4.2,23,10.3,34.4,15.7c4.7,2.2,9.1,4.9,13.9,6.8c3.2,1.3,6.7,2.2,10.1,2.4c7.5,0.6,9.5-2.5,6.4-9.3c-1.4-3-3.1-5.9-4.7-8.8
	c-4.2-7.5-3-14,4.8-17.5c7.2-3.2,15-5.7,22.8-6.8c13.2-1.8,26.5-3.1,39.8-3.1c37-0.1,74,0,111,1c12.5,0.3,25,3.6,37.4,5.8
	c2.7,0.5,5.3,1.9,7.7,3.4c6.6,4.2,7.9,9.8,4.1,16.7c-2.1,3.8-4.3,7.6-5.9,11.6c-1.8,4.6-0.3,7,4.6,6.9c4.4-0.1,9.1-0.7,13-2.5
	c9.8-4.6,19-10.4,28.8-14.9c7.8-3.5,16.1-6.3,24.4-8.2c7.1-1.6,12.9,2.2,17.2,7.9c6.9,9.1,10.2,19.7,10.6,30.7
	c0.7,18.1,0.8,36.3-0.1,54.4c-1.8,33.5-7.5,66.5-16.6,98.8c-18.5,65.8-50.3,124.1-98.1,173.4c-16.7,17.3-34.8,33.1-54.6,46.7
	c-6.3,4.3-8.2,11.1-13.3,16.6c11.2,0.7,11.6-9.3,17.3-14c-1.9,3.6-3.8,7.1-5.7,10.7c0.4,0.4,0.7,0.9,1.1,1.3
	c2.6-2.1,5.7-3.7,7.7-6.3c2.1-2.7,3-6.2,5.5-8.9c-1.3,3.3-2.6,6.6-4,10.2c9.8-0.3,8.5-9,12.7-13.8c-0.9,3.1-1.9,6.2-3,9.8
	c10.4-1.6,7.9-12.1,13.3-16.9c-1.4,4-2.7,7.9-4.2,12.2c11.1-1.4,9.1-11.4,13.5-17.4c-0.5,1.9-1,3.8-1.5,5.7s-1,3.8-1.6,5.9
	c5-1.3,5.4-1.2,8.6-10.6c1.4-4.2,1.2-9,1.6-12.8c0.3,0.6,1,2.3,1.8,4c0.6,0,1.2,0,1.8,0c0.3-4.3,0.7-8.5,1-13.7
	c0.7,2.5,1.1,4.3,1.7,6.4c5.6-3.3,3-9.4,5.2-15.1c0.2,3.2,0.4,5.1,0.5,7.3c6.1-2.7,4.5-8.8,6.8-13.2c0,2,0,3.9,0,6
	c6.8-2.4,5.6-9,8.4-13.5c-0.2,2.3-0.5,4.7-0.7,7c6.8-1,5.5-7.5,8.7-12.7c-0.4,3.4-0.7,5.3-0.9,7.4c6.8,0,5.8-6.5,9.2-9.7
	c-0.5,2-1,4-1.6,6.3c5.8,0.2,6.5-5.2,10.1-7.6c-0.7,1.5-1.3,3-2.1,5c1.6,0.1,3.1,0.2,4.6,0.2c0.1,0.2,0.1,0.4,0.2,0.6
	c-3,0.9-6.1,1.8-9.6,2.8c1.3,1.8,2.3,3.3,4.3,6c-4.3-2.2-6.7-7.7-11-2.4c1.4,1.5,2.8,3,4.2,4.6c-4-2.3-7.8-6.4-12,0.1
	c1.4,0.8,2.8,1.6,4.1,2.5c-0.1,0.3-0.2,0.6-0.3,0.9c-1.8-0.7-3.7-1.9-5.5-1.8c-1.6,0.1-3.2,1.7-5.6,3.1c2.9,1,4.6,1.6,6.4,2.2
	c-4.5,0.3-9.8-2.5-11.9,4.5c1.7,0.2,3.4,0.4,5.1,0.6c-4.2,1.7-10,0.1-11.5,6.7c1.8,0.1,3.7,0.2,5.5,0.3c-4.6,1.6-10.2,1.4-11.1,8.4
	c2.4-0.6,4.7-1.1,7-1.6c0.3,0.4,0.6,0.8,1,1.2c-10.4,0.6-13.6,7.3-15,15.6c3.2-1,3.2-1,7.5-10.3c-0.2,1.9-0.4,3.8-0.7,6.5
	c6.4-3.9,13.4-6.2,13.2-15.2c0,1.7,0,3.4,0,5.9c5.4-2.8,2.2-8,4.9-11.7c0.1,2.8,0.2,4.9,0.3,7.2c7.6-1.6,3.9-8.5,6.5-12.5
	c0.1,2.4,0.3,4.7,0.4,7.4c6.8-3.2,3.6-10.4,7.4-14.7c-0.5,3-1,6.1-1.5,9.4c7.8-2.3,5.1-9.4,7.9-14c0,1.1,0.1,2.2,0,3.3
	c-0.1,1.3-0.3,2.6-0.4,4.3c7.2-2.3,5.5-9.2,8.4-13.6c-0.2,2.1-0.4,4.1-0.7,6.7c7-3.9,10.7-9.5,11.6-17.1c0,1.8,0,3.6,0,5.6
	c7.2-2.8,3.1-8.4,4.3-12.9c0.6,2.1,1.1,4.2,1.7,6.3c0.5,0,1,0.1,1.5,0.1c0.1-1.8,0.6-3.8,0.2-5.5c-0.5-2.3-1.4-4.8-2.8-6.6
	c-1.3-1.8-3.5-2.9-4.7-5.1c1.8,1.1,3.7,2.2,5.6,3.4c2.1-5.7-3.9-6.7-5.7-11.3c2.4,1.7,4,2.9,5.6,4.1c3.2-5.3-2.5-8-3.8-13.5
	c2.2,2.6,3.5,4.1,4.7,5.6c0.5-0.2,0.9-0.3,1.4-0.5c-1.3-3.2-2.6-6.4-3.9-9.7c0.2-0.1,0.4-0.2,0.6-0.3c1.2,1.7,2.3,3.4,3.5,5.2
	c5.1-4.4,0.5-8.1,0.1-12.4c1.1,1.6,2.2,3.3,3.3,4.9c5.6-3.2,0.6-7,0.6-11.7c1.5,2.5,2.5,4.1,3.5,5.7c5.5-2.1,2-6,2.5-9.5
	c0.7,1.4,1.5,2.8,2.3,4.4c4.9-0.4,3.1-4.9,5-7.4c0,3,0,6,0,9.1c-1.5,0.4-3.4,0.9-5.4,1.4c0.1,0.4,0.1,0.8,0.2,1.3
	c2.1,0.7,4.2,1.4,6.9,2.3c-4,1.9-9.1-3.9-11.6,3c1.8,0.4,3.5,0.7,5.7,1.2c-3.4,0.9-6.1,1.6-8.9,2.3c0.1,0.5,0.2,1.1,0.3,1.6
	c2,0,4.1,0,7.1,0c-3.4,3-9.8-0.2-9.7,6.6c1.9-0.4,3.5-0.8,6.2-1.4c-3,3.3-9,2.1-7.9,8.3c1.7-0.4,3.5-0.8,6-1.4
	c-2,3.3-8.7,2.3-6.2,8.3c1.8-1,3.6-1.9,5.4-2.9c-6.8,4.2-7.2,9.7-3.8,16.2c3.2-2.1,3.2-2.1,3.4-11.1c0.6,1.7,1.2,3.4,1.9,5.3
	c6.7-3,3.7-9.3,5.6-14c0.2,2.1,0.4,4.2,0.6,6.5c8.5-5.1,8-12.6,5.6-20.7c0.5,0,1,0,1.4,0c0.6,3,1.2,6,1.8,9.5
	c4-3.1,6.9-6.1,4.7-11.7c0.7,0.8,1.4,1.6,2.6,3c3.3-5.2,7.1-9.9,9.5-15.2c1-2.2-0.8-5.7-1.3-8.7c-0.4,0-0.9,0-1.3,0.1
	c-0.4,1.3-0.8,2.5-1.2,3.8c-0.2,0-0.3-0.1-0.5-0.1c0-1.9,0-3.7,0-5.7c5.2-1.2,3.7,4.9,6.5,6.3c5.7-4.6,3.7-9.8,1.7-15.4
	c0.6,1,1.2,1.9,1.7,2.9c0.6,1,1,2.1,1.6,3.2c4.2-5,2.1-10.7-4.9-14.1c-2.2-1.1-4.4-2-6.3-3.9c1.7,0.5,3.5,1,5.4,1.5
	c-0.7-6.3-7.1-5.7-10-9.4c2,0.7,3.9,1.3,6.2,2.1c0.6-6.4-6.2-6-9.2-10.6c3,1.4,4.8,2.3,7,3.4c1.2-5.9-4.9-6.2-6.6-9.8
	c1.8,0.9,3.6,1.8,5.7,2.9c1.8-5.7-4.8-6-6.2-10.5c2.3,1.5,4,2.7,5.7,3.8c1.6-3.8,1.6-3.8-3.3-10.5c1.5,1,3.1,2,4.7,3.1
	c4.6-4.5-1-6.4-3-10.7c2.5,1.9,3.9,2.9,5.5,4.1c4.4-2.7,0.1-5.8,0.3-9.3c1.2,1.5,2,2.5,3.5,4.4c0.7-1.5,1.3-2.9,2-4.2
	c0.4,0.4,0.9,0.7,1.3,1.1c-1.2,2.1-2.4,4.3-3.9,7c2-0.1,3.4-0.2,6.2-0.5c-3.8,1.8-6.3,3-8.8,4.2c0.2,0.5,0.4,1,0.6,1.5
	c1.8-0.1,3.6-0.2,5.8-0.4c-2.5,2.8-8.4,1-7.6,7.1c1.8-0.4,3.6-0.8,5.8-1.4c-1.9,3.2-7.9,1.9-6.3,7.7c2.1-0.9,4.2-1.7,6.9-2.9
	c-2.1,4-9.7,3.4-6.2,10c1.7-1.2,3.2-2.4,5.5-4c-0.9,4.2-8.2,5.5-3.8,10.8c1.5-1.3,2.9-2.5,4.4-3.7c-0.8,3.6-6.9,6-1.3,10.8
	c1.3-1.8,2.6-3.6,4.2-5.6c-0.8,3.6-2.8,7.1-2,9.9c0.9,3.2,4.2,5.8,6.4,8.6c5.9-4.3,1-8.4,0-13.8c1.9,2.6,2.9,4.1,4,5.6
	c4.6-4.5,1.8-8.4,0-12.8c1.1,1.2,2.1,2.5,3.3,3.8c4.7-4.7,0.9-8.5-1.6-12.4c0.4-0.3,0.7-0.5,1.1-0.8c0.8,1.7,1.6,3.3,2.6,5.3
	c4.6-6.9,2.9-11.5-1-16.1c1.4,1.2,2.8,2.5,4.3,3.7c3-6-3-7.4-4.4-11.5c1.7,1.3,3.3,2.5,5.1,3.8c3.2-6-1.6-8-4.6-11.4
	c1.6,0.7,3.2,1.5,4.8,2.2c0.3-3.8,0.3-3.8-6.2-10.2c1.7,0.7,3.3,1.4,5,2.1c0.2-3.4,0.2-3.4-9.5-9.3c3.2,0.7,5.2,1.1,7.5,1.6
	c0.8-6.3-5-4.6-8.5-6.9c2.4,0,4,0,5.7,0c-1.1-3.9-1.1-3.9-9.7-6.3c2.3-0.3,3.8-0.6,5.3-0.8c-0.5-1.1-4.9-3.1-9.8-4.4
	c2.4-0.4,3.9-0.6,6.9-1.1c-3.2-2.4-5.5-4.2-7.9-5.9c0.3-0.4,0.6-0.8,0.8-1.2c1.4,0.8,2.7,1.5,4.4,2.4c0.3-1.5,0.6-2.8,0.9-4.1
	c1,3.2,1.9,6.3,2.8,9.5c0.5-0.1,0.9-0.1,1.4-0.2c0.9-1.6,1.8-3.2,3.3-5.8c-0.3,4.8-3.8,8.9,1.5,12.1c0.9-1.3,1.8-2.7,2.6-4.1
	c-0.2,3.7-0.4,7.4-0.5,11.1c0.6,0.1,1.2,0.2,1.8,0.3c1-1.5,2.1-2.9,3.1-4.4c-0.6,4.6-4.3,8.9,0.2,13.6c1-1.5,1.9-3,2.9-4.5
	c0.2,0.1,0.4,0.2,0.7,0.2c-1.3,3.6-2.5,7.1-3.8,10.7c0.4,0.2,0.9,0.5,1.3,0.7c1.4-1.6,2.8-3.1,4.3-4.7c-0.9,4.9-6.8,8.2-3.6,14.4
	c1.6-1.4,3.2-2.7,4.8-4c0.2,0.1,0.3,0.2,0.5,0.4c-2.4,3.2-4.9,6.4-7.3,9.6c0.4,0.4,0.8,0.8,1.3,1.2c1.5-0.7,3.1-1.3,4.6-2
	c-3.2,3.2-7.6,5.7-5.9,11.2c1.8-0.1,3.6-0.2,5.4-0.3c-10.1,3-7.9,12.8-11.7,19.8c8.4-1.6,7.1-8,7.8-13.5c0.7,1.3,0.8,2.3,0.9,3.4
	c0.1,1.1,0.2,2.2,0.4,3.4c6.1-3.6,6.2-4.3,2.4-13.2c1.5,2.2,3,4.3,5,7.1c1-1.8,2.9-3.8,3-5.9c0.2-2.3-1.2-4.7-1-7.5
	c0.8,1.9,1.6,3.8,2.5,5.8c3.8-3.4,3.8-3.4,0-13.6c1.5,2,2.9,4,4.4,6.1c5.7-4.7,0-7.7-1.2-11.6c1.4,1.2,2.7,2.5,4.1,3.7
	c2.6-3.7,2.6-3.7-4.3-12.1c2.8,1.7,4.5,2.8,6.3,3.8c1.7-4,1.7-4-4.4-9.8c1.6,0.7,3.3,1.4,5.7,2.5c-0.2-3.7-0.4-6.9-0.6-10.2
	c0.3,0,0.5-0.1,0.8-0.1c0.5,1.8,1,3.6,1.6,5.7c1.4-0.9,2.7-1.8,4.3-2.8c-2,3.4-3.7,6.4-5.5,9.4c0.5,0.4,0.9,0.9,1.4,1.3
	c2-0.8,3.9-1.6,5.9-2.4c-2.5,3.5-8.9,4-6.8,10.7c1.9-0.6,3.8-1.2,5.8-1.8c-3.4,3.1-9.3,3.7-8.4,10.6c1.9-0.4,4-0.9,6.1-1.3
	c-4.2,2.8-10.1,3.5-10.6,10.5c2.3-0.6,4.4-1.1,6.6-1.6c0.1,0.3,0.2,0.6,0.4,0.9c-1.3,0.5-2.6,1.1-3.9,1.6c-1.4,0.5-2.9,0.7-4.3,1.4
	c-1.4,0.7-2.7,1.8-4,2.7c0.4,0.4,0.7,0.9,1.1,1.3c2.4-0.3,4.7-0.6,7.1-0.8c-4.5,3-11.4,1.7-14,8.6c2.4-0.1,4.7-0.3,7-0.4
	c0,0.3,0.1,0.6,0.1,0.9c-3.8,0.7-7.6,1.3-11.5,2c1.3,1.9,2.3,3.3,3.4,4.8c0.5-1.1,1-3.2,2-3.6s2.7,0.9,4.2,1.5
	c0.1-0.3,0.5-1.1,1.3-3.1c1.3,3.1,2.6,5,2.8,7.1c0.2,2.3-8.1,8.4-11,8.5c-1-0.5-1.9-1-2.9-1.4c-0.7-2.9-1.4-5.9-2.1-8.9
	c-7.1,3.9-7.1,3.9-3.7,7.9c0.1,1.1,0.2,2.2,0.3,3.2c-5.3-3.7-6.7-3.3-8.3,2c1.6,1,3.2,1.9,4.8,2.8c-8.3,0.8-10.2,2.6-12.8,11.8
	c2.1-0.2,4.2-0.4,6.3-0.6c-4.2,2.4-10.6,1.7-11.1,8.8c1.4,0.1,2.8,0.2,4,0.3c-3,1.7-5.8,3.3-8.6,4.8c0.2,0.5,0.5,0.9,0.7,1.4
	c1.3,0,2.7,0,4.6,0c-3.4,1.6-6.2,2.9-9.9,4.5c2.2,1.1,3.1,1.5,4.4,2.1c-9.7,1.9-10.7,11.3-17.1,16.3c11.6,1.8,12-7.1,15.5-13.3
	c-0.8,3.1-1.6,6.2-2.4,9.4c9-0.3,6.8-8.2,9.7-12.8c-0.2,2.7-0.4,5.3-0.6,8c8.7-1.7,5-9.3,8.1-15.2c0,4.1,0,6.7,0,9.5
	c8.4-3.3,3.8-10.2,5.3-15.5c0.6,2.8,1.1,5.6,1.7,8.4c7.3-3.2,2.1-8.9,3.1-14.7c1.1,3.5,1.8,5.6,2.5,7.7c7.9-5.2,0.9-10.4,1-15.6
	c1.3,2.4,2.7,4.8,4,7.2c0.5,0,1.1,0,1.6-0.1c0.1-2.5,0.7-5.1,0.1-7.4c-0.7-3-2.5-5.4-6.4-4.5c-1.1,0.3-2.5-0.5-3.8-0.8
	c1.9,0,4.5,1.9,5-1.9C590.6,472.8,592.3,472.8,594,472.9z M336.2,354c-0.1,1.4-0.3,2.9-0.3,4.4c0,83.3,0,166.7-0.2,250
	c0,4.9,2.4,7,7.1,9.3c0-2.8,0-4.9,0-7c0-16.3,0-32.7,0-49c0-67.2,0-134.3,0-201.5C342.8,353.7,342.6,353.5,336.2,354z M400,354
	c-4.9-0.6-7.1,0-7.1,5c0.1,83.6,0,167.2,0,250.8c0,2,0.2,4,0.3,6.3c5.2-1.7,6.8-4.4,6.8-9.2c-0.1-82.3-0.1-164.5-0.1-246.8
	C400,358.1,400,356.2,400,354z M326.6,352.9c-0.2,1.8-0.4,3.4-0.4,5c0,81.1,0,162.2-0.1,243.4c0,4.7,2.5,6.7,6.7,8.2
	c0-85.8,0-171.1,0-256.6C330.6,352.9,328.8,352.9,326.6,352.9z M412.5,602.4c4.5-2.2,6.8-4.3,6.8-9c-0.1-78.5-0.1-157-0.1-235.4
	c0-5.8-0.6-6.1-6.7-4.6C412.5,436,412.5,518.7,412.5,602.4z M422.3,594.8c4.4-2.3,6.7-4.6,6.7-9.5c-0.1-75.3-0.1-150.5,0.1-225.8
	c0-5-1.7-6.6-6.7-5.9C422.3,433.7,422.3,513.8,422.3,594.8z M313.4,594.9c0-81,0-161.3,0-241.5c-5.4-0.4-6.6,1.8-6.6,6.5
	c0.1,75,0.1,149.9,0,224.9C306.8,589.7,308.8,592.6,313.4,594.9z M403.2,352.9c0,85.6,0,170.8,0,256.2c5.7-1.7,6.3-5.5,6.3-10.3
	c-0.1-80.3-0.1-160.6-0.1-240.8c0-1.6,0-3.3,0-5.1C407.1,352.9,405.2,352.9,403.2,352.9z M323.1,353.4c-6.2-1.1-6.4-1-6.4,4.6
	c0,78.6,0.1,157.2,0,235.8c0,4.7,2.2,6.8,6.5,8.5C323.1,519,323.1,436.1,323.1,353.4z M254.2,354.3c0,2,0,3.8,0,5.6
	c0,31.2,0,62.3,0,93.5c0,25.8,0,51.6-0.1,77.5c0,5,2.4,8.1,7.1,11.3c0-2.9,0-4.7,0-6.5c0-58.3-0.1-116.6,0.1-174.9
	C261.3,356,260.1,353.7,254.2,354.3z M484.4,529.8c5.1-4.2,6.9-8.4,6.8-14.1c-0.2-50.5-0.1-101-0.1-151.4c0-3.2,0.2-6.4-0.2-9.5
	c-0.1-1-2.1-2.3-3.3-2.4c-1.2,0-2.8,1.2-3.4,2.3c-0.6,1-0.2,2.6-0.2,3.9c0,55.1,0,110.3,0,165.4
	C484.1,525.7,484.2,527.3,484.4,529.8z M494.5,352.8c0,54.6,0,109,0,163.3c0.6,0.2,1.2,0.3,1.9,0.5c1.5-4.2,4.3-8.4,4.3-12.6
	c0.3-48.8,0.2-97.6,0.3-146.4C500.9,352.7,499.1,351.2,494.5,352.8z M241.6,517.9c0-55.8,0-110.2,0-164.6c-6.5-0.5-6.6-0.4-6.6,5.6
	c0,47.4,0.1,94.9-0.1,142.3C234.8,507.5,237.1,512.3,241.6,517.9z M474.6,542.8c4.8-4.2,6.8-7.8,6.8-13
	c-0.1-57.3-0.1-114.6-0.1-171.9c0-1.6-0.2-3.2-0.3-4.7c-5.4-0.3-6.5,1.9-6.5,6.5c0.2,58.8,0.1,117.6,0.1,176.4
	C474.6,538,474.6,539.8,474.6,542.8z M251.2,530.7c0-59.7,0-118.4,0-177.4c-2.1,0-4,0-6.2,0c-0.1,1.8-0.3,3.5-0.3,5.1
	c0,52.8,0.1,105.6-0.1,158.3C244.6,522.3,246.6,526.2,251.2,530.7z M504,352.8c0,49.9,0,99,0,149.6c3.6-5.6,6.3-9.8,6.3-15.5
	c-0.2-43.1-0.1-86.3-0.1-129.4c0-1.1-0.2-2.2-0.3-3.5C508,353.5,506.2,353.2,504,352.8z M231.9,501.7c0-49.9,0-98.7,0-147.5
	c-5.4-0.8-6.4,1.8-6.4,6.3c0.1,42,0.2,84,0,126C225.4,492.4,227.4,496.7,231.9,501.7z M358.7,634.9c-6.9-4.4-12.7-8.1-19.4-12.4
	C346.2,634.7,345.4,635,358.7,634.9z M396.2,622.7c-6.6,4.2-12.5,8-19.2,12.4C388.8,635.3,391.4,633.7,396.2,622.7z"/>
<path d="M506.1,574c5.3-4.5,11.3-2.7,17.7-2c0.5-2.3,1.1-4.6,1.6-6.8c0.2,0,0.4,0.1,0.6,0.1c0,1.8,0,3.7,0,5.5
	c5.8-1.2,5.8-1.2,6.6-11.5c0.6,2.1,1.3,4.2,2.1,7c2.3-1.8,4.1-3.3,6.1-4.8c-1.2-2.2-2.1-4-3.1-5.9c0.2-0.2,0.5-0.4,0.7-0.6
	c1.2,1.5,2.4,3,3.9,5c1.6-1.8,3-3.4,4.7-5.3c-1.7-2.4-3.4-4.8-5-7.2c0.3-0.2,0.5-0.5,0.8-0.7c1.8,2.1,3.5,4.2,5.3,6.3
	c3.7-3.3,3.7-3.3-0.1-11.1c1.3,1.8,2.5,3.6,4.6,6.5c2.4-5.3,4-8.9,5.6-12.6c0.3,0.1,0.5,0.2,0.8,0.3c-0.6,2.1-1.1,4.3-1.8,6.8
	c2.1-0.2,4-0.4,6.4-0.6c-3.9,2.2-7.3,4-10.7,5.9c0.2,0.6,0.4,1.2,0.6,1.8c2.8,0,5.5,0,8.3,0c-4.4,3-11.6-0.5-13.7,7.4
	c2.6,0.2,5.3,0.4,7.9,0.7c-5.3,1.8-12.1-1-15.3,6.5c3.1,0.2,6,0.4,9,0.7c-5.3,2.3-12.1-1.7-16.6,4.7c2.8,0.5,5.3,0.9,8.7,1.5
	c-5.8,1.9-11.6-2-16.4,3.3c3.3,0.4,5.9,0.7,9.6,1.1c-5.5,1.6-10,2.9-14.5,4.2c-0.3,0.3-0.5,0.6-0.8,0.9c-0.8,0.3-1.6,0.7-2.4,1h-0.4
	l-0.1-0.1c0-0.2,0-0.4,0-0.6c0-1.5,0-3,0-4.5c-1.3-0.6-2.6-1.2-3.9-1.8c-0.8,0.3-1.6,0.7-2.4,1c-0.3,0-0.5,0-0.8,0
	c-0.7,0.7-1.4,1.3-2.1,2l0.1,0.1c-0.7-1.4-1.4-2.7-2.1-4.1L506.1,574z"/>
<path d="M218.8,577.4c-0.9-0.6-2.5-1.8-2.6-1.7c-1.3,1.5-2.3,3.9-4.6,1.1c-3.5,2.9-6.6-2.8-10.1,0.7c0-0.6,0-1.3-0.1-1.9
	c2.6-0.3,5.3-0.6,7.9-0.8c0.1-0.5,0.2-1,0.3-1.5c-2.3-0.5-4.7-1.2-7-1.5c-2.6-0.3-5.2-0.1-7.8-0.7c2.5-0.4,5-0.9,7.7-1.3
	c-4.4-6.4-11-2.4-16.3-4.8c2.8-0.1,5.6-0.3,8.6-0.4c-2.9-7.8-9.9-4.7-15-6.7c2.5,0,5.1,0,8,0c-1.9-8.4-9.4-4.9-15.1-7.8
	c4,0,6.7,0,9.4,0c-0.4-6.5-6.3-4.9-10.8-7.9c3.3,0.3,5.1,0.5,7.3,0.7c-0.6-2.5-1.1-4.6-1.6-6.8c0.2-0.1,0.5-0.2,0.7-0.2
	c1.6,3.5,3.1,7,5.4,11.9c1.7-2.7,2.8-4.7,4-6.6c0.5,0.4,1,0.8,1.5,1.2c-1.4,1.9-2.9,3.9-4.6,6.3c1,1.4,2.2,2.9,3.5,4.7
	c2.1-2.4,3.8-4.5,5.5-6.5c0.3,0.2,0.5,0.4,0.8,0.6c-1.6,2.4-3.2,4.8-5.1,7.5c1.6,1.6,3.1,3.3,4.8,5.1c1.5-2,2.8-3.6,4-5.3
	c0.2,0.1,0.5,0.3,0.7,0.4c-1,2-2,4-3.1,6.3c1.8,1.5,3.5,2.9,5.8,4.9c0.9-2.5,1.6-4.6,2.4-6.7c0.3,0,0.6,0.1,0.9,0.1
	c-0.3,1.6-0.9,3.1-0.8,4.7c0,1.5,0.4,3.2,1.3,4.2c1.2,1.3,3,1.9,5.3,3.2c-0.2-2.7-0.3-4.7-0.4-6.7c0.3-0.1,0.6-0.2,0.9-0.2
	c0.6,2.3,1.1,4.7,1.8,7.2c6.5-1.1,12.9-2.4,18.4,2.3C226.3,574.5,222.3,575,218.8,577.4z"/>
<path class="st0" d="M141,469.1c-0.3,0.3-0.7,0.6-1,0.9c-2.7-1.7-5.3-3.4-8-5c0.7-0.7,1.3-1.4,2-2.1c1.3-0.4,2.7-0.7,4-1.1
	c0.8,0.5,2,0.9,2.2,1.6C140.7,465.3,140.7,467.2,141,469.1z"/>
<path class="st0" d="M555,490.5c-1.7,0.1-3.4,0.3-5.1,0.4c0-2,0-4,0-6.1c1.1,0.1,2.1,0.1,3.2,0.2l-0.1-0.1c0.4,0.4,0.7,0.7,1.1,1.1
	l-0.1-0.1c0.3,0.7,0.7,1.4,1,2.1l0.1-0.2c-0.6-0.1-1.2-0.2-1.9-0.3l-0.2,0.2l0.3-0.1C553.9,488.6,554.5,489.5,555,490.5z"/>
<path class="st0" d="M181,487.3c0-0.4-0.1-0.9-0.1-1.3l0.1-0.1c0.7-0.4,1.4-0.7,2.1-1.1l-0.1,0.1c1,0.3,2.1,0.7,3.1,1l-0.1-0.1
	c0,0.4,0,0.7,0,1.1l0.1-0.1c0,0.7,0,1.4,0,2c-1.2,1.9-2.6,3.5-5,1.6c0.6-0.8,1.2-1.7,1.9-2.5l0.2-0.1l-0.2,0.1
	C182.3,487.7,181.6,487.5,181,487.3z"/>
<path d="M186.1,486c-1-0.3-2.1-0.7-3.1-1c1.3-4.1-1.8-1.6-3-2c1-1.3,2.1-2.6,3.1-4l-0.1-0.1c-0.3,0.2-0.6,0.3-0.9,0.5
	c-0.2,0.7-0.4,1.5-0.6,2.2c0.8,0,1.5,0,3.1,0c-1.4-1.2-2-1.7-2.6-2.2c1.4,0.2,2.7,0.4,4.1,0.6l-0.1-0.1c0,1.1,0,2.1,0.1,3.2L186,483
	C186,483.9,186,484.9,186.1,486z"/>
<path d="M549.9,484.8c0,2,0,4,0,6.1c-1.4-0.3-2.9-0.7-4.6-1.1c0.5-2,1.1-4.4,1.8-6.8l-0.1-0.1c0.2,2,0.4,4.1,0.6,6.1
	c0.3-0.1,0.6-0.2,0.9-0.2c0.5-1.3,1.1-2.5,1.6-3.8L549.9,484.8z"/>
<path d="M548.1,480.9c1.1-1.7,2.1-3.4,3.2-5.2c0.6,1.1,1.1,2.1,1.7,3.2l0.1-0.1c-1-0.2-1.9-0.4-2.9-0.6c-0.1,0.4-0.2,0.8-0.3,1.3
	c1,0.1,2.1,0.3,3.1,0.4l-0.1-0.1c-0.7,0.7-1.4,1.4-2.1,2.1l0.2-0.1c-0.4,0-0.8,0-1.1,0l0.2,0.1c-0.7-0.4-1.4-0.7-2.2-1.1
	L548.1,480.9z"/>
<path d="M183.1,479c0.7-1,1.3-1.9,2.7-3.9c1.4,3.3,2.4,5.7,3.4,8c-1-0.1-2.1-0.2-3.1-0.3l0.1,0.1c0-1.1,0-2.1-0.1-3.2l0.1,0.1
	c-1-0.4-2.1-0.7-3.1-1.1L183.1,479z"/>
<path d="M554.9,476.8c0.4,2,0.7,4,1.1,6c-1.7,0-3.4,0-5.1,0l0.2,0.1c0-0.4,0-0.7,0-1.1l-0.2,0.1c1.2-0.3,2.3-0.5,3.5-0.8
	c-0.5-0.4-0.9-0.9-1.4-1.3l0.1,0.1c0-0.4,0-0.7,0-1.1L553,479C553.6,478.2,554.2,477.5,554.9,476.8z"/>
<path class="st0" d="M550.8,482.8c1.7,0,3.4,0,5.1,0c0,1,0,2.1,0,3.1c-0.7,0-1.4-0.1-2.1-0.1l0.1,0.1c-0.4-0.4-0.7-0.7-1.1-1.1
	l0.1,0.1C552.3,484.2,551.6,483.5,550.8,482.8z"/>
<path class="st0" d="M514.2,584.9l-0.3-0.4c0-0.6,0-1.1,0-1.7v0.1c0.3-0.7,0.7-1.3,1-2l-0.1-0.1c0.7,0.3,1.4,0.6,2.1,0.9l0.1,0.1
	c0.3,0.4,0.6,0.8,0.9,1.2C516.8,583.6,515.5,584.2,514.2,584.9z"/>
<path d="M505.1,577.8c-0.8-1.2-1.5-2.4-2.5-3.8c0.9,0,2.2,0,3.5,0l-0.2-0.2c-0.3,1.4-0.7,2.7-1,4.1
	C504.9,577.9,505.1,577.8,505.1,577.8z"/>
<path d="M550.8,482.8c0.7,0.7,1.5,1.4,2.2,2.1c-1.1-0.1-2.1-0.1-3.2-0.2l0.2,0.1c-1-0.7-2.1-1.4-3.1-2.1l0.1,0.1
	c0.3-0.7,0.6-1.4,1-2l-0.1-0.1c0.7,0.4,1.4,0.7,2.2,1.1l-0.2-0.1c0.4,0.4,0.8,0.7,1.1,1.1H550.8z"/>
<path class="st0" d="M179.9,482.9c1.2,0.4,4.3-2.1,3,2l0.1-0.1c-0.7,0.4-1.4,0.7-2.1,1.1l-0.1,0.1c-0.6-0.6-1.3-1.1-1.9-1.7
	c0.4-0.5,0.8-1,1.1-1.5L179.9,482.9z"/>
<path d="M508.1,580.9c-1,0.5-2.1,1-3.1,1.6c0-1.6,0.1-3.1,0.1-4.7l-0.1,0.1c1,0,2.1,0,3.1,0l-0.1-0.1
	C508,578.9,508,579.9,508.1,580.9z"/>
<path class="st0" d="M185.9,482.8c1,0.1,2.1,0.2,3.1,0.3c-0.4,1-0.7,1.9-1.1,2.9c-0.7,0-1.4-0.1-2-0.1l0.1,0.1
	C186,484.9,186,483.9,185.9,482.8z"/>
<path class="st0" d="M554.9,476.8c-0.6,0.7-1.3,1.4-1.9,2.1c-0.6-1.1-1.1-2.1-1.7-3.2C552.5,476.1,553.7,476.5,554.9,476.8z"/>
<path d="M217.5,581.9c1.2,0,2.4,0,3.6,0C219.9,581.9,218.7,581.9,217.5,581.9z"/>
<path d="M553.9,485.8c0.7,0,1.4,0.1,2.1,0.1c-0.3,0.7-0.7,1.4-1,2.1C554.6,487.3,554.3,486.5,553.9,485.8z"/>
<path d="M182.8,487.9c-0.6,0.8-1.2,1.7-1.8,2.5c0-1,0-2.1,0-3.1C181.6,487.5,182.3,487.7,182.8,487.9
	C182.9,487.9,182.8,487.9,182.8,487.9z"/>
<path d="M553.2,487.5c0.6,0.1,1.2,0.2,1.9,0.3c0,0.9,0,1.8,0,2.7c-0.6-0.9-1.1-1.9-1.7-2.8L553.2,487.5z"/>
<path d="M185.9,485.8c0.7,0,1.4,0.1,2,0.1c-0.7,0.3-1.3,0.7-2,1C185.9,486.6,185.9,486.2,185.9,485.8z"/>
<path d="M186,488.8c0-0.7,0-1.4,0-2C186,487.5,186,488.2,186,488.8z"/>
<path d="M518,583c-0.3-0.4-0.6-0.8-0.9-1.2h0.4C517.7,582.2,517.9,582.6,518,583z"/>
<path d="M180.1,482.8c-0.4,0.5-0.8,1-1.1,1.5C179.3,483.8,179.7,483.3,180.1,482.8z"/>
<path d="M520,580.8c0.3-0.3,0.5-0.6,0.8-0.9C520.5,580.2,520.2,580.5,520,580.8z"/>
<path class="st0" d="M336.2,354c6.4-0.5,6.7-0.3,6.7,6.1c0,67.2,0,134.3,0,201.5c0,16.3,0,32.7,0,49c0,2.1,0,4.2,0,7
	c-4.7-2.2-7.1-4.4-7.1-9.3c0.1-83.3,0.1-166.7,0.2-250C335.9,356.9,336.1,355.5,336.2,354z"/>
<path class="st0" d="M400,354c0,2.2,0,4.1,0,6.1c0,82.3,0,164.5,0.1,246.8c0,4.8-1.7,7.5-6.8,9.2c-0.1-2.3-0.3-4.3-0.3-6.3
	c0-83.6,0.1-167.2,0-250.8C392.9,354,395.1,353.4,400,354z"/>
<path class="st0" d="M326.6,352.9c2.2,0,4,0,6.2,0c0,85.5,0,170.8,0,256.6c-4.2-1.5-6.7-3.5-6.7-8.2c0.1-81.1,0.1-162.2,0.1-243.4
	C326.2,356.4,326.4,354.7,326.6,352.9z"/>
<path class="st0" d="M412.5,602.4c0-83.7,0-166.4,0-249.1c6.1-1.5,6.7-1.2,6.7,4.6c0,78.5,0,157,0.1,235.4
	C419.3,598.1,417,600.2,412.5,602.4z"/>
<path class="st0" d="M422.3,594.8c0-80.9,0-161.1,0-241.2c5-0.7,6.8,1,6.7,5.9c-0.2,75.3-0.2,150.5-0.1,225.8
	C429,590.1,426.7,592.5,422.3,594.8z"/>
<path class="st0" d="M313.4,594.9c-4.7-2.3-6.6-5.2-6.6-10.1c0.1-75,0.1-149.9,0-224.9c0-4.6,1.2-6.9,6.6-6.5
	C313.4,433.6,313.4,513.9,313.4,594.9z"/>
<path class="st0" d="M403.2,352.9c2,0,3.8,0,6.2,0c0,1.9,0,3.5,0,5.1c0,80.3,0,160.6,0.1,240.8c0,4.7-0.6,8.6-6.3,10.3
	C403.2,523.7,403.2,438.5,403.2,352.9z"/>
<path class="st0" d="M323.1,353.4c0,82.8,0,165.6,0,248.9c-4.3-1.6-6.5-3.7-6.5-8.5c0.1-78.6,0.1-157.2,0-235.8
	C316.7,352.4,316.9,352.2,323.1,353.4z"/>
<path class="st0" d="M254.2,354.3c5.9-0.6,7.1,1.7,7.1,6.3c-0.1,58.3-0.1,116.6-0.1,174.9c0,1.8,0,3.6,0,6.5
	c-4.7-3.2-7.1-6.3-7.1-11.3c0.1-25.8,0.1-51.6,0.1-77.5c0-31.2,0-62.3,0-93.5C254.2,358.1,254.2,356.3,254.2,354.3z"/>
<path class="st0" d="M484.4,529.8c-0.2-2.6-0.4-4.2-0.4-5.8c0-55.1,0-110.3,0-165.4c0-1.3-0.4-2.9,0.2-3.9c0.7-1.1,2.2-2.3,3.4-2.3
	c1.1,0,3.1,1.4,3.3,2.4c0.4,3.1,0.2,6.3,0.2,9.5c0,50.5-0.1,101,0.1,151.4C491.3,521.4,489.5,525.6,484.4,529.8z"/>
<path class="st0" d="M494.5,352.8c4.7-1.6,6.5-0.1,6.4,4.8c-0.1,48.8,0,97.6-0.3,146.4c0,4.2-2.8,8.4-4.3,12.6
	c-0.6-0.2-1.2-0.3-1.9-0.5C494.5,461.7,494.5,407.4,494.5,352.8z"/>
<path class="st0" d="M241.6,517.9c-4.5-5.6-6.8-10.3-6.8-16.7c0.3-47.4,0.1-94.9,0.1-142.3c0-6,0.1-6.1,6.6-5.6
	C241.6,407.7,241.6,462.1,241.6,517.9z"/>
<path class="st0" d="M474.6,542.8c0-3,0-4.8,0-6.6c0-58.8,0.1-117.6-0.1-176.4c0-4.6,1.2-6.9,6.5-6.5c0.1,1.5,0.3,3.1,0.3,4.7
	c0,57.3-0.1,114.6,0.1,171.9C481.4,535,479.4,538.6,474.6,542.8z"/>
<path class="st0" d="M251.2,530.7c-4.6-4.5-6.6-8.4-6.6-14c0.2-52.8,0.1-105.6,0.1-158.3c0-1.6,0.2-3.3,0.3-5.1c2.2,0,4.1,0,6.2,0
	C251.2,412.3,251.2,471,251.2,530.7z"/>
<path class="st0" d="M504,352.8c2.2,0.4,4,0.8,5.9,1.2c0.1,1.2,0.3,2.4,0.3,3.5c0,43.1-0.1,86.3,0.1,129.4c0,5.8-2.7,9.9-6.3,15.5
	C504,451.8,504,402.7,504,352.8z"/>
<path class="st0" d="M231.9,501.7c-4.5-5-6.5-9.4-6.5-15.2c0.2-42,0.2-84,0-126c0-4.5,1-7.1,6.4-6.3
	C231.9,403,231.9,451.8,231.9,501.7z"/>
<path d="M138,461.8c-1.3,0.4-2.7,0.7-4,1.1c1-1.4,1.9-2.7,2.9-4.1c-0.1,1.2-2.2,3.2,1.2,3.1L138,461.8z"/>
<path class="st0" d="M138.1,462c-3.4,0.1-1.3-1.9-1.2-3.1C137.3,459.9,137.7,460.9,138.1,462z"/>
<path d="M515.1,580.9c-0.3,0.7-0.7,1.3-1,2c-1.4-0.6-2.8-1.3-4.2-1.9c0.4-1.5,0.8-2.9,1.2-4.4c0.7,1.1,1.3,2.2,2,3.3
	c0.4-0.2,0.9-0.3,1.3-0.5c-0.4-1.6-0.7-3.1-1.1-4.7c1.3,0.6,2.6,1.2,3.9,1.8C513.2,576.6,515.2,579.2,515.1,580.9z"/>
<path class="st0" d="M508.1,577.9c-1,0-2.1,0-3.1,0c0.3-1.4,0.7-2.7,1-4.1C506.7,575.2,507.4,576.6,508.1,577.9z"/>
<path class="st0" d="M515.1,580.9c0.1-1.7-1.9-4.4,2-4.3c0,1.5,0,3,0,4.5C516.4,581,515.7,580.9,515.1,580.9L515.1,580.9z"/>
<path d="M514.9,580.8c0.7,0.1,1.4,0.2,2.1,0.3c0,0.2,0,0.4,0,0.6C516.4,581.4,515.6,581.1,514.9,580.8z"/>
<path d="M510.8,575.8c0.1,0.4,0.2,0.7,0.3,1.1c-0.3-0.4-0.7-0.7-1-1.1C510.3,575.9,510.6,575.9,510.8,575.8z"/>
<path d="M514,582.8c0,0.5,0,1.1,0,1.7C514,583.9,514,583.3,514,582.8z"/>
<path d="M552.9,484.8c0.4,0.4,0.7,0.7,1.1,1.1C553.7,485.6,553.3,485.2,552.9,484.8z"/>
<path d="M553.3,487.6l-0.3,0.1l0.2-0.2L553.3,487.6z"/>
<path d="M181,485.9c0.7-0.4,1.4-0.7,2.1-1.1C182.4,485.2,181.7,485.5,181,485.9z"/>
<path d="M182.9,487.9l0.2-0.1C183.1,487.8,182.8,487.9,182.9,487.9C182.8,487.9,182.9,487.9,182.9,487.9z"/>
<path class="st0" d="M183,478.8c1,0.4,2.1,0.7,3.1,1.1c-1.4-0.2-2.7-0.4-4.1-0.6h0.1C182.3,479.2,182.6,479,183,478.8z"/>
<path class="st0" d="M186,479.8c0,1.1,0,2.1,0.1,3.2C186,481.9,186,480.8,186,479.8z"/>
<path class="st0" d="M181.9,479.3c0.6,0.5,1.3,1.1,2.6,2.2c-1.6,0-2.4,0-3.1,0C181.7,480.8,181.9,480.1,181.9,479.3
	C182,479.3,181.9,479.3,181.9,479.3z"/>
<path class="st0" d="M546.9,482.8c1,0.7,2.1,1.4,3.1,2.1c-0.5,1.3-1.1,2.5-1.6,3.8c-0.3,0.1-0.6,0.2-0.9,0.2
	C547.3,486.9,547.1,484.9,546.9,482.8z"/>
<path class="st0" d="M553,479.8c0.5,0.4,0.9,0.9,1.4,1.3c-1.2,0.3-2.3,0.5-3.5,0.8C551.6,481.2,552.3,480.5,553,479.8z"/>
<path class="st0" d="M553.1,478.8c0,0.4,0,0.7,0,1.1c-1-0.1-2.1-0.3-3.1-0.4c0.1-0.4,0.2-0.8,0.3-1.3
	C551.1,478.4,552.1,478.6,553.1,478.8z"/>
<path class="st0" d="M550.1,481.9c-0.7-0.4-1.4-0.7-2.2-1.1C548.6,481.2,549.4,481.6,550.1,481.9z"/>
<path class="st0" d="M551.1,482.9c-0.4-0.4-0.8-0.7-1.1-1.1c0.4,0,0.8,0,1.1,0C551.1,482.2,551.1,482.6,551.1,482.9z"/>
</g>
</svg>
