<?xml version="1.0" encoding="utf-8"?>
<!-- Generator: Adobe Illustrator 22.1.0, SVG Export Plug-In . SVG Version: 6.00 Build 0)  -->
<svg version="1.1" id="Layer_1" xmlns="http://www.w3.org/2000/svg" xmlns:xlink="http://www.w3.org/1999/xlink" x="0px" y="0px"
	 viewBox="0 0 105 111.2" style="enable-background:new 0 0 105 111.2;" xml:space="preserve">
<title>Artboard 6</title>
<path d="M93.4,29.5c0-13.8-11.1-25-24.9-25.1c-4,0-8,1-11.6,2.8c-16.6-9.7-38-4.1-47.7,12.6S5,57.8,21.7,67.5s38,4.1,47.7-12.6
	c0.1-0.1,0.2-0.3,0.2-0.4C83,53.8,93.4,42.9,93.4,29.5z M39.3,66.2c-15.9,0-28.8-12.9-28.8-28.7S23.4,8.7,39.3,8.7
	c4.1,0,8.2,0.9,12,2.6c-10.1,9.4-10.7,25.2-1.4,35.3c3.5,3.7,8,6.3,12.9,7.4C57.4,61.6,48.6,66.2,39.3,66.2z M68.3,48.5
	c-10.5,0-18.9-8.5-18.9-18.9s8.5-18.9,18.9-18.9s18.9,8.5,18.9,18.9C87.2,40,78.8,48.4,68.3,48.5z"/>
<path d="M68.3,14.7c-1.7,0-3.1,1.4-3.1,3.1s1.4,3.1,3.1,3.1c4.8,0,8.7,3.9,8.7,8.7c0,1.7,1.4,3.1,3.1,3.1s3.1-1.4,3.1-3.1
	c0,0,0,0,0,0C83.2,21.3,76.5,14.7,68.3,14.7z"/>
<path d="M80.4,100.1c-11.2,0-20.2-9.1-20.2-20.2s9.1-20.2,20.2-20.2s20.2,9.1,20.2,20.2c0,0,0,0,0,0C100.6,91,91.6,100.1,80.4,100.1
	z M80.4,65.7c-7.8,0-14.1,6.3-14.1,14.1s6.3,14.1,14.1,14.1s14.1-6.3,14.1-14.1l0,0C94.5,72,88.2,65.7,80.4,65.7z"/>
<path d="M44.2,102.5c-0.4,0-0.8,0-1.2-0.1c-6.5-0.7-11.2-6.4-10.5-12.9c0.7-6.5,6.4-11.2,12.9-10.5c6.5,0.7,11.2,6.4,10.5,12.9l0,0
	C55.3,97.9,50.2,102.5,44.2,102.5z M44.2,85.1c-3.1,0-5.6,2.5-5.6,5.6c0,3.1,2.5,5.6,5.6,5.6c2.9,0,5.3-2.2,5.6-5.1l0,0
	c0.3-3.1-1.9-5.8-5-6.2L44.2,85.1z"/>
</svg>
