<svg xmlns="http://www.w3.org/2000/svg" xmlns:xlink="http://www.w3.org/1999/xlink" version="1.1" x="0px" y="0px" viewBox="0 0 500 625" enable-background="new 0 0 500 500" xml:space="preserve"><g><g><g><path d="M41.9,129.7c20.4,15,40.9,30,61.3,45.1c32.5,23.9,65.1,47.8,97.6,71.7c7.4,5.5,14.8,10.9,22.2,16.4c0-8.6,0-17.3,0-25.9     c-20.4,15-40.9,30-61.3,45.1c-32.5,23.9-65.1,47.8-97.6,71.7c-7.4,5.5-14.8,10.9-22.2,16.4c-6.5,4.8-9.8,13-5.4,20.5     c3.8,6.4,14,10.2,20.5,5.4c20.4-15,40.9-30,61.3-45.1c32.5-23.9,65.1-47.8,97.6-71.7c7.4-5.5,14.8-10.9,22.2-16.4     c9.6-7,9.6-18.9,0-25.9c-20.4-15-40.9-30-61.3-45.1c-32.5-23.9-65.1-47.8-97.6-71.7c-7.4-5.5-14.8-10.9-22.2-16.4     c-6.5-4.8-16.7-1.1-20.5,5.4C32,116.8,35.3,124.9,41.9,129.7L41.9,129.7z"/></g></g><g><g><path d="M231.2,398.6c24.7,0,49.5,0,74.2,0c39.3,0,78.5,0,117.8,0c9.1,0,18.2,0,27.2,0c7.8,0,15.4-6.9,15-15     c-0.4-8.1-6.6-15-15-15c-24.7,0-49.5,0-74.2,0c-39.3,0-78.5,0-117.8,0c-9.1,0-18.2,0-27.2,0c-7.8,0-15.4,6.9-15,15     C216.5,391.7,222.8,398.6,231.2,398.6L231.2,398.6z"/></g></g></g><text x="0" y="515" fill="#000000" font-size="5px" font-weight="bold" font-family="'Helvetica Neue', Helvetica, Arial-Unicode, Arial, Sans-serif">Created by Neha Tyagi</text><text x="0" y="520" fill="#000000" font-size="5px" font-weight="bold" font-family="'Helvetica Neue', Helvetica, Arial-Unicode, Arial, Sans-serif">from the Noun Project</text></svg>