<?xml version="1.0" encoding="utf-8"?>
<!-- Generator: Adobe Illustrator 22.1.0, SVG Export Plug-In . SVG Version: 6.00 Build 0)  -->
<svg version="1.1" id="Layer_1" xmlns="http://www.w3.org/2000/svg" xmlns:xlink="http://www.w3.org/1999/xlink" x="0px" y="0px"
	 viewBox="0 0 106.6 81.4" style="enable-background:new 0 0 106.6 81.4;" xml:space="preserve">
<style type="text/css">
	.st0{fill:#FFFFFF;}
</style>
<g>
	<rect x="27.4" y="15.3" class="st0" width="2" height="2"/>
	<rect x="31.4" y="15.3" class="st0" width="2" height="2"/>
	<rect x="35.4" y="15.3" class="st0" width="2" height="2"/>
	<polygon class="st0" points="27.4,37.3 39.4,37.3 39.4,35.3 29.4,35.3 29.4,25.3 55.4,25.3 55.4,29.3 57.4,29.3 57.4,23.3 
		27.4,23.3 	"/>
	<rect x="41.4" y="27.3" class="st0" width="2" height="2"/>
	<rect x="41.4" y="31.3" class="st0" width="2" height="2"/>
	<rect x="43.4" y="29.3" class="st0" width="2" height="2"/>
	<rect x="39.4" y="29.3" class="st0" width="2" height="2"/>
	<rect x="49.4" y="27.3" class="st0" width="2" height="2"/>
	<rect x="49.4" y="31.3" class="st0" width="2" height="2"/>
	<rect x="51.4" y="29.3" class="st0" width="2" height="2"/>
	<rect x="47.4" y="29.3" class="st0" width="2" height="2"/>
	<rect x="33.4" y="27.3" class="st0" width="2" height="2"/>
	<rect x="33.4" y="31.3" class="st0" width="2" height="2"/>
	<rect x="35.4" y="29.3" class="st0" width="2" height="2"/>
	<rect x="31.4" y="29.3" class="st0" width="2" height="2"/>
	<path class="st0" d="M85.4,11.3h-62v46h4c0,0.3,0,0.7,0,1c0,4.3,1.8,8.3,5,11.2c2.8,2.5,6.3,3.8,10,3.8c0.6,0,1.1,0,1.7-0.1
		C51,72.4,56.6,66.9,57.3,60c0.1-0.9,0.1-1.8,0-2.7h28V11.3z M83.4,13.3v6h-58v-6H83.4z M43.9,71.2c-3.8,0.4-7.4-0.7-10.2-3.2
		c-0.2-0.2-0.5-0.5-0.7-0.7h18.7C49.8,69.4,47,70.9,43.9,71.2z M40.9,56.9c-0.9-0.5-1.5-1.5-1.5-2.6v-2c0-0.8,0.4-1.6,1-2.2
		c0.6-0.6,1.4-0.9,2.3-0.8c1.5,0.1,2.7,1.5,2.7,3.2v1.8c0,1.1-0.6,2-1.5,2.6l-0.5,0.3v2.9l4.8,1.4c1.3,0.4,2.2,1.5,2.2,2.9v1h-16v-1
		c0-1.3,0.9-2.5,2.2-2.9l4.8-1.4v-2.9L40.9,56.9z M57.1,55.3c-0.5-2.6-1.7-5-3.5-7c-2.6-2.9-6.3-4.7-10.2-5v-6h14v-4h8v-3
		c0-2.8,2.2-5,5-5c2.8,0,5,2.2,5,5v5H62l-0.3,0.4c-1.4,1.9-2.2,4.2-2.2,6.6c0,6.1,4.9,11,11,11c6.1,0,11-4.9,11-11
		c0-2.4-0.8-4.7-2.2-6.6l-0.3-0.4h-1.5v-5c0-3.9-3.1-7-7-7s-7,3.1-7,7v1h-8v4h-14v10h1c3.7,0,7.2,1.6,9.7,4.3
		c2.5,2.8,3.6,6.4,3.2,10.2c-0.3,2.6-1.3,4.9-2.9,6.8v-2.3c0-2.2-1.5-4.2-3.6-4.8l-3.4-1v-0.3c1.2-0.9,2-2.4,2-4v-1.8
		c0-2.7-2-5-4.6-5.2c-1.4-0.1-2.8,0.3-3.8,1.3c-1,0.9-1.6,2.3-1.6,3.7v2c0,1.6,0.8,3,2,4v0.3l-3.4,1c-2.1,0.6-3.6,2.6-3.6,4.8v2.3
		c-1.9-2.3-3-5.2-3-8.3c0-6.1,4.3-11.4,10.2-12.7l-0.4-2c-5.8,1.3-10.3,6-11.5,11.7h-2.3v-34h58v34H57.1z M77.9,37.3
		c1,1.5,1.5,3.2,1.5,5c0,5-4,9-9,9s-9-4-9-9c0-1.8,0.5-3.5,1.5-5H77.9z"/>
	<path class="st0" d="M69.4,45.1v4.2h2v-4.2c1.2-0.4,2-1.5,2-2.8c0-1.7-1.3-3-3-3s-3,1.3-3,3C67.4,43.6,68.3,44.7,69.4,45.1z
		 M70.4,41.3c0.6,0,1,0.4,1,1c0,0.6-0.4,1-1,1c-0.6,0-1-0.4-1-1S69.9,41.3,70.4,41.3z"/>
</g>
</svg>
