<?xml version="1.0" encoding="utf-8"?>
<!-- Generator: Adobe Illustrator 22.1.0, SVG Export Plug-In . SVG Version: 6.00 Build 0)  -->
<svg version="1.1" xmlns="http://www.w3.org/2000/svg" xmlns:xlink="http://www.w3.org/1999/xlink" x="0px" y="0px"
	 viewBox="0 0 98.5 95.6" style="enable-background:new 0 0 98.5 95.6;" xml:space="preserve">
<style type="text/css">
	.st0{fill:#666666;}
	.st1{fill:none;stroke:#FFFFFF;stroke-width:0.2522;stroke-miterlimit:3.8636;}
	.st2{fill:#A4A4A4;}
	.st3{fill:none;stroke:#A4A4A4;stroke-width:3;}
</style>
<g>
	<path class="st0" d="M12.2,30.6c0.1,0.1,0-22.1,0-22.1h72.6c0,0,0,11.9,0,22.1L12.2,30.6z"/>
	<path class="st0" d="M85,30.9l-72.8,0l0-0.3l-0.2,0c0.1-0.6,0-16.1,0-22l0-0.3H85V30.9z M12.4,30.4l72.1,0V8.8H12.4
		C12.5,24.8,12.5,29.2,12.4,30.4z"/>
</g>
<path class="st2" d="M16.4,63l32-30.3L80,63c-2.9,5.5-7,10.1-11.2,14L48.5,56.2L27.3,77.5c-4.8-4-8.3-8.7-11.1-14.6L16.4,63z
	 M48.5,56.5l20.2,20.7l0.2,0.2l0.2-0.2c4.9-4.5,8.7-9.2,11.3-14l0.1-0.2L48.5,32.3L16.3,62.7l-0.6-0.3L16,63
	c2.9,6.1,6.5,10.8,11.2,14.7l0.2,0.1L48.5,56.5z M48.4,33l31.3,30.1c-2.5,4.7-6.2,9.2-10.9,13.6L48.5,55.8L27.3,77.2
	c-4.5-3.8-7.9-8.2-10.7-14.1L48.4,33z M31,66.6c3.5,0,6.3-2.7,6.3-6.1s-2.8-6.1-6.3-6.1c-3.5,0-6.3,2.7-6.3,6.1S27.5,66.6,31,66.6z
	 M37.6,60.5c0-3.5-3-6.4-6.6-6.4c-3.6,0-6.6,2.9-6.6,6.4c0,3.5,3,6.4,6.6,6.4C34.6,66.8,37.6,64,37.6,60.5z M37.1,60.5
	c0,3.2-2.7,5.8-6.1,5.8c-3.4,0-6.1-2.6-6.1-5.8c0-3.2,2.7-5.9,6.1-5.9C34.4,54.6,37.1,57.3,37.1,60.5z M31,60.5 M48.4,51.9
	c3.5,0,6.3-2.7,6.3-6.1c0-3.4-2.8-6.1-6.3-6.1c-3.5,0-6.3,2.7-6.3,6.1C42.1,49.2,44.9,51.9,48.4,51.9z M55,45.8c0-3.5-3-6.4-6.6-6.4
	s-6.6,2.9-6.6,6.4c0,3.5,3,6.4,6.6,6.4S55,49.3,55,45.8z M54.5,45.8c0,3.2-2.7,5.9-6.1,5.9s-6.1-2.6-6.1-5.9c0-3.2,2.7-5.9,6.1-5.9
	S54.5,42.6,54.5,45.8z M48.4,45.8 M64.9,66.6c3.5,0,6.3-2.7,6.3-6.1s-2.8-6.1-6.3-6.1c-3.5,0-6.3,2.7-6.3,6.1S61.4,66.6,64.9,66.6z
	 M71.4,60.5c0-3.5-3-6.4-6.6-6.4c-3.6,0-6.6,2.9-6.6,6.4c0,3.5,3,6.4,6.6,6.4C68.5,66.8,71.4,64,71.4,60.5z M70.9,60.5
	c0,3.2-2.7,5.8-6.1,5.8c-3.4,0-6.1-2.6-6.1-5.8c0-3.2,2.7-5.9,6.1-5.9C68.2,54.6,70.9,57.3,70.9,60.5z"/>
<g>
	<path class="st3" d="M47,90.4C47,90.4,47,90.4,47,90.4c-4.2-0.1-35.4-15.5-35.4-45.7c0-0.5,0-36.2,0-36.2V8.1h73.6v36.8
		c-0.2,14.6-8.4,25.3-15.1,31.7C60.6,85.6,49.6,90.4,47,90.4z M12.7,9.1c0,4.3,0,35.2,0,35.7C12.6,74.3,43,89.2,47,89.4c0,0,0,0,0,0
		c2.2,0,13-4.5,22.4-13.5c6.6-6.3,14.6-16.8,14.8-31V9.1H12.7z"/>
</g>
</svg>
