<?xml version="1.0" encoding="utf-8"?>
<!-- Generator: Adobe Illustrator 22.1.0, SVG Export Plug-In . SVG Version: 6.00 Build 0)  -->
<svg version="1.1" id="Layer_1" xmlns="http://www.w3.org/2000/svg" xmlns:xlink="http://www.w3.org/1999/xlink" x="0px" y="0px"
	 viewBox="0 0 485.3 573.7" style="enable-background:new 0 0 485.3 573.7;" xml:space="preserve">
<style type="text/css">
	.st0{fill:#EEEEEE;}
	.st1{fill:#EFEFEF;}
	.st2{fill:#F1F1F1;}
	.st3{fill:#F2F2F2;}
	.st4{fill:#F5F5F5;}
	.st5{fill:#F7F7F7;}
</style>
<g>
	<g>
		<path class="st0" d="M124.1,258.4c0,22.3-18.1,40.4-40.4,40.4s-40.4-18.1-40.4-40.4S61.4,218,83.7,218S124.1,236.1,124.1,258.4"/>
		<path class="st1" d="M169.4,172.2c0,18.7-15.1,33.8-33.8,33.8c-18.7,0-33.8-15.1-33.8-33.8s15.1-33.8,33.8-33.8
			C154.2,138.4,169.4,153.5,169.4,172.2"/>
		<path class="st2" d="M224.5,118.7c0,14.6-11.8,26.4-26.4,26.4s-26.4-11.8-26.4-26.4s11.8-26.4,26.4-26.4
			C212.7,92.3,224.5,104.1,224.5,118.7"/>
		<path class="st3" d="M260.7,92.6c0,6.9-5.6,12.5-12.5,12.5s-12.5-5.6-12.5-12.5s5.6-12.5,12.5-12.5
			C255.1,80.1,260.7,85.7,260.7,92.6"/>
		<path class="st3" d="M184.7,470.7c0,6.9-5.6,12.5-12.5,12.5s-12.5-5.6-12.5-12.5s5.6-12.5,12.5-12.5S184.7,463.8,184.7,470.7"/>
		<path class="st0" d="M109.5,373.7c0,23.7-19.2,42.9-42.9,42.9c-23.7,0-42.9-19.2-42.9-42.9c0-23.7,19.2-42.9,42.9-42.9
			C90.3,330.8,109.5,350,109.5,373.7"/>
		<path class="st2" d="M143.7,449.7c0,12.4-10.1,22.5-22.5,22.5s-22.5-10.1-22.5-22.5s10.1-22.5,22.5-22.5
			C133.7,427.2,143.7,437.3,143.7,449.7"/>
		<path class="st4" d="M251.1,49.5c0,3.6-2.9,6.4-6.4,6.4c-3.6,0-6.4-2.9-6.4-6.4s2.9-6.4,6.4-6.4C248.2,43.1,251.1,46,251.1,49.5"
			/>
		<path class="st4" d="M296.1,47c0,8.2-6.6,14.8-14.8,14.8s-14.8-6.6-14.8-14.8s6.6-14.8,14.8-14.8C289.4,32.2,296.1,38.8,296.1,47"
			/>
		<path class="st4" d="M360.1,56c0,12.1-9.8,21.8-21.8,21.8c-12.1,0-21.9-9.8-21.9-21.8c0-12.1,9.8-21.9,21.9-21.9
			C350.3,34.2,360.1,44,360.1,56"/>
		<path class="st5" d="M447.4,106.4c0,21.3-17.2,38.5-38.5,38.5s-38.5-17.2-38.5-38.5s17.2-38.5,38.5-38.5
			C430.1,67.9,447.4,85.1,447.4,106.4"/>
		<path class="st5" d="M473.3,213.4c0,22.8-18.5,41.3-41.3,41.3s-41.3-18.5-41.3-41.3s18.5-41.3,41.3-41.3
			C454.8,172.1,473.3,190.6,473.3,213.4"/>
		<path class="st4" d="M440.3,316.8c0,20.3-16.5,36.8-36.8,36.8s-36.8-16.5-36.8-36.8s16.5-36.8,36.8-36.8S440.3,296.5,440.3,316.8"
			/>
		<path class="st4" d="M389.3,399.4c0,18.4-14.9,33.4-33.4,33.4s-33.4-14.9-33.4-33.4c0-18.4,14.9-33.4,33.4-33.4
			S389.3,381,389.3,399.4"/>
		<path class="st4" d="M321.4,467.4c0,16.2-13.2,29.4-29.4,29.4s-29.4-13.2-29.4-29.4c0-16.2,13.2-29.4,29.4-29.4
			S321.4,451.2,321.4,467.4"/>
		<path class="st5" d="M238.7,503.1c0,8.3-6.8,15.1-15.1,15.1c-8.3,0-15.1-6.8-15.1-15.1c0-8.3,6.8-15.1,15.1-15.1
			C232,488,238.7,494.8,238.7,503.1"/>
		<path class="st5" d="M192.9,517.2c0,5.1-4.1,9.2-9.2,9.2s-9.2-4.1-9.2-9.2c0-5.1,4.1-9.2,9.2-9.2S192.9,512.2,192.9,517.2"/>
		<path class="st5" d="M152.9,517.3c0,2.8-2.3,5.1-5.1,5.1c-2.8,0-5.1-2.3-5.1-5.1s2.3-5.1,5.1-5.1
			C150.6,512.1,152.9,514.4,152.9,517.3"/>
	</g>
</g>
</svg>
