<?xml version="1.0" encoding="utf-8"?>
<!-- Generator: Adobe Illustrator 16.0.0, SVG Export Plug-In . SVG Version: 6.00 Build 0)  -->
<!DOCTYPE svg PUBLIC "-//W3C//DTD SVG 1.1//EN" "http://www.w3.org/Graphics/SVG/1.1/DTD/svg11.dtd">
<svg version="1.1" id="Layer_1" xmlns="http://www.w3.org/2000/svg" xmlns:xlink="http://www.w3.org/1999/xlink" x="0px" y="0px"
	 width="580px" height="534px" viewBox="0 0 580 534" enable-background="new 0 0 580 534" xml:space="preserve">
<path fill-rule="evenodd" clip-rule="evenodd" fill="#F04B24" d="M55.431,398.257c-20.756,0.446-42.536-16.556-42.443-42.882
	c0.082-23.278,18.445-42.624,42.964-42.437c26.437,0.202,42.645,22.153,42.48,42.961C98.247,379.209,78.816,398.791,55.431,398.257z
	"/>
<path fill-rule="evenodd" clip-rule="evenodd" fill="#555658" d="M470.356,469.972c0.489,1.07,0.941,2.138,1.451,3.171
	c3.449,7.007,6.908,14.006,10.36,21.013c0.462,0.944,0.978,1.876,1.305,2.861c1.11,3.396-0.502,7.075-3.662,8.521
	c-3.271,1.493-6.946,0.383-8.831-2.693c-0.485-0.796-0.886-1.644-1.299-2.479c-4.043-8.139-8.083-16.29-12.128-24.425
	c-0.671-1.359-1.385-2.689-2.037-3.955c-2.725-0.592-7.858-0.65-11.199-0.146c-0.822,0.858-0.555,1.962-0.56,2.979
	c-0.048,7.106-0.059,14.222-0.083,21.336c-0.006,1.049,0.049,2.104-0.073,3.144c-0.44,3.747-3.524,6.508-7.089,6.416
	c-3.646-0.095-6.51-2.894-6.801-6.691c-0.07-0.928-0.039-1.863-0.039-2.794c0-21.459,0-42.912,0-64.365
	c0-0.817,0.023-1.631,0.013-2.451c-0.037-4.122,3.516-7.164,7.141-7.035c3.962,0.142,7.929,0.026,11.894,0.026
	c4.314,0,8.627-0.026,12.942,0.014c8.228,0.075,14.866,3.507,20.054,9.772c6.276,7.57,6.874,18.493,1.562,26.786
	c-2.57,4.011-5.931,7.162-10.247,9.258c-0.729,0.361-1.444,0.752-2.155,1.138C470.777,469.421,470.725,469.539,470.356,469.972z
	 M444.169,456.533c2.556,0.391,15.036,0.534,16.897,0.169c2.573-0.51,4.859-1.599,6.729-3.472c1.81-1.824,2.707-3.999,2.639-6.609
	c-0.091-3.2-1.728-5.469-4.157-7.302c-2.531-1.904-5.483-2.49-8.559-2.534c-3.726-0.052-7.453-0.027-11.177-0.002
	c-0.782,0.009-1.564,0.194-2.282,0.29C443.684,439.902,443.625,452.981,444.169,456.533z"/>
<path fill-rule="evenodd" clip-rule="evenodd" fill="#F89C68" d="M418.615,236.925c-20.671,0.633-40.545-16.178-40.751-40.335
	c-0.18-21.035,15.875-40.685,40.349-40.857c27.096-0.191,41.067,22.621,41.044,40.705
	C459.23,216.801,442.354,237.396,418.615,236.925z"/>
<path fill-rule="evenodd" clip-rule="evenodd" fill="#F04B24" d="M72.794,281.186c-21.896,0.377-40.279-17.838-40.268-40.101
	c0.012-22.874,19.15-40.247,40.28-40.171c21.224,0.076,39.885,17.609,40.047,39.944C113.011,262.587,95.083,281.434,72.794,281.186z
	"/>
<path fill-rule="evenodd" clip-rule="evenodd" fill="#F89C68" d="M395.763,52.42c19.803-0.639,37.746,16.5,37.688,37.839
	c-0.052,18.794-15.041,37.785-37.944,37.741c-20.628-0.039-37.706-16.257-37.71-37.988C357.792,67.527,376.674,51.706,395.763,52.42
	z"/>
<path fill-rule="evenodd" clip-rule="evenodd" fill="#F89C68" d="M426.492,299.093c0.451,18.521-14.89,36.311-36.121,36.386
	c-19.821,0.07-36.59-15.611-36.486-36.564c0.104-21.23,17.457-36.195,36.424-36.16C410.526,262.792,426.831,279.631,426.492,299.093
	z"/>
<path fill-rule="evenodd" clip-rule="evenodd" fill="#555658" d="M529.273,437.051c-0.37,0.684-0.572,0.879-0.576,1.074
	c-0.062,5.247-0.119,10.493-0.151,15.736c-0.005,0.803,0.119,1.606,0.169,2.304c1.168,1.161,2.512,0.856,3.751,0.859
	c6.648,0.032,13.293,0.016,19.944,0.02c1.049,0,2.099,0.026,3.146,0.081c3.904,0.212,6.594,3.604,6.56,7.299
	c-0.029,3.861-2.818,6.74-6.828,7.021c-0.931,0.061-1.867,0.029-2.796,0.029c-6.65,0.002-13.302-0.003-19.946,0.013
	c-1.144,0.003-2.279,0.107-3.241,0.158c-1.043,1.247-0.747,2.466-0.753,3.589c-0.031,7.005-0.01,13.998-0.018,20.996
	c-0.001,1.048,0.03,2.104-0.075,3.147c-0.353,3.522-2.505,6.583-7.116,6.813c-3.934,0.201-6.976-2.68-7.423-6.862
	c-0.089-0.804-0.064-1.632-0.064-2.443c-0.004-21.7-0.007-43.391,0.005-65.086c0.001-1.048-0.016-2.112,0.159-3.139
	c0.558-3.286,2.657-5.438,5.936-6.074c1.019-0.197,2.09-0.211,3.134-0.211c11.778-0.013,23.562-0.022,35.337,0.017
	c1.386,0.007,2.818,0.139,4.129,0.536c3.072,0.927,4.916,3.646,4.917,6.896c0.001,3.233-1.869,5.859-5.055,6.749
	c-1.321,0.371-2.753,0.451-4.139,0.453c-8.398,0.047-16.797,0.024-25.195,0.024C531.812,437.051,530.537,437.051,529.273,437.051z"
	/>
<path fill-rule="evenodd" clip-rule="evenodd" fill="#F1562D" d="M124.377,188.989c-17.597,0.531-33.627-14.055-33.87-33.204
	c-0.215-16.934,12.942-33.954,33.685-33.931c20.785,0.023,33.604,16.99,33.627,33.506
	C157.846,174.296,142.077,189.322,124.377,188.989z"/>
<path fill-rule="evenodd" clip-rule="evenodd" fill="#555658" d="M367.709,437.118c-1.621-0.086-2.76-0.191-3.906-0.191
	c-4.078-0.022-8.16,0-12.243-0.021c-1.048-0.002-2.11,0.021-3.138-0.142c-3.461-0.544-5.948-3.589-5.951-7.162
	c-0.002-3.613,2.459-6.485,6.068-6.984c1.149-0.166,2.324-0.167,3.488-0.167c15.393-0.009,30.784-0.01,46.176,0
	c1.28,0,2.578,0,3.836,0.204c3.583,0.577,5.818,3.451,5.74,7.222c-0.07,3.553-2.371,6.341-5.769,6.881
	c-1.025,0.169-2.089,0.146-3.138,0.148c-4.08,0.021-8.163,0.009-12.244,0.011c-1.158,0-2.314,0-3.601,0
	c-0.226,0.84-0.495,1.47-0.55,2.115c-0.086,1.046-0.036,2.097-0.036,3.146c-0.001,17.962,0,35.915-0.003,53.877
	c0,1.163,0.051,2.339-0.065,3.496c-0.371,3.76-3.228,6.426-6.954,6.565c-3.809,0.146-6.721-2.189-7.35-6.031
	c-0.225-1.369-0.217-2.787-0.219-4.183c-0.013-17.96-0.008-35.916-0.015-53.871C367.836,440.529,367.759,439.026,367.709,437.118z"
	/>
<path fill-rule="evenodd" clip-rule="evenodd" fill="#F69057" d="M310.229,380.872c-0.269-17.489,14.484-32.845,33.116-32.726
	c17.211,0.11,32.746,14.21,32.651,33.263c-0.086,17.359-14.159,32.901-33.188,32.715
	C323.172,413.933,309.631,397.571,310.229,380.872z"/>
<path fill-rule="evenodd" clip-rule="evenodd" fill="#F68A4D" d="M279.457,420.049c16.568-0.484,29.06,13.867,28.908,28.874
	c-0.158,15.745-13.143,28.627-28.758,28.696c-15.887,0.071-28.943-13.389-28.889-29.021
	C250.771,433.668,263.452,419.529,279.457,420.049z"/>
<path fill-rule="evenodd" clip-rule="evenodd" fill="#F26A41" d="M186.367,128.407c-13.589,0.42-26.18-11.094-26.15-26.128
	c0.03-14.872,12.568-26.182,26.299-26.055c13.795,0.127,25.834,11.416,25.926,25.964
	C212.535,116.784,200.543,128.678,186.367,128.407z"/>
<path fill-rule="evenodd" clip-rule="evenodd" fill="#F26A41" d="M87.71,431.063c-0.025-11.193,8.643-22.196,22.289-22.26
	c11.823-0.055,22.215,9.118,22.225,22.298c0.009,12.552-9.698,22.323-22.256,22.238C95.574,453.242,87.594,441.54,87.71,431.063z"/>
<path fill-rule="evenodd" clip-rule="evenodd" fill="#F68A4D" d="M346.883,40.096c0.401,10.035-7.609,21.67-21.675,21.489
	c-13.845-0.179-21.351-11.29-21.281-21.494c0.087-12.846,10.733-21.601,21.778-21.496C337.44,18.708,347.283,28.728,346.883,40.096z
	"/>
<path fill-rule="evenodd" clip-rule="evenodd" fill="#F89C68" d="M226.043,484.063c0.038,8.438-6.098,14.505-14.402,14.689
	c-7.364,0.164-14.695-6.19-14.506-14.683c0.175-7.91,6.4-14.564,14.25-14.542C219.609,469.553,226.244,475.839,226.043,484.063z"/>
<path fill-rule="evenodd" clip-rule="evenodd" fill="#F57E3A" d="M268.716,16.596c8.251-0.037,14.674,6.263,14.724,14.442
	c0.05,8.183-6.313,14.63-14.495,14.686c-8.155,0.055-14.641-6.291-14.781-14.462C254.026,23.221,260.564,16.633,268.716,16.596z"/>
<path fill-rule="evenodd" clip-rule="evenodd" fill="#F26A41" d="M172.944,451.897c0.031,6.915-5.558,12.449-12.505,12.385
	c-6.723-0.062-12.125-5.474-12.193-12.212c-0.068-6.812,5.724-12.594,12.5-12.479C167.389,439.704,172.914,445.278,172.944,451.897z
	"/>
<path fill-rule="evenodd" clip-rule="evenodd" fill="#F26A41" d="M236.333,88.778c-6.688,0.129-12.262-5.199-12.459-11.907
	c-0.207-7.035,5.097-12.693,12.001-12.806c6.883-0.111,12.547,5.465,12.546,12.352C248.419,83.082,242.974,88.65,236.333,88.778z"/>
<path fill-rule="evenodd" clip-rule="evenodd" fill="#F89C68" d="M163.47,497.882c0.096-4.774,3.848-8.437,8.611-8.407
	c4.889,0.03,8.653,4.021,8.519,9.03c-0.126,4.707-4.047,8.686-8.659,8.438C166.293,506.64,163.287,502.656,163.47,497.882z"/>
<path fill-rule="evenodd" clip-rule="evenodd" fill="#F57E3A" d="M238.795,33.463c0.083,3.484-2.826,6.427-6.316,6.39
	c-3.276-0.034-6.098-2.792-6.193-6.054c-0.101-3.449,2.818-6.364,6.345-6.335C235.996,27.49,238.715,30.137,238.795,33.463z"/>
<path fill-rule="evenodd" clip-rule="evenodd" fill="#F89C68" d="M136.415,502.66c-2.736,0.034-4.539-1.704-4.58-4.417
	c-0.04-2.615,1.9-4.716,4.373-4.734c2.311-0.018,4.617,2.226,4.711,4.581C141.019,500.596,139.016,502.628,136.415,502.66z"/>
</svg>
