<?xml version="1.0" encoding="utf-8"?>
<!-- Generator: Adobe Illustrator 16.0.0, SVG Export Plug-In . SVG Version: 6.00 Build 0)  -->
<!DOCTYPE svg PUBLIC "-//W3C//DTD SVG 1.1//EN" "http://www.w3.org/Graphics/SVG/1.1/DTD/svg11.dtd">
<svg version="1.1" id="Layer_1" xmlns="http://www.w3.org/2000/svg" xmlns:xlink="http://www.w3.org/1999/xlink" x="0px" y="0px"
	 width="203px" height="227px" viewBox="0 0 203 227" enable-background="new 0 0 203 227" xml:space="preserve">
<path fill-rule="evenodd" clip-rule="evenodd" fill="#FFFFFF" d="M25.997,215.002c0.249,0.152,0.498,0.305,0.747,0.456
	c-0.247-0.153-0.494-0.307-0.741-0.461L25.997,215.002z"/>
<path fill-rule="evenodd" clip-rule="evenodd" fill="#FFFFFF" d="M112.766,24.465c0.347,0.224,0.68,0.628,1.036,0.646
	c10.467,0.551,20.194,3.721,29.642,8.066c8.328,3.833,15.381,9.354,21.457,16.093c2.153,2.39,4.272,5.031,5.094,8.347
	c0.078,0.322,0.393,0.627,0.374,0.927c-0.085,1.449-3.53,3.804-5.001,3.365c-1.074-0.321-2.143-0.751-3.132-1.29
	c-5.42-2.95-11.309-4.65-17.233-6.05c-3.601-0.851-7.301-1.716-11.095-1.622c-0.553,0.014-1.102-0.246-1.661-0.307
	c-0.636-0.068-1.273-0.056-1.916-0.081c0.365,0.439,0.668,0.957,1.107,1.307c5.32,4.255,10.101,9.047,14.364,14.366
	c1.292,1.605,2.547,3.262,4.018,4.695c2.811,2.746,4.597,6.244,7.039,9.252c0.777,0.961,1.186,2.218,1.933,3.208
	c0.93,1.222,1.572,1.263,2.451,0.034c2.225-3.118,4.738-6.087,5.752-9.917c0.234-0.872,0.457-1.751,0.757-2.599
	c0.483-1.351,2.635-2.688,3.992-2.538c1.902,0.212,3.677,2.035,3.559,3.946c-0.275,4.374-1.567,8.478-3.972,12.142
	c-1.82,2.77-3.745,5.495-6.269,7.706c-0.821,0.72-0.787,1.229-0.213,2.301c1.812,3.394,3.351,6.94,4.917,10.462
	c2.437,5.493,3.776,11.351,5.233,17.135c0.905,3.595,1.32,7.347,1.851,11.05c0.637,4.487,0.431,8.939,0.595,13.405
	c0.01,0.286,0.218,0.566,0.331,0.848c0.264-0.218,0.583-0.396,0.777-0.664c3.979-5.458,5.671-11.652,6.624-18.29
	c0.78-5.424,0.335-10.798,0.573-16.187c0.165-3.784-0.761-7.444-1.211-11.156c-0.718-5.927-2.933-11.361-4.447-17.022
	c-0.171-0.652-0.513-1.28-0.57-1.936c-0.212-2.422,1.139-4.275,3.512-4.653c0.706-0.111,1.719,0.089,2.202,0.551
	c1.136,1.099,2.39,2.299,2.974,3.715c1.583,3.861,3.017,7.801,4.178,11.809c0.846,2.911,1.164,5.975,1.713,8.972
	c0.386,2.108,1.024,4.211,1.087,6.329c0.173,5.64,0.205,11.29,0.059,16.929c-0.06,2.232-1.042,4.438-1.068,6.665
	c-0.041,3.029-1.034,5.819-1.754,8.64c-1.17,4.581-2.61,9.134-4.64,13.423c-3.304,6.987-7.061,13.723-11.767,19.907
	c-3.113,4.096-6.389,8.061-10.207,11.488c-4.836,4.345-9.909,8.388-15.479,11.833c-4.283,2.648-8.696,4.99-13.341,6.834
	c-4.189,1.667-8.52,3.068-12.901,4.152c-4.614,1.14-9.354,1.722-14.091,2.33c-4.738,0.61-9.435,0.588-14.107,0.392
	c-3.242-0.136-6.537-0.663-9.794-1.122c-5.986-0.855-11.749-2.449-17.418-4.366c-5.701-1.929-11.199-4.409-16.238-7.783
	c-3.498-2.342-7.259-4.383-10.405-7.129c-5.43-4.739-10.866-9.44-15.18-15.422c-4.156-5.764-8.082-11.611-11.25-17.94
	c-3.255-6.5-5.621-13.351-7.107-20.482c-0.624-2.994-0.974-6.041-1.486-9.046c-1.156-6.787-0.459-13.58-0.51-20.36
	c-0.021-3.014,0.753-6.06,1.39-9.045c1.108-5.196,2.73-10.245,4.493-15.259c1.784-5.076,4.418-9.724,6.952-14.417
	c1.457-2.699,3.15-5.297,4.977-7.76c2.111-2.842,4.425-5.545,6.77-8.201c1.606-1.82,3.445-3.435,5.13-5.188
	c5.758-5.998,12.592-10.608,19.75-14.656c4.298-2.431,8.933-4.316,13.66-5.929c5.256-1.796,10.71-2.722,16.058-4.095
	c0.983-0.251,2.081-0.014,3.116-0.117c0.361-0.037,0.689-0.417,1.035-0.64C97.475,24.465,105.12,24.465,112.766,24.465z
	 M20.316,92.587c0.231-0.464,0.462-0.93,0.693-1.394c2.334-2.911,4.513-5.964,7.035-8.701c5.295-5.747,11.006-11.068,17.367-15.643
	c2.125-1.528,2.42-2.153,1.783-4.614c-0.673-2.592-0.869-5.149,0.132-7.72c0.139-0.36-0.096-0.868-0.158-1.308
	c-0.356,0.248-0.761,0.446-1.064,0.749c-4.967,4.94-10.022,9.787-14.158,15.504c-4.292,5.925-7.936,12.171-10.272,19.127
	c-0.285,0.85-0.443,1.74-0.659,2.61c-0.233,0.463-0.466,0.926-0.697,1.388c-0.106,0.179-0.211,0.358-0.316,0.537
	C20.106,92.946,20.21,92.765,20.316,92.587z M104.429,36.974c0.178,0.111,0.357,0.222,0.541,0.332
	c-0.184-0.109-0.368-0.217-0.548-0.325c-1.522-2.857-3.89-3.987-7.071-3.468c-0.224,0.036-0.476-0.049-0.683,0.019
	c-0.346,0.111-0.666,0.301-0.999,0.458c0.236,0.239,0.434,0.614,0.714,0.698C99.059,35.477,101.747,36.22,104.429,36.974z
	 M48.817,185.731c0.173,0.106,0.346,0.215,0.517,0.322c-0.173-0.105-0.345-0.212-0.519-0.318c0.085-7.553-0.607-15.148,1.337-22.6
	c0.294-1.121-0.247-1.908-1.378-2.447c-1.743-0.827-3.392-1.856-5.075-2.808c-6.704-3.792-12.518-8.762-18.167-13.919
	c-1.936-1.766-3.466-3.972-5.295-5.866c-0.638-0.661-0.444-2.088-1.842-2.031c0.17,0.856,0.43,1.708,0.493,2.575
	c0.422,5.773,2.806,10.949,5.07,16.121c1.965,4.491,4.491,8.712,7.527,12.586c2.744,3.5,5.472,7.017,8.356,10.4
	C42.454,180.806,45.623,183.297,48.817,185.731z M118.321,123.112c0.001,0,0.004,0,0.006,0c0-4.285-0.02-8.571,0.015-12.857
	c0.008-1.092-0.185-1.723-1.508-1.692c-2.512,0.057-4.997-0.289-7.495-0.533c-3.312-0.326-6.506-1.107-9.645-1.921
	c-5.567-1.445-10.987-3.468-16.446-5.318c-0.65-0.221-0.803-0.335-1.163,0.402c-2.446,5.012-5.21,9.882-7.433,14.988
	c-2.484,5.701-4.59,11.576-6.703,17.432c-2.49,6.902-4.653,13.915-6.425,21.042c-0.311,1.252-0.035,2.018,1.074,2.51
	c1.661,0.737,3.323,1.478,5.019,2.134c3.062,1.185,6.075,2.647,9.254,3.343c2.343,0.513,4.542,1.368,6.839,1.944
	c2.405,0.601,4.83,1.137,7.271,1.588c4.788,0.887,9.541,2.005,14.442,2.19c0.559,0.021,1.11,0.225,1.675,0.263
	c2.283,0.148,4.562,0.298,6.852,0.355c0.277,0.007,0.774-0.495,0.826-0.816c0.531-3.127,1.188-6.252,1.405-9.405
	c0.275-3.979,1.198-7.908,1.304-11.84c0.123-4.601,0.774-9.147,0.833-13.735C118.36,129.83,118.321,126.469,118.321,123.112z
	 M167.678,145.504c-0.256-3.287,0.216-7.276-0.553-11.306c-0.486-2.523-0.69-5.148-1.269-7.69c-0.982-4.284-2.231-8.48-3.656-12.648
	c-1.401-4.081-2.781-8.127-4.812-11.951c-0.623-1.168-1.209-1.125-2.175-0.667c-2.26,1.065-4.491,2.208-6.827,3.087
	c-2.307,0.871-4.697,1.558-7.096,2.142c-4.063,0.992-8.162,1.827-12.346,2.177c-0.308,0.027-0.762,0.51-0.818,0.834
	c-0.125,0.792-0.034,1.613-0.064,2.423c-0.317,7.58,0.432,15.166-0.567,22.768c-0.607,4.627-0.079,9.38-0.762,14.07
	c-0.491,3.382-0.518,6.833-0.778,10.249c-0.024,0.328-0.232,0.639-0.289,0.97c-0.364,2.348-0.812,4.69-1.028,7.053
	c-0.184,1.964-0.059,2.091,1.765,2.016c3.999-0.168,8.082-0.02,11.956-0.839c3.843-0.812,7.739-1.41,11.564-2.483
	c5.52-1.55,10.678-3.793,15.696-6.441c0.604-0.318,1.118-1.101,1.334-1.776c0.382-1.17,0.646-2.418,0.691-3.646
	C167.746,151.304,167.678,148.758,167.678,145.504z M51.908,151.456c0.117-0.134,0.298-0.26,0.367-0.431
	c0.256-0.629,0.523-1.261,0.703-1.913c0.869-3.15,1.594-6.342,2.59-9.45c1.343-4.194,2.923-8.314,4.337-12.486
	c2.26-6.67,5.173-13.066,8.141-19.438c1.543-3.312,3.266-6.539,4.892-9.811c0.832-1.673,0.731-2.094-0.704-3.025
	c-2.285-1.484-4.684-2.817-6.839-4.464c-2.454-1.871-4.819-3.9-6.991-6.09c-1.507-1.521-2.627-3.424-3.906-5.169
	c-1.073-1.468-2.123-2.952-3.184-4.43c-1.462,1.065-2.924,2.13-4.383,3.198c-0.64,0.471-1.356,0.872-1.897,1.441
	c-3.886,4.091-8.18,7.766-11.69,12.249c-3.667,4.683-7.247,9.39-9.805,14.778c-1.167,2.456-2.208,4.984-3.119,7.546
	c-1.054,2.959-0.726,5.665,0.725,8.138c0.866,1.476,1.668,2.999,2.649,4.397c1.699,2.421,3.323,4.944,5.331,7.095
	c2.467,2.644,5.333,4.914,7.963,7.411c4.169,3.954,9.164,6.747,13.852,9.967C51.22,151.162,51.553,151.281,51.908,151.456z
	 M58.553,177.367c0,1.937,0.095,3.333-0.019,4.71c-0.243,2.919,0.65,5.623,1.437,8.35c0.528,1.84,1.625,3.328,3.261,4.274
	c5.838,3.374,12.236,5.373,18.732,6.921c3.386,0.806,6.895,1.271,10.396,1.683c2.748,0.327,5.469,0.269,8.192,0.499
	c1.006,0.086,1.857-0.176,2.423-1.012c1.265-1.88,2.83-3.656,3.646-5.725c1.984-5.032,3.63-10.199,5.368-15.328
	c0.181-0.524,0.056-1.148,0.081-1.726c0.048-0.883-0.393-1.214-1.239-1.221c-2.742-0.021-5.449-0.079-8.186-0.626
	c-3.77-0.753-7.705-0.73-11.448-1.576c-5.703-1.286-11.339-2.917-16.936-4.62c-4.209-1.281-8.321-2.891-12.463-4.388
	c-0.749-0.272-1.438-0.706-2.155-1.066c-0.143,0.843-0.121,1.764-0.46,2.521C57.88,171.938,58.954,174.975,58.553,177.367z
	 M114.445,98.843c0.923,0,1.846,0.01,2.769,0c0.667-0.01,1.068-0.089,0.649-0.974c-0.279-0.577-0.188-1.338-0.227-2.02
	c-0.239-4.104-0.47-8.209-0.707-12.315c-0.01-0.229,0.029-0.477-0.041-0.688c-1.204-3.792-1.247-7.791-1.869-11.669
	c-0.513-3.226-1.427-6.403-1.641-9.694c-0.062-1.063-0.677-2.128-1.189-3.117c-0.287-0.559-0.913-0.7-1.401-0.097
	c-1.654,2.031-3.231,4.124-4.936,6.104c-3.727,4.312-7.1,8.879-10.16,13.671c-2.688,4.206-5.185,8.535-7.924,12.703
	c-0.706,1.073-0.316,1.483,0.473,1.751c4.048,1.384,8.074,2.87,12.199,3.968C105.018,97.686,109.632,98.904,114.445,98.843z
	 M117.177,202.381c1.872-0.512,4.485-1.201,7.082-1.934c8.213-2.324,15.773-5.983,23.095-10.396
	c6.111-3.685,10.538-8.598,13.745-14.799c0.536-1.046,0.876-2.199,1.306-3.301c-1.058,0.331-2.121,0.657-3.173,0.996
	c-3.867,1.234-7.654,2.871-11.611,3.589c-3.435,0.623-6.845,1.484-10.391,1.744c-1.885,0.138-3.824,0.358-5.742,0.523
	c-2.032,0.175-4.055,0.544-6.09,0.648c-2.855,0.146-2.862,0.077-3.552,2.89c-0.03,0.111-0.013,0.233-0.038,0.345
	c-1.354,6.32-3.302,12.434-6.214,18.221C114.887,202.321,114.981,202.455,117.177,202.381z M101.443,54.104
	c-5.392,0.619-10.287,1.92-15.148,3.397c-8.889,2.702-17.301,6.482-25.422,10.953c-1.507,0.828-1.586,1.056-0.67,2.409
	c3.23,4.783,7.048,9.03,11.739,12.415c2.09,1.507,4.347,2.788,6.528,4.172c1.357-2.234,2.717-4.466,4.072-6.697
	c0.06-0.1,0.131-0.193,0.193-0.292c2.3-3.652,4.34-7.508,6.981-10.897c2.659-3.418,4.742-7.281,7.964-10.285
	c1.411-1.316,2.52-2.954,3.744-4.463c0.127-0.155,0.174-0.438,0.136-0.64C101.537,54.069,101.257,54.013,101.443,54.104z
	 M129.806,98.832c0.019,0.075,0.028,0.152,0.041,0.226c2.89-0.536,5.806-0.936,8.654-1.642c3.938-0.98,7.875-2.04,11.474-4.029
	c2.081-1.152,2.185-1.453,0.919-3.334c-2.918-4.339-5.733-8.754-9.202-12.697c-1.058-1.199-1.939-2.552-3.047-3.696
	c-2.98-3.073-5.974-6.142-9.094-9.071c-1.817-1.708-3.877-3.169-5.859-4.696c-0.264-0.201-0.735-0.138-1.104-0.198
	c-0.014,0.342-0.104,0.705-0.021,1.021c0.96,3.604,1.824,7.22,2.051,10.966c0.121,1.923,0.137,3.956,0.8,5.708
	c0.703,1.842,0.373,3.625,0.574,5.426c0.205,1.802,0.513,3.591,0.674,5.395c0.279,3.184,0.454,6.376,0.762,9.555
	c0.04,0.384,0.593,0.84,1.008,1.029C128.821,98.969,129.347,98.832,129.806,98.832z M56.472,56.854
	c0.01,2.48,0.096,2.521,1.847,1.727c5.164-2.345,10.276-4.814,15.52-6.97c6.155-2.531,12.554-4.337,19.091-5.625
	c1.208-0.238,2.384-0.617,3.575-0.93c-1.106-0.392-2.193-0.857-3.321-1.155c-1.954-0.514-3.933-0.934-5.906-1.375
	c-1.097-0.246-2.196-0.625-3.302-0.646c-4.04-0.079-8.097-0.231-12.121,0.021c-4.101,0.258-8.049,1.04-10.843,4.711
	C58.546,49.858,56.722,53.262,56.472,56.854z M145.868,45.073c-0.116-0.147-0.201-0.351-0.35-0.42
	c-2.957-1.403-5.692-3.271-8.869-4.204c-0.512-0.151-1.117-0.486-1.547-0.342c-1.922,0.64-3.8,1.415-5.687,2.169
	c-0.181,0.073-0.274,0.354-0.41,0.538c0.249,0.135,0.504,0.391,0.757,0.39c4.227-0.014,8.368,0.714,12.511,1.43
	c0.99,0.173,1.968,0.465,2.955,0.658C145.415,45.328,145.642,45.155,145.868,45.073z M122.281,35.941
	c-0.166-0.111-0.323-0.288-0.505-0.322c-2.528-0.461-5.055-0.907-7.592-1.32c-0.088-0.014-0.396,0.446-0.339,0.561
	c0.681,1.428,1.349,2.87,2.165,4.219c0.197,0.32,1.092,0.582,1.389,0.406c1.555-0.911,3.016-1.965,4.498-2.99
	C122.073,36.375,122.156,36.129,122.281,35.941z"/>
<g>
	<path fill-rule="evenodd" clip-rule="evenodd" d="M48.233,42.734c-1.364-0.071-3.081,0.327-3.984-0.354
		c-0.856-0.645-0.915-2.405-1.218-3.701c-0.947-4.008-1.854-8.027-2.763-12.042c-0.635-2.811-1.231-5.625-1.895-8.427
		c-0.107-0.452-0.449-0.849-0.684-1.269c-0.115,0.4-0.244,0.801-0.342,1.206c-0.664,2.798-1.288,5.61-1.982,8.399
		c-1.087,4.369-2.226,8.725-3.333,13.086c-0.046,0.188,0.008,0.399-0.036,0.588c-0.595,2.434-0.596,2.439-3.024,2.451
		c-1.77,0.007-3.538,0.017-5.308-0.006c-1.326-0.014-2.001-0.49-2.233-1.724c-1.134-6.136-2.709-12.167-4.203-18.219
		c-1.103-4.464-1.907-9.008-3.365-13.388c-0.118-0.36-0.128-0.762-0.152-1.147c-0.083-1.363,0.043-1.519,1.416-1.551
		c1.474-0.036,2.95-0.017,4.425-0.007c2.368,0.013,2.445,0,2.948,2.194c0.686,2.991,1.235,6.012,1.851,9.019
		c0.693,3.38,1.397,6.758,2.1,10.136c0.078,0.377,0.175,0.748,0.257,1.121c0.114,0.508,0.227,1.023,0.339,1.533
		c0.195-0.535,0.426-1.056,0.577-1.602c0.854-3.047,1.728-6.084,2.519-9.141c1.055-4.083,2.071-8.179,3.027-12.284
		c0.176-0.752,0.512-0.947,1.167-0.977c2.628-0.112,5.254-0.271,7.884-0.316c0.324-0.006,0.906,0.522,0.949,0.86
		c0.712,5.442,2.648,10.606,3.643,15.984c0.4,2.153,1.117,4.252,1.699,6.372c0.049,0.176,0.175,0.332,0.264,0.498
		c0.117-0.197,0.293-0.382,0.341-0.596c1.582-7.207,3.182-14.412,4.698-21.63c0.176-0.843,0.429-1.14,1.27-1.191
		c2.031-0.123,4.103,0.41,6.123-0.322c0.108-0.039,0.875,0.93,0.771,1.234c-1.552,4.456-2.421,9.079-3.536,13.643
		c-1.322,5.396-2.648,10.792-3.993,16.182c-0.351,1.392-0.757,2.769-1.178,4.139c-0.262,0.857-0.882,1.226-1.79,1.196
		c-1.078-0.037-2.16-0.007-3.242-0.007C48.236,42.692,48.235,42.712,48.233,42.734z"/>
	<path fill-rule="evenodd" clip-rule="evenodd" d="M63.988,24.404c-0.606-3.989,0.576-7.455,2.296-10.764
		c2.206-4.235,5.855-6.587,10.43-7.559c1.502-0.322,3.075-0.674,4.579-0.549c3.241,0.259,6.537,0.598,9.422,2.297
		c3.868,2.285,6.124,5.719,7.198,10.103c1.454,5.952,1.239,11.732-1.627,17.178c-2.064,3.92-5.287,6.599-9.779,7.602
		c-3.76,0.84-7.548,1.089-11.201-0.102c-4.466-1.46-8.187-4.058-9.853-8.726C64.351,30.789,63.333,27.631,63.988,24.404z
		 M83.012,11.982c-5.714-0.022-8.008,1.582-9.198,5.671c-0.558,1.914-0.92,3.94-0.999,5.931c-0.078,1.91,0.25,3.845,0.537,5.749
		c0.919,6.088,4.292,8.193,9.98,7.295c2.323-0.365,4.312-1.861,5.146-4.58c0.613-2.002,0.399-4.087,0.958-5.962
		c0.506-1.703-0.048-3.082-0.097-4.615c-0.056-1.777-0.463-3.398-1.095-5.048C87.027,13.259,84.642,12.058,83.012,11.982z"/>
	<path fill-rule="evenodd" clip-rule="evenodd" d="M163.045,24.736c0-5.402,0.014-10.803-0.01-16.204
		c-0.004-1.895,0.027-1.92,1.982-1.913c4.814,0.021,9.658-0.318,14.426,0.106c6.463,0.576,11.484,3.977,13.137,10.801
		c0.494,2.049,1.119,4.144,1.109,6.216c-0.02,5.098-1.008,10.094-4.398,14.066c-1.855,2.178-4.539,3.638-7.447,4.225
		c-5.898,1.188-11.883,0.455-17.832,0.634c-0.797,0.024-0.967-0.475-0.963-1.138c0.006-1.179-0.004-2.355-0.004-3.535
		C163.045,33.576,163.045,29.157,163.045,24.736z M171.334,24.421c0,1.963-0.023,3.929,0.002,5.894
		c0.021,1.655,0.104,3.309,0.156,4.966c1.836,0.098,3.688,0.41,5.494,0.254c2.943-0.253,5.475-1.472,6.625-4.43
		c0.947-2.442,1.322-5.035,1.236-7.655c-0.045-1.237-0.289-2.485-0.582-3.696c-0.977-4.078-3.086-6.044-7.676-6.571
		c-1.352-0.155-2.746,0.005-4.121-0.035c-0.918-0.026-1.152,0.415-1.15,1.254C171.35,17.742,171.336,21.081,171.334,24.421z"/>
	<path fill-rule="evenodd" clip-rule="evenodd" d="M102.842,24.675c0-5.501-0.014-11.005,0.008-16.505
		c0.01-1.473,0.049-1.531,1.453-1.531c5.895-0.02,11.799-0.21,17.678,0.085c3.887,0.193,7.832,2.825,8.736,7.191
		c0.402,1.923,0.238,3.769-0.328,5.296c-0.709,1.91-2.119,3.693-4.186,4.683c-0.926,0.448-0.918,0.83,0.047,1.166
		c1.941,0.677,2.469,2.416,3.094,3.994c0.449,1.139,0.605,2.444,0.637,3.679c0.07,2.929,0.617,5.732,1.668,8.464
		c0.4,1.038,0.09,1.445-1.045,1.465c-2.158,0.037-4.326-0.013-6.484,0.022c-0.869,0.01-1.104-0.36-1.242-1.199
		c-0.447-2.657-1.098-5.269-1.189-7.991c-0.039-1.226-0.434-2.451-0.758-3.652c-0.395-1.494-1.82-1.709-2.963-1.833
		c-1.943-0.208-3.922-0.051-5.889-0.069c-0.816-0.006-0.953,0.479-0.951,1.14c0.01,3.536,0.004,7.071,0.002,10.608
		c0,0.69,0.09,1.395-0.045,2.057c-0.078,0.349-0.547,0.865-0.848,0.875c-2.16,0.076-4.326,0.076-6.48,0.004
		c-0.311-0.012-0.818-0.528-0.857-0.859c-0.119-0.967-0.057-1.959-0.057-2.939C102.842,34.108,102.842,29.392,102.842,24.675z
		 M110.982,16.961c0.047,0.009,0.102,0.014,0.15,0.019c0,1.074,0.029,2.148-0.01,3.222c-0.035,0.853,0.273,1.24,1.17,1.221
		c1.758-0.039,3.516,0.02,5.273-0.02c2.949-0.064,4.193-1.348,4.18-4.257c-0.018-2.529-1.289-3.857-3.867-3.981
		c-0.977-0.045-1.953-0.024-2.93-0.003c-1.164,0.022-2.324,0.08-3.484,0.127C111.301,14.51,111.141,15.739,110.982,16.961z"/>
	<path fill-rule="evenodd" clip-rule="evenodd" d="M135.896,24.33c0.002-5.706,0-11.41,0.004-17.115c0-0.615-0.053-0.896,0.92-0.763
		c1.918,0.257,3.93,0.302,5.844-0.006c1.174-0.188,1.387,0.222,1.5,1.045c0.088,0.677,0.023,1.374,0.023,2.064
		c0,8.063-0.004,16.127,0.002,24.191c0.006,1.79,0.037,1.822,1.732,1.832c3.734,0.021,7.473-0.015,11.213,0.014
		c2.098,0.014,2.373,0.283,2.385,2.351c0.01,1.462-0.09,2.925-0.137,4.388c-1.441,0.115-2.873,0.314-4.316,0.323
		c-5.801,0.039-11.602,0.029-17.402,0.009c-1.719-0.002-1.758-0.039-1.758-1.811C135.887,35.345,135.895,29.837,135.896,24.33z"/>
</g>
<g>
	<path fill-rule="evenodd" clip-rule="evenodd" d="M107.213,201.959c0.002-5.422,0-10.843,0.006-16.265
		c0.002-0.728-0.068-1.481,0.119-2.165c0.094-0.332,0.701-0.754,1.068-0.753c3.314,0.046,6.627,0.277,9.938,0.236
		c1.385-0.018,2.041,0.507,2.576,1.66c3.23,6.979,6.496,13.946,9.77,20.909c0.699,1.49,1.469,2.948,2.211,4.418
		c0.086,0.166,0.234,0.292,0.357,0.438c0.078-0.184,0.219-0.366,0.221-0.554c0.031-0.73,0.025-1.459,0.025-2.188
		c0.002-7.299,0.002-14.598,0.006-21.896c0-0.729-0.104-1.49,0.072-2.179c0.094-0.374,0.668-0.894,1.02-0.891
		c2.059,0.035,4.111,0.208,6.172,0.33c1.441,0.089,1.484,0.087,1.488,1.683c0.027,4.067,0.012,8.136,0.012,12.203
		c0,7.191,0.01,14.387-0.008,21.578c-0.008,2.511-0.217,2.723-2.598,2.75c-2.607,0.026-5.219-0.094-7.814,0.042
		c-1.609,0.083-2.438-0.518-3.078-1.947c-2.609-5.793-5.297-11.555-8.008-17.303c-1.395-2.96-2.902-5.861-4.352-8.792
		c-0.178-0.363-0.281-0.766-0.439-1.139c-0.102-0.223-0.248-0.427-0.377-0.643c-0.072,0.188-0.193,0.375-0.199,0.562
		c-0.023,0.835-0.016,1.672-0.016,2.502c0,8.135-0.01,16.265,0,24.4c0.002,2.509,0.059,2.332-2.422,2.32
		c-1.359-0.004-2.713,0.023-4.064-0.004c-1.627-0.031-1.67-0.049-1.674-1.8C107.203,213.635,107.213,207.796,107.213,201.959z"/>
	<path fill-rule="evenodd" clip-rule="evenodd" d="M35.232,202.106c0-5.42-0.001-10.84,0.001-16.259c0-0.729-0.099-1.488,0.07-2.179
		c0.096-0.394,0.688-0.998,0.98-0.956c6.006,0.83,12.04,0.062,18.05,0.391c1.003,0.057,2.026,0.325,2.974,0.672
		c4.416,1.635,7.232,6.688,6.043,11.176c-0.618,2.33-2.053,4.324-4.174,5.59c-0.764,0.453-0.557,0.661-0.11,1
		c0.568,0.434,1.174,0.83,1.802,1.172c3.451,1.855,4.345,5.156,4.342,8.595c-0.002,2.56-1.17,4.842-3.479,6.469
		c-3.398,2.404-7.045,3.648-11.225,3.53c-4.062-0.113-8.131-0.007-12.196-0.031c-3.546-0.021-3.054,0.443-3.07-3.219
		C35.215,212.74,35.232,207.423,35.232,202.106z M48.685,205.012c0,0.002,0,0.005,0,0.009c-1.249,0-2.5-0.042-3.745,0.03
		c-0.304,0.018-0.836,0.412-0.837,0.632c-0.014,2.588,0.054,5.171,0.101,7.759c1.941,0.108,3.881,0.222,5.822,0.32
		c0.416,0.024,0.832,0.014,1.249,0.002c3.446-0.067,4.924-1.674,4.611-5.004c-0.205-2.188-1.556-3.569-3.766-3.733
		C50.981,204.946,49.832,205.012,48.685,205.012z M48.294,197.588c0.001-0.031,0.004-0.064,0.007-0.098c0.932,0,1.867,0,2.801,0
		c0.104,0,0.208,0.004,0.311-0.005c1.585-0.127,3.059-1.603,3.234-3.147c0.299-2.609-0.849-3.731-3.685-4.312
		c-1.095-0.227-2.276-0.043-3.417-0.043c-3.519,0-3.547,0-3.508,3.355c0.016,1.316,0.18,2.635,0.279,3.953
		C45.641,197.387,46.967,197.487,48.294,197.588z"/>
	<path fill-rule="evenodd" clip-rule="evenodd" d="M85.868,182.871c1.719,0.211,3.438,0.42,5.157,0.628
		c0.591,1.511,1.239,2.995,1.759,4.526c2.348,6.936,4.507,13.938,7.041,20.797c1.308,3.531,2.589,7.062,3.683,10.663
		c0.395,1.306,0.186,1.739-1.004,1.774c-2.186,0.063-4.373,0.016-6.56,0.018c-0.682,0.002-1.062-0.17-1.28-0.971
		c-0.501-1.859-1.331-3.638-1.782-5.505c-0.312-1.303-0.98-1.667-2.178-1.658c-3.645,0.026-7.288,0.022-10.932,0.003
		c-1.084-0.008-1.67,0.395-1.99,1.504c-0.507,1.754-1.292,3.426-1.83,5.172c-0.334,1.093-0.955,1.486-2.033,1.469
		c-1.77-0.033-3.539,0.016-5.311-0.018c-1.314-0.029-1.814-0.743-1.393-2.015c0.478-1.446,1.025-2.866,1.557-4.293
		c2.16-5.815,4.34-11.628,6.488-17.448c1.729-4.679,3.405-9.371,5.154-14.04c0.195-0.521,0.525-0.89,1.42-0.639
		c1.264,0.358,2.664,0.218,4.007,0.288C85.85,183.041,85.858,182.958,85.868,182.871z M85.634,206.225c0,0.004,0,0.004,0,0.008
		c0.938,0,1.876,0.012,2.813-0.003c1.667-0.017,1.611-0.005,1.018-1.764c-0.615-1.82-1.11-3.686-1.668-5.527
		c-0.616-2.042-1.239-4.085-1.869-6.122c-0.08-0.26-0.219-0.498-0.328-0.745c-0.144,0.267-0.327,0.517-0.425,0.798
		c-1.405,4.032-2.819,8.062-4.179,12.11c-0.221,0.655,0.009,1.247,0.888,1.245C83.134,206.223,84.384,206.225,85.634,206.225z"/>
	<path fill-rule="evenodd" clip-rule="evenodd" d="M179.205,221.275c-2.604,0-5.211,0.009-7.814,0.002
		c-2.51-0.002-2.523-0.002-3.922-2.125c-3.488-5.302-6.959-10.618-10.451-15.92c-0.152-0.23-0.461-0.363-0.697-0.537
		c-0.027,0.281-0.109,0.571-0.068,0.844c0.107,0.697,0.395,1.387,0.398,2.08c0.039,4.375,0.039,8.752,0.014,13.128
		c-0.016,2.219-0.303,2.488-2.5,2.528c-1.562,0.029-3.125,0.044-4.688-0.004c-1.955-0.059-2.334-0.606-1.918-2.465
		c0.182-0.795,0.311-1.618,0.311-2.426c0.021-10.107,0.018-20.215,0.008-30.324c0-0.718,0.049-1.5-0.213-2.134
		c-0.375-0.901,0.186-0.833,0.674-0.842c1.455-0.028,2.918,0,4.375-0.025c0.826-0.015,1.732,0.109,2.451-0.195
		c1.127-0.476,1.213,0.279,1.484,0.93c0.037,0.089,0.02,0.204,0.018,0.31c-0.092,4.457-0.186,8.917-0.277,13.379
		c-0.004,0.169,0.016,0.34,0.025,0.511c0.264-0.089,0.635-0.101,0.768-0.281c2.404-3.316,4.758-6.667,7.168-9.979
		c0.908-1.246,1.893-2.438,2.895-3.609c0.906-1.062,1.92-1.38,3.463-1.159c2.119,0.303,4.332-0.046,6.508-0.106
		c0.238-0.003,0.646,0.021,0.684,0.134c0.096,0.274,0.141,0.685-0.002,0.909c-0.607,0.947-1.256,1.879-1.959,2.762
		c-2.561,3.212-5.125,6.426-7.742,9.591c-0.859,1.042-1.875,1.95-2.836,2.909c-0.514,0.513-0.582,0.939-0.102,1.599
		c4.346,5.956,8.643,11.953,12.979,17.921c0.225,0.312,0.641,0.484,0.969,0.723C179.205,220.025,179.205,220.65,179.205,221.275z"/>
</g>
</svg>
