<?xml version="1.0" encoding="utf-8"?>
<!-- Generator: Adobe Illustrator 22.1.0, SVG Export Plug-In . SVG Version: 6.00 Build 0)  -->
<svg version="1.1" id="Layer_1" xmlns="http://www.w3.org/2000/svg" xmlns:xlink="http://www.w3.org/1999/xlink" x="0px" y="0px"
	 viewBox="0 0 179 179" style="enable-background:new 0 0 179 179;" xml:space="preserve">
<style type="text/css">
	.st0{fill:#FFFFFF;}
</style>
<path class="st0" d="M109,45H71c-5.5,0-10,4.5-10,10v70c0,5.5,4.5,10,10,10h38c5.5,0,10-4.5,10-10V55C119,49.5,114.5,45,109,45z
	 M65,61h50v54H65V61z M71,49h38c3.3,0,6,2.7,6,6v2H65v-2C65,51.7,67.7,49,71,49z M109,131H71c-3.3,0-6-2.7-6-6v-6h50v6
	C115,128.3,112.3,131,109,131z M92,124.6c0,0.1,0,0.3,0,0.4c0,0.5-0.2,1-0.6,1.4S90.5,127,90,127c-0.3,0-0.5,0-0.8-0.2
	c-0.2-0.1-0.5-0.2-0.6-0.4c-0.2-0.2-0.3-0.4-0.4-0.6c-0.2-0.3-0.2-0.5-0.2-0.8c0-0.1,0-0.3,0-0.4s0.1-0.3,0.1-0.4s0.1-0.2,0.2-0.3
	c0.1-0.1,0.1-0.2,0.2-0.3c0.1-0.1,0.2-0.2,0.3-0.2c0.1-0.1,0.2-0.1,0.3-0.2c0.1,0,0.2-0.1,0.4-0.1c0.6-0.1,1.3,0.1,1.8,0.5
	c0.1,0.1,0.2,0.2,0.2,0.3c0.1,0.1,0.1,0.2,0.2,0.3C91.8,124.3,91.9,124.5,92,124.6z"/>
</svg>
