<?xml version="1.0" encoding="utf-8"?>
<!-- Generator: Adobe Illustrator 22.1.0, SVG Export Plug-In . SVG Version: 6.00 Build 0)  -->
<svg version="1.1" id="Layer_1" xmlns="http://www.w3.org/2000/svg" xmlns:xlink="http://www.w3.org/1999/xlink" x="0px" y="0px"
	 viewBox="0 0 319.6 231.4" style="enable-background:new 0 0 319.6 231.4;" xml:space="preserve">
<style type="text/css">
	.st0{fill:#FFFFFF;}
</style>
<path class="st0" d="M205.1,96.7c-0.6-2.7-2.9-12.1-6.5-15.7l-0.3-0.3c-3.9-3.9-8.3-8.3-19.2-9.3c-0.8-0.1-1.6-0.1-2.4-0.1
	c-10,0-15.6,5.9-19.7,11.7c-2.1,2.9-3.5,7-5,11.4c-1.5,4.3-3,8.8-5.3,11.8c-4.7,6.4-13.2,7.6-17.9,7.8c-0.3,0-0.6,0-0.9,0
	c-5.7,0-12.7-1.9-18.6-5.1c-5-2.7-10.3-9.2-10.4-9.3l-2.3-2.7l-0.4,3.5c0,0.5-1.2,11.1-0.6,18.7c0.9,11.4,6.8,23.5,15.2,31.6
	c10.1,9.6,23.9,14.3,42.4,14.3c27.9,0,40.4-20.1,45.1-27.7c5.1-8.2,6.2-18,6.4-20.9l17.5-11.1L205.1,96.7z M201.8,114.7v0.8
	c0,0.1-0.5,11.3-6,20.2c-4.5,7.2-16.4,26.3-42.6,26.3c-17.7,0-30.8-4.4-40.2-13.4c-7.8-7.5-13.4-19.1-14.2-29.7
	c-0.4-4.7,0-10.9,0.3-14.7c2.2,2.3,5.6,5.5,8.9,7.4c6.3,3.4,13.8,5.5,20,5.5c0.3,0,0.6,0,1,0c5.2-0.2,14.8-1.6,20.2-9
	c2.5-3.4,4.1-8.1,5.7-12.6c1.4-4.1,2.8-8,4.6-10.6c3.9-5.4,8.6-10.4,17.2-10.4c0.7,0,1.4,0,2.2,0.1c9.8,0.9,13.6,4.7,17.3,8.4
	l0.3,0.3c2.9,2.9,5.2,11.7,5.8,14.9l0.1,0.7l13.7,6.8L201.8,114.7z"/>
<path class="st0" d="M185.2,86.1c-4.9,0-8.9,4-8.9,8.9s4,8.9,8.9,8.9s8.9-4,8.9-8.9S190.1,86.1,185.2,86.1z M185.2,100.8
	c-3.2,0-5.9-2.6-5.9-5.9c0-3.3,2.6-5.9,5.9-5.9s5.9,2.6,5.9,5.9S188.5,100.8,185.2,100.8z"/>
</svg>
