<?xml version="1.0" encoding="utf-8"?>
<!-- Generator: Adobe Illustrator 22.0.1, SVG Export Plug-In . SVG Version: 6.00 Build 0)  -->
<svg version="1.1" id="Layer_1" xmlns="http://www.w3.org/2000/svg" xmlns:xlink="http://www.w3.org/1999/xlink" x="0px" y="0px"
	 viewBox="0 0 68.3 33.8" style="enable-background:new 0 0 68.3 33.8;" xml:space="preserve">
<style type="text/css">
	.st0{fill:none;}
	.st1{fill-rule:evenodd;clip-rule:evenodd;fill:none;}
	.st2{fill:#77BC1F;}
</style>
<rect x="-94" y="-332.2" class="st0" width="612" height="792"/>
<rect x="-58" y="-296.2" class="st1" width="540" height="720"/>
<g>
	<g>
		<path class="st2" d="M3.8,31l-1.4,2.1h-2V0.3h4.1v11.1c0.4-0.5,1.1-1,2.2-1.5c1.1-0.4,2.1-0.7,3.1-0.7c3.1,0,5.7,1.1,7.7,3.3
			c2,2.2,2.9,4.9,2.9,8.2c0,3.8-1,6.9-2.9,9.1c-2,2.2-4.6,3.3-8,3.3c-1.1,0-2.2-0.2-3.2-0.6S4.3,31.6,3.8,31z M4.4,14.5v13.3
			c0,0.2,0.5,0.6,1.5,1.1s1.8,0.8,2.3,0.8c2.8,0,4.8-0.7,6-2c1.2-1.3,1.8-3.6,1.8-6.7c0-2.6-0.7-4.6-2.1-6.1
			c-1.4-1.5-3.3-2.2-5.7-2.2c-0.5,0-1.2,0.2-2.1,0.6C5.2,13.8,4.7,14.2,4.4,14.5z"/>
		<path class="st2" d="M37.8,30c-1.6,2-4.1,3.1-7.5,3.1c-1.8,0-3.4-0.7-4.7-2c-1.3-1.3-2-2.9-2-4.9c0-2.3,1-4.3,3.1-5.9
			c2-1.6,4.6-2.4,7.8-2.4c0.9,0,1.8,0.2,2.9,0.6c0-3.7-1.7-5.6-5-5.6c-2.5,0-4.5,0.7-5.9,2.1l-1.7-3.4c0.8-0.6,1.8-1.2,3.2-1.6
			c1.4-0.5,2.7-0.7,3.9-0.7c3.3,0,5.8,0.8,7.3,2.3c1.5,1.5,2.3,3.9,2.3,7.2V27c0,2,0.6,3.4,1.8,4v2c-1.7,0-2.9-0.2-3.7-0.7
			C38.7,31.9,38.2,31.1,37.8,30z M37.4,21.4c-1.3-0.3-2.2-0.4-2.7-0.4c-2.1,0-3.7,0.5-5,1.6c-1.3,1.1-2,2.3-2,3.8
			c0,2.4,1.4,3.6,4.2,3.6c2.1,0,3.9-1,5.5-2.9V21.4z"/>
		<path class="st2" d="M67.3,21.6H50.7c0,2.7,0.7,4.8,2.2,6.2c1.3,1.3,3,1.9,5,1.9c2.3,0,4.3-0.7,5.8-2l1.7,2.9
			c-0.6,0.6-1.6,1.2-2.9,1.6c-1.6,0.6-3.5,0.9-5.5,0.9c-2.9,0-5.3-1-7.4-2.9c-2.2-2.2-3.4-5.1-3.4-8.7c0-3.8,1.2-6.8,3.5-9.1
			c2.1-2,4.5-3.1,7.3-3.1c3.3,0,5.8,0.9,7.7,2.8c1.8,1.8,2.7,4.1,2.7,7.1C67.6,20,67.5,20.8,67.3,21.6z M57.4,12.7
			c-1.8,0-3.3,0.6-4.6,1.8c-1.2,1.1-1.8,2.5-2,4.2h12.7c0-1.6-0.5-3-1.5-4.1C60.9,13.3,59.3,12.7,57.4,12.7z"/>
	</g>
</g>
</svg>
