<?xml version="1.0" encoding="utf-8"?>
<!-- Generator: Adobe Illustrator 22.1.0, SVG Export Plug-In . SVG Version: 6.00 Build 0)  -->
<svg version="1.1" id="Layer_1" xmlns="http://www.w3.org/2000/svg" xmlns:xlink="http://www.w3.org/1999/xlink" x="0px" y="0px"
	 viewBox="0 0 280 205.6" style="enable-background:new 0 0 280 205.6;" xml:space="preserve">
<style type="text/css">
	.st0{fill:#FFFFFF;}
</style>
<g id="Layer_2_1_">
</g>
<g id="Layer_1_1_">
	<g>
		<path class="st0" d="M143,82.8c-1.9-1.1-4.1-1.8-6.4-1.8H71.4c-2.4,0-4.5,0.7-6.4,1.8l39,32.5L143,82.8z"/>
		<path class="st0" d="M60.8,87.1c-1.1,1.9-1.8,4-1.8,6.4v32.4c0,2.4,0.7,4.5,1.8,6.4l27.3-22.6L60.8,87.1z"/>
		<path class="st0" d="M147.2,87.1l-27.3,22.5l27.3,22.6c1.1-1.9,1.8-4.1,1.8-6.4V93.5C149,91,148.3,89,147.2,87.1z"/>
		<path class="st0" d="M104,122.9l-11.4-9.5L65,136.5c1.9,1.1,4.1,1.8,6.4,1.8h65.2c2.4,0,4.5-0.7,6.4-1.8l-27.7-23.1L104,122.9z"/>
	</g>
</g>
</svg>
