<?xml version="1.0" encoding="utf-8"?>
<!-- Generator: Adobe Illustrator 22.1.0, SVG Export Plug-In . SVG Version: 6.00 Build 0)  -->
<svg version="1.1" id="Layer_1" xmlns="http://www.w3.org/2000/svg" xmlns:xlink="http://www.w3.org/1999/xlink" x="0px" y="0px"
	 viewBox="0 0 162 128" style="enable-background:new 0 0 162 128;" xml:space="preserve">
<style type="text/css">
	.st0{fill:#FFFFFF;}
</style>
<g>
	<path class="st0" d="M89.8,37.7H54.2c-7.4,0-13.5,6.1-13.5,13.5v35.5c0,7.4,6.1,13.5,13.5,13.5h35.5c7.4,0,13.5-6.1,13.5-13.5V51.2
		C103.3,43.8,97.2,37.7,89.8,37.7z M83,47.7c0-1.2,1-2.2,2.2-2.2h6.6c1.2,0,2.2,1,2.2,2.2v6.6c0,1.2-1,2.2-2.2,2.2h-6.6
		c-1.2,0-2.2-1-2.2-2.2C83,54.3,83,47.7,83,47.7z M89.8,97H54.2C48.6,97,44,92.4,44,86.8V60.3h14.6c3.2-3.9,8-6.4,13.4-6.4
		c5.4,0,10.2,2.5,13.4,6.4H100v26.5C100,92.4,95.4,97,89.8,97z"/>
	<circle class="st0" cx="72" cy="70.3" r="14.4"/>
</g>
</svg>
