<?xml version="1.0" encoding="utf-8"?>
<!-- Generator: Adobe Illustrator 22.1.0, SVG Export Plug-In . SVG Version: 6.00 Build 0)  -->
<svg version="1.1"
	 id="Layer_1" xmlns:cc="http://creativecommons.org/ns#" xmlns:dc="http://purl.org/dc/elements/1.1/" xmlns:inkscape="http://www.inkscape.org/namespaces/inkscape" xmlns:rdf="http://www.w3.org/1999/02/22-rdf-syntax-ns#" xmlns:sodipodi="http://sodipodi.sourceforge.net/DTD/sodipodi-0.dtd" xmlns:svg="http://www.w3.org/2000/svg"
	 xmlns="http://www.w3.org/2000/svg" xmlns:xlink="http://www.w3.org/1999/xlink" x="0px" y="0px" viewBox="0 0 140 144.2"
	 style="enable-background:new 0 0 140 144.2;" xml:space="preserve">
<style type="text/css">
	.st0{fill:#FFFFFF;}
</style>
<g transform="translate(0,-952.36218)">
	<path class="st0" d="M42,983.1c-6.6,0-12,5.4-12,12s5.4,12,12,12s12-5.4,12-12S48.6,983.1,42,983.1z M42,987.1c4.4,0,8,3.6,8,8
		s-3.6,8-8,8s-8-3.6-8-8S37.6,987.1,42,987.1z M94,1009.1c-6.4,0-10.7,2.7-14,5.8v-1.8c0-1-1-2-2-2H62c-1,0-2,1-2,2v54c0,1,1,2,2,2
		h17c1,0,2-1,2-2v-30c0-2.5,0.8-4.9,2-6.6s2.6-2.4,4-2.4h2c1.4,0,2.9,0.8,4,2.4c1.1,1.6,2,4,2,6.6v30c0,1,1,2,2,2h17c1,0,2-1,2-2
		v-35c0-6.7-1.2-12.5-4.8-16.6S101.9,1009.1,94,1009.1z M33.8,1011.1c-1,0.1-1.8,1-1.8,2v54c0,1,1,2,2,2h17c1,0,2-1,2-2v-54
		c0-1-1-2-2-2C45.3,1011.1,39.5,1011.1,33.8,1011.1z M94,1013.1c7.2,0,11.5,1.8,14.1,5s3.9,7.9,3.9,14v33H99v-28
		c0-3.3-1-6.5-2.7-8.9s-4.3-4.1-7.3-4.1h-2c-3,0-5.6,1.7-7.3,4.1c-1.7,2.4-2.7,5.5-2.7,8.9v12c-0.4,0-0.8,0-1.2,0c-1,0-2,1-1.9,2.1
		c0,1,1,2,2.1,1.9h1v4c-0.4,0-0.8,0-1.2,0c-1,0-2,1-1.9,2.1c0,1,1,2,2.1,1.9h1v4H64v-50h12v5c0,0.8,0.6,1.6,1.3,1.9
		c0.8,0.3,1.7,0,2.2-0.6C82.9,1017.1,86.5,1013.1,94,1013.1z M36,1015.1h13v34c-0.4,0-0.8,0-1.2,0c-1,0-2,1-1.9,2.1c0,1,1,2,2.1,1.9
		h1v4c-0.4,0-0.8,0-1.2,0c-1,0-2,1-1.9,2.1c0,1,1,2,2.1,1.9h1v4H36V1015.1z"/>
</g>
</svg>
