<?xml version="1.0" encoding="utf-8"?>
<!-- Generator: Adobe Illustrator 22.1.0, SVG Export Plug-In . SVG Version: 6.00 Build 0)  -->
<svg version="1.1" xmlns="http://www.w3.org/2000/svg" xmlns:xlink="http://www.w3.org/1999/xlink" x="0px" y="0px"
	 viewBox="0 0 88.1 95.6" style="enable-background:new 0 0 88.1 95.6;" xml:space="preserve">
<style type="text/css">
	.st0{fill:#990000;}
	.st1{fill:none;stroke:#000000;stroke-width:0.2522;stroke-miterlimit:3.8636;}
	.st2{fill:#011F5B;}
	.st3{fill:none;stroke:#011F5B;stroke-width:3;}
</style>
<g>
	<path class="st0" d="M7.4,30.6c0.1,0.1,0-22.1,0-22.1H80c0,0,0,11.9,0,22.1L7.4,30.6z"/>
	<path class="st0" d="M80.3,30.9l-72.8,0l0-0.3l-0.2,0c0.1-0.6,0-16.1,0-22l0-0.3h73.1V30.9z M7.7,30.4l72.1,0V8.8H7.7
		C7.8,24.8,7.8,29.2,7.7,30.4z"/>
</g>
<g>
	<path class="st1" d="M21,76.1"/>
</g>
<path class="st2" d="M11.6,63l32-30.3L75.3,63c-2.9,5.5-7,10.1-11.2,14L43.7,56.2L22.6,77.5c-4.8-4-8.3-8.7-11.1-14.6L11.6,63z
	 M43.7,56.5l20.2,20.7l0.2,0.2l0.2-0.2c4.9-4.5,8.7-9.2,11.3-14l0.1-0.2L43.7,32.3L11.6,62.7L11,62.4l0.3,0.6
	c2.9,6.1,6.5,10.8,11.2,14.7l0.2,0.1L43.7,56.5z M43.7,33L75,63.1c-2.5,4.7-6.2,9.2-10.9,13.6L43.7,55.8L22.6,77.2
	c-4.5-3.8-7.9-8.2-10.7-14.1L43.7,33z M26.2,66.6c3.5,0,6.3-2.7,6.3-6.1s-2.8-6.1-6.3-6.1c-3.5,0-6.3,2.7-6.3,6.1
	S22.7,66.6,26.2,66.6z M32.8,60.5c0-3.5-3-6.4-6.6-6.4c-3.6,0-6.6,2.9-6.6,6.4c0,3.5,3,6.4,6.6,6.4C29.9,66.8,32.8,64,32.8,60.5z
	 M32.3,60.5c0,3.2-2.7,5.8-6.1,5.8c-3.4,0-6.1-2.6-6.1-5.8c0-3.2,2.7-5.9,6.1-5.9C29.6,54.6,32.3,57.3,32.3,60.5z M26.2,60.5
	 M43.7,51.9c3.5,0,6.3-2.7,6.3-6.1c0-3.4-2.8-6.1-6.3-6.1c-3.5,0-6.3,2.7-6.3,6.1C37.3,49.2,40.2,51.9,43.7,51.9z M50.3,45.8
	c0-3.5-3-6.4-6.6-6.4s-6.6,2.9-6.6,6.4c0,3.5,3,6.4,6.6,6.4S50.3,49.3,50.3,45.8z M49.8,45.8c0,3.2-2.7,5.9-6.1,5.9
	s-6.1-2.6-6.1-5.9c0-3.2,2.7-5.9,6.1-5.9S49.8,42.6,49.8,45.8z M43.7,45.8 M60.1,66.6c3.5,0,6.3-2.7,6.3-6.1s-2.8-6.1-6.3-6.1
	c-3.5,0-6.3,2.7-6.3,6.1S56.6,66.6,60.1,66.6z M66.7,60.5c0-3.5-3-6.4-6.6-6.4s-6.6,2.9-6.6,6.4c0,3.5,3,6.4,6.6,6.4
	S66.7,64,66.7,60.5z M66.2,60.5c0,3.2-2.7,5.8-6.1,5.8c-3.4,0-6.1-2.6-6.1-5.8c0-3.2,2.7-5.9,6.1-5.9C63.5,54.6,66.2,57.3,66.2,60.5
	z"/>
<g>
	<path class="st3" d="M42.3,90.4C42.2,90.4,42.2,90.4,42.3,90.4C38.1,90.2,6.8,74.9,6.9,44.7c0-0.5,0-36.2,0-36.2V8.1h73.6v36.8
		c-0.2,14.6-8.4,25.3-15.1,31.7C55.9,85.6,44.8,90.4,42.3,90.4z M7.9,9.1c0,4.3,0,35.2,0,35.7C7.8,74.3,38.2,89.2,42.2,89.4
		c0,0,0,0,0,0c2.2,0,13-4.5,22.4-13.5c6.6-6.3,14.6-16.8,14.8-31V9.1H7.9z"/>
</g>
</svg>
