<?xml version="1.0" encoding="utf-8"?>
<!-- Generator: Adobe Illustrator 22.1.0, SVG Export Plug-In . SVG Version: 6.00 Build 0)  -->
<svg version="1.1" id="Layer_1" xmlns="http://www.w3.org/2000/svg" xmlns:xlink="http://www.w3.org/1999/xlink" x="0px" y="0px"
	 viewBox="0 0 64 80" style="enable-background:new 0 0 64 80;" xml:space="preserve">
<style type="text/css">
	.st0{fill:#FFFFFF;}
</style>
<g>
	<path d="M60.7,2H15.4c0,0-0.1,0-0.1,0c-0.1,0-0.2,0-0.3,0.1c0,0-0.1,0-0.1,0c-0.1,0.1-0.3,0.1-0.4,0.3L1.9,15
		c-0.1,0.1-0.2,0.2-0.3,0.4c0,0,0,0.1,0,0.1c0,0.1-0.1,0.2-0.1,0.3c0,0,0,0.1,0,0.1v40.3H4V17.1h11.3c0.7,0,1.3-0.6,1.3-1.3V4.5
		h42.9v51.7H62V3.3C62,2.6,61.4,2,60.7,2z M14.1,14.6H5.8l8.3-8.3V14.6z"/>
	<path d="M51.9,32.2c2.8,0,5-2.2,5.1-5c0-2.8-2.2-5-5-5.1c-2.3,0-4.3,1.5-4.9,3.8H36.6c-0.7-2.7-3.4-4.3-6.1-3.6
		c-1.8,0.5-3.2,1.8-3.6,3.6H16.4c-0.7-2.7-3.4-4.3-6.1-3.6C7.6,23,6,25.8,6.7,28.5c0.7,2.7,3.4,4.3,6.1,3.6c1.8-0.5,3.2-1.8,3.6-3.6
		h5.9c-5.1,2.9-8.5,8.1-9.3,13.9h-2.7c-0.7,0-1.3,0.6-1.3,1.3v7.6c0,0.7,0.6,1.3,1.3,1.3h7.6c0.7,0,1.3-0.6,1.3-1.3v-7.6
		c0-0.7-0.6-1.3-1.3-1.3h-2.3c1-6.2,5.5-11.4,11.5-13.2c1.1,2.6,4,3.8,6.6,2.7c1.2-0.5,2.2-1.5,2.7-2.7c6.1,1.8,10.5,6.9,11.5,13.2
		h-2.3c-0.7,0-1.3,0.6-1.3,1.3v7.6c0,0.7,0.6,1.3,1.3,1.3h7.6c0.7,0,1.3-0.6,1.3-1.3v-7.6c0-0.7-0.6-1.3-1.3-1.3h-2.7
		c-0.8-5.8-4.3-10.9-9.3-13.9h5.9C47.6,30.7,49.6,32.2,51.9,32.2z M51.9,24.7c1.4,0,2.5,1.1,2.5,2.5s-1.1,2.5-2.5,2.5
		s-2.5-1.1-2.5-2.5S50.5,24.7,51.9,24.7z M11.6,29.7c-1.4,0-2.5-1.1-2.5-2.5s1.1-2.5,2.5-2.5c1.4,0,2.5,1.1,2.5,2.5
		S13,29.7,11.6,29.7z M16.6,44.9v5h-5v-5H16.6z M31.8,29.7c-1.4,0-2.5-1.1-2.5-2.5s1.1-2.5,2.5-2.5c1.4,0,2.5,1.1,2.5,2.5
		S33.1,29.7,31.8,29.7z M50.7,44.9h1.3v5h-5v-5H50.7z"/>
	<path d="M64.1,56.5H-0.6c-0.8,0-1.4,0.6-1.4,1.4v18.3c0,0.8,0.6,1.4,1.4,1.4h64.8c0.8,0,1.4-0.6,1.4-1.4V57.9
		C65.5,57.1,64.9,56.5,64.1,56.5z"/>
	<path class="st0" d="M15.7,73.5c1,0,1.9-0.2,2.8-0.5c0.7-0.3,1.4-0.8,1.8-1.5c0.4-0.7,0.6-1.4,0.6-2.2c0-0.8-0.2-1.6-0.7-2.2
		c-0.7-0.7-1.5-1.3-2.4-1.7c-0.8-0.3-1.5-0.7-2.2-1.1c-0.2-0.2-0.4-0.4-0.4-0.7c0-0.2,0.1-0.5,0.3-0.6c0.3-0.2,0.7-0.3,1-0.2
		c1.1,0.1,2.2,0.3,3.2,0.9l1.1-2.8c-1.3-0.6-2.8-0.9-4.2-1c-1.3-0.1-2.6,0.3-3.7,1c-0.9,0.7-1.4,1.8-1.3,2.9c0,0.6,0.1,1.2,0.3,1.7
		c0.2,0.5,0.6,0.9,1,1.3c0.6,0.5,1.3,0.9,2,1.1c1,0.4,1.6,0.7,1.8,0.9c0.2,0.1,0.3,0.2,0.5,0.4c0.1,0.1,0.2,0.3,0.2,0.5
		c0,0.3-0.1,0.6-0.4,0.7c-0.4,0.2-0.8,0.3-1.2,0.3c-0.7,0-1.4-0.1-2-0.3c-0.7-0.2-1.5-0.5-2.1-0.8v3.2c0.6,0.3,1.2,0.5,1.9,0.7
		C14.2,73.4,14.9,73.5,15.7,73.5z"/>
	<path class="st0" d="M33.9,73.3L38.2,60h-4l-1.8,6.8c-0.1,0.4-0.2,0.9-0.3,1.5c-0.1,0.6-0.2,1.2-0.3,1.6c-0.1-1.1-0.3-2.1-0.6-3.1
		L29.3,60h-4.1l4.4,13.3H33.9z"/>
	<path class="st0" d="M49.3,73.5c1.7,0,3.5-0.3,5.2-0.8v-7.2h-5.7v2.8h2.4v2.1c-0.5,0.1-1,0.2-1.5,0.2c-0.9,0.1-1.7-0.3-2.2-1
		c-0.6-0.8-0.8-1.8-0.8-2.8c-0.1-1,0.2-2.1,0.9-2.9c0.6-0.7,1.5-1.1,2.4-1c1.1,0,2.2,0.2,3.2,0.7l1.1-2.8c-0.6-0.3-1.3-0.5-1.9-0.6
		c-0.8-0.2-1.6-0.2-2.4-0.2c-1.9-0.1-3.8,0.5-5.2,1.8c-1.3,1.3-2,3.2-1.8,5c-0.1,1.9,0.5,3.7,1.7,5.1C45.8,72.9,47.6,73.6,49.3,73.5
		z"/>
</g>
</svg>
