<?xml version="1.0" encoding="utf-8"?>
<!-- Generator: Adobe Illustrator 22.1.0, SVG Export Plug-In . SVG Version: 6.00 Build 0)  -->
<svg version="1.1" id="Layer_1" xmlns="http://www.w3.org/2000/svg" xmlns:xlink="http://www.w3.org/1999/xlink" x="0px" y="0px"
	 viewBox="0 0 1724.9 1584.7" style="enable-background:new 0 0 1724.9 1584.7;" xml:space="preserve">
<style type="text/css">
	.st0{fill:#F16822;}
	.st1{fill:#808285;}
	.st2{fill:#BCBEC0;}
</style>
<g id="Layer_1_1_">
	<path class="st0" d="M1364.9,364.3c-51.2-29.6-97.1-44-136.2-49.8c-10.2-22.3-35.2-48.5-86-77.5c-166.7-95.2-333.3-1-333.3-1
		L587.1,364.3l111.1,64.1l222.2-128.3c0,0,55.6-32.1,111.1,0c55.6,32.1,0,64.2,0,64.2L809.3,492.6l0,0l0,0l111.1,64.1l222.4-128.4
		c3.3-1.9,57.1-31,110.9,0.1c55.6,32.1,0,64.1,0,64.1l-222.2,128.3l111.1,64.2l277.8-160.4C1420.4,524.6,1531.5,460.5,1364.9,364.3z
		"/>
	<g>
		<path class="st1" d="M587.1,364.3c0,0-55.6,32.1-55.6,96.2c0,64.2,0,320.4,0,320.4s0,64.2-55.6,32.1s-55.6-96.2-55.6-96.2
			s0-256.3,0-320.4c0-4,0.2-7.9,0.6-11.7c6.1-56.4,54.9-84.6,54.9-84.6l0,0l0,0L364.7,236c0,0-0.1,0-0.2,0.1
			c-3.3,1.9-55.4,34-55.4,96.1l0,0c0,64.2,0,320.4,0,320.4s0,64.2-55.6,32.1c-55.6-32.1-55.6-96.2-55.6-96.2s0-256.3,0-320.4
			s55.6-96.2,55.6-96.2l-111.1-64.2c0,0-55.6,32.1-55.6,96.2c0,64.2,0,320.4,0,320.4s0,192.5,166.7,288.7
			c51.1,29.5,86.5,31.8,111.1,20.9c24.6,39.3,60,77.9,111.1,107.4c166.7,96.2,166.7-96.2,166.7-96.2s0-256.3,0-320.4
			c0-64.2,55.6-96.2,55.6-96.2L587.1,364.3z"/>
		<polygon class="st2" points="753.8,653.7 864.9,717.8 864.9,846.1 753.8,782 		"/>
		<path class="st2" d="M1031.5,620.9c0,0-55.6,32.1-55.6,96.2c0,64.2,0,320.4,0,320.4s0,64.2-55.6,32.1s-55.6-96.2-55.6-96.2
			l-111.1-64.2c0,0,0,192.5,166.7,288.7c166.7,96.2,166.7-96.2,166.7-96.2s0-256.3,0-320.4s55.6-96.2,55.6-96.2L1031.5,620.9z"/>
		<path class="st2" d="M1364.9,941.6l222.2,128.3V941.6l-222.2-128.3c0,0-166.7-93.8-166.7,96.2s166.7,288.7,166.7,288.7l0,0
			l55.6,32.1c0,0,55.6,32.1,55.6,96.2c0,64.2-55.6,32.1-55.6,32.1l-222.3-128.3v128.3l222.2,128.3c0,0,166.7,96.2,166.7-96.2
			S1476,1134.1,1476,1134.1l-111.1-64.1c0,0-55.6-32.1-55.6-96.2C1309.3,909.5,1364.9,941.6,1364.9,941.6z"/>
	</g>
</g>
<g id="Layer_1_copy">
</g>
</svg>
