<?xml version="1.0" encoding="utf-8"?>
<!-- Generator: Adobe Illustrator 16.0.0, SVG Export Plug-In . SVG Version: 6.00 Build 0)  -->
<!DOCTYPE svg PUBLIC "-//W3C//DTD SVG 1.1//EN" "http://www.w3.org/Graphics/SVG/1.1/DTD/svg11.dtd">
<svg version="1.1"
	 id="Layer_1" xmlns:dc="http://purl.org/dc/elements/1.1/" xmlns:cc="http://creativecommons.org/ns#" xmlns:rdf="http://www.w3.org/1999/02/22-rdf-syntax-ns#" xmlns:svg="http://www.w3.org/2000/svg" xmlns:sodipodi="http://sodipodi.sourceforge.net/DTD/sodipodi-0.dtd" xmlns:inkscape="http://www.inkscape.org/namespaces/inkscape"
	 xmlns="http://www.w3.org/2000/svg" xmlns:xlink="http://www.w3.org/1999/xlink" x="0px" y="0px" width="544px" height="526.32px"
	 viewBox="0 0 544 526.32" enable-background="new 0 0 544 526.32" xml:space="preserve">
<g transform="translate(0,-952.36218)">
	<path fill="#FFFFFF" d="M272,952.362l-34.234,23.333l-40.736-8.606l-22.758,34.808l-40.736,7.65l-7.65,40.928l-34.807,22.759
		l8.415,40.545l-23.333,34.425l23.333,34.234l-8.415,40.545l34.807,22.758l7.65,40.928l40.736,7.65l22.758,34.809l40.736-8.606
		L272,1344.042l34.233-23.522l40.735,8.605l22.759-34.808l40.736-7.65l7.65-40.928l34.808-22.758l-8.415-40.545l23.332-34.234
		l-23.332-34.425l8.415-40.545l-34.808-22.759l-7.65-40.928l-40.735-7.65l-22.76-34.808l-40.735,8.606L272,952.362z
		 M264.732,1007.442c2.393-0.122,4.845,0,7.268,0c77.522,0,140.76,63.238,140.76,140.76c0,77.521-63.236,140.76-140.76,140.76
		c-77.522,0-140.76-63.238-140.76-140.76C131.24,1073.102,190.544,1011.224,264.732,1007.442z M272,1044.162
		c-57.677,0-104.04,46.363-104.04,104.04c0,57.678,46.363,104.04,104.04,104.04s104.04-46.362,104.04-104.04
		C376.04,1090.525,329.677,1044.162,272,1044.162z M111.732,1251.286L8.84,1411.362l91.8-18.359l24.48,85.681l83.768-139.613
		l-9.372,1.913c-4.776,1.049-10.099-1.098-12.813-5.164l-19.89-30.409l-35.572-6.885c-4.796-0.908-8.845-4.957-9.754-9.754
		l-6.885-35.572L111.732,1251.286L111.732,1251.286z M432.268,1251.286l-2.868,1.913l-6.886,35.572
		c-0.907,4.796-4.957,8.845-9.754,9.754l-35.571,6.885l-19.891,30.409c-2.715,4.066-8.038,6.213-12.813,5.164l-9.371-1.913
		l83.768,139.612l24.48-85.681l91.8,18.36L432.268,1251.286L432.268,1251.286z"/>
</g>
</svg>
