<?xml version="1.0" encoding="utf-8"?>
<!-- Generator: Adobe Illustrator 16.0.0, SVG Export Plug-In . SVG Version: 6.00 Build 0)  -->
<!DOCTYPE svg PUBLIC "-//W3C//DTD SVG 1.1//EN" "http://www.w3.org/Graphics/SVG/1.1/DTD/svg11.dtd">
<svg version="1.1" id="Layer_1" xmlns="http://www.w3.org/2000/svg" xmlns:xlink="http://www.w3.org/1999/xlink" x="0px" y="0px"
	 width="623px" height="495px" viewBox="-5.5 63.5 623 495" enable-background="new -5.5 63.5 623 495" xml:space="preserve">
<path fill="#FFFFFF" stroke="#FFFFFF" stroke-width="6" stroke-miterlimit="10" d="M26.928,296.812"/>
<path fill="#FFFFFF" stroke="#FFFFFF" stroke-width="6" stroke-miterlimit="10" d="M452.268,238.06
	c71.604,12.852,118.116,17.136,118.729,17.136c3.06,0,4.896,3.06,4.896,5.508c0,3.06-3.06,4.896-5.508,4.896
	S331.092,242.956,91.8,150.544c-3.672-1.836-7.956-3.672-11.016-5.508l-2.448-1.224c-1.224-0.612-3.06-1.224-4.284-1.836
	c-1.224,0-1.836-0.612-3.06-0.612H67.32c-20.808,1.224-43.452,29.988-52.632,66.708c-9.18,36.72-2.448,72.828,15.3,83.844
	c0,0,0.612,0,0.612,0.612h0.612c1.836,1.224,3.06,1.836,4.896,1.836c1.224,0.612,3.06,0.612,4.284,0.612h0.612
	c4.896,0,9.792,0,14.688,0.612C290.7,332.308,492.66,400.24,528.768,416.152c2.448,1.224,3.673,4.283,2.448,6.731
	c-0.611,1.836-3.06,3.061-4.896,3.061c-0.612,0-1.225,0-1.836-0.612C488.376,409.42,288.252,342.1,53.856,305.38
	c-3.672,0.612-7.956,0-12.852,0h-0.612c-2.448,0-4.896-0.612-6.732-0.612c-1.836-0.612-4.284-1.224-6.12-2.448h-0.612
	c-1.224,0-3.06-1.224-3.672-2.448l0,0c-20.808-14.076-28.764-53.244-18.36-94.248c10.404-42.228,36.72-73.44,62.424-74.664h4.284
	c0,0,0,0,0.612,0c1.224,0,3.06,0.612,4.896,0.612c2.448,0.612,4.284,1.224,6.12,2.448l2.448,1.224
	c3.672,1.836,6.732,3.672,10.404,4.896C228.888,192.16,361.08,221.536,452.268,238.06"/>
<path fill="#FFFFFF" stroke="#FFFFFF" stroke-width="6" stroke-miterlimit="10" d="M542.844,430.84
	c-2.448,0-5.508-0.612-7.956-1.224c-14.076-3.672-25.092-16.524-29.987-35.496c-4.896-18.36-4.896-41.004,1.224-63.648
	c5.508-22.644,15.912-42.84,29.376-56.916c14.076-14.688,29.376-20.808,43.452-17.748c14.076,3.672,25.092,16.524,29.987,35.496
	c4.896,18.36,4.896,41.004-1.224,63.648l0,0c-5.508,22.644-15.912,42.84-29.376,56.916
	C567.324,424.72,554.472,430.84,542.844,430.84z M570.384,265.6c-9.18,0-18.359,5.508-28.151,15.3
	c-11.629,12.852-21.421,31.212-26.316,52.632c-5.508,20.808-5.508,41.616-1.224,58.752c4.283,15.912,12.239,25.704,22.644,28.151
	c10.404,2.448,22.032-2.447,33.048-14.688c11.628-12.853,21.42-31.212,26.316-52.632l0,0c5.508-20.808,5.508-41.616,1.224-58.752
	c-4.284-15.912-12.24-25.704-22.644-28.152C574.056,265.6,572.22,265.6,570.384,265.6z"/>
<path fill="#FFFFFF" stroke="#FFFFFF" stroke-width="6" stroke-miterlimit="10" d="M315.792,360.46c-0.612,0-0.612,0-1.224,0
	l-80.784-20.196c-1.836-0.612-3.06-1.836-3.672-3.672c-27.54-83.844,33.66-137.7,34.884-138.312c1.224-1.224,3.06-1.224,4.896-1.224
	l80.784,20.196c1.836,0.612,3.672,1.836,3.672,3.672c0.612,1.836,0,3.672-1.836,4.896l0,0
	c-2.447,1.836-56.916,50.184-31.212,127.296c0.612,1.836,0,3.672-1.224,4.896C318.852,359.848,317.016,360.46,315.792,360.46z
	 M239.292,331.084l69.156,17.136c-15.912-61.812,15.912-106.488,30.6-122.4l-69.768-17.136
	C259.488,217.864,217.872,263.152,239.292,331.084z"/>
<path fill="#FFFFFF" stroke="#FFFFFF" stroke-width="6" stroke-miterlimit="10" d="M206.856,479.188c-0.612,0-1.224,0-1.836-0.611
	c-1.836-0.612-3.672-2.448-3.672-4.896v-42.84l-50.796,13.464c-2.448,0.612-4.284-0.611-5.508-2.448
	c-1.224-1.836-1.224-4.283,0.612-6.119l85.068-104.652c1.836-2.448,4.896-2.448,7.344-0.612c2.448,1.836,2.448,4.896,0.612,7.344
	l-74.664,91.8l41.616-11.017c1.836-0.611,3.06,0,4.284,1.225c1.224,1.224,1.836,2.447,1.836,4.284v35.495l31.824-37.332
	c1.836-2.447,4.896-2.447,7.344-0.611c2.448,1.836,2.448,4.896,0.612,7.344l-41.004,48.348
	C209.916,478.576,208.692,479.188,206.856,479.188z"/>
<path fill="#FFFFFF" stroke="#FFFFFF" stroke-width="6" stroke-miterlimit="10" d="M257.652,492.04c-0.612,0-0.612,0-1.224,0
	c-1.836-0.612-3.672-2.448-4.284-4.284l-18.972-150.552c0-1.836,0.612-3.672,1.836-4.284c1.224-0.612,3.06-1.836,4.896-1.224
	l74.665,18.36c2.447,0.612,3.672,2.448,3.672,4.896l11.016,128.52c0,2.448-1.224,4.284-3.06,4.896
	c-1.836,1.224-4.284,0.612-6.12-1.224l-33.66-34.885l-24.48,37.332C260.712,490.816,259.488,492.04,257.652,492.04z M244.8,343.324
	l15.912,128.52l20.196-30.6c0.612-1.225,2.448-2.448,3.672-2.448c1.836,0,3.06,0.612,4.284,1.836l28.152,28.764l-9.18-110.16
	L244.8,343.324z"/>
</svg>
