<?xml version="1.0" encoding="utf-8"?>
<!-- Generator: Adobe Illustrator 16.0.0, SVG Export Plug-In . SVG Version: 6.00 Build 0)  -->
<!DOCTYPE svg PUBLIC "-//W3C//DTD SVG 1.1//EN" "http://www.w3.org/Graphics/SVG/1.1/DTD/svg11.dtd">
<svg version="1.1" id="Layer_1" xmlns="http://www.w3.org/2000/svg" xmlns:xlink="http://www.w3.org/1999/xlink" x="0px" y="0px"
	 width="350px" height="356px" viewBox="0 0 350 356" enable-background="new 0 0 350 356" xml:space="preserve">
<path opacity="0.5" fill="#FFFFFF" d="M341.857,209.146c-107.972,0-215.843,0-323.861,0c0,1.987,0.129,3.813-0.038,5.611
	c-0.159,1.71-0.793,3.379-0.932,5.09c-0.418,5.187-0.698,10.385-1.029,15.578c-0.011,0.166,0.068,0.386-0.012,0.491
	c-1.531,2.021-1.091,4.383-0.927,6.587c0.174,2.335-0.836,4.39-1.023,6.591c-0.455,5.35-0.708,10.718-1.037,16.077
	c-0.02,0.332,0.14,0.788-0.024,0.98c-1.72,2.01-0.697,4.399-0.984,6.602c-0.308,2.365-0.781,4.713-0.97,7.086
	c-0.413,5.188-0.692,10.386-1.021,15.578c-0.021,0.332,0.142,0.804-0.025,0.979c-2.038,2.147-0.568,4.751-0.959,7.106
	c-0.417,2.515-0.959,5.052-0.961,7.58c-0.003,5.062-1.737,9.981-1.104,15.086c0.054,0.436-0.549,0.952-0.956,1.604
	c112.083,0,223.953,0,335.863,0C341.857,288.152,341.857,248.712,341.857,209.146z"/>
<path fill="#FFFFFF" d="M167.777,204.831c0.959-16.274-1.025-32.482,1.186-48.589c0.436-3.178,0.681-6.383,1.015-9.575
	c2.021-1.106,0.903-3.255,1.488-4.871c2.373-6.547,4.796-13,8.458-18.992c3.415-5.587,6.902-11.129,10.312-16.715
	c2.473-4.052,4.759-8.282,6.132-12.935c0.811-2.744,1.414-5.646,1.459-8.323c0.29-17.145,0.284-34.299,0.055-51.446
	c-0.06-4.488-1.634-8.774-5.631-11.618c-3.699-2.632-7.84-3.921-12.145-2.302c-6.485,2.439-10.114,7.229-10.123,14.551
	c-0.018,14.819,0.002,29.639-0.02,44.458c-0.002,1.118-0.003,2.312-0.365,3.341c-1.751,4.978-4.381,9.581-7.124,14.011
	c-3.988,6.44-8.845,12.278-14.317,17.606c-2.011,1.958-4.311,3.852-6.695,4.311c-3.368,0.647-3.974,2.612-4.476,5.164
	c-0.904,4.595-2.172,9.112-3.252,13.661c-1.244,5.243-3.247,10.305-2.729,15.819c0.181,1.928-0.628,3.572-1.787,4.731
	c-2.472,2.472-3.005,5.401-3.323,8.677c-0.245,2.523-1.247,4.973-0.912,7.587c-1.354,0.909-0.844,2.324-1.03,3.577
	c-0.192,1.292-0.626,2.548-1.024,4.086c10.238,0,20.016,0,30.139,0c0,8.064,0,15.968,0,23.784
	C158.197,204.831,162.979,204.831,167.777,204.831z"/>
<path fill="#FFFFFF" d="M124.194,111.949c3.146,0.668,6.635-0.116,9.556-1.442c6.575-2.986,12.219-7.235,15.493-14.165
	c1.896-4.013,4.133-7.786,3.737-12.432c2.63-4.714,0.042-9.434-0.077-14.143c-0.041-1.625-0.852-3.279-1.509-4.835
	c-2.638-6.25-6.268-11.775-12.283-15.269c-4.477-2.601-9.139-4.825-14.531-4.672c-2.395,0.067-4.705,0.147-7.109,0.881
	c-3.655,1.114-9.056,3.423-11.624,5.727c-3.15,2.825-5.606,6.178-7.737,9.784c-2.327,3.936-3.536,8.42-3.966,12.779
	c-0.858,8.674,0.464,17.107,5.829,24.461c3.152,4.321,6.551,8.175,11.583,10.576C115.546,111.102,119.524,112.159,124.194,111.949z"
	/>
<path fill="#FFFFFF" d="M305.96,78.456c-0.547-2.749,1.071-6.146-1-9.158c-0.828-6.164-4.337-11.005-8.074-15.615
	c-1.548-1.91-3.773-3.419-5.955-4.636c-4.564-2.545-9.487-3.968-14.802-4.116c-2.8-0.078-5.345,0.85-7.936,1.458
	c-2.504,0.587-5.065,1.657-7.154,3.146c-5.856,4.171-10.977,11.368-13.042,18.033c-1.882,6.073-0.947,12.371-0.927,18.566
	c0.006,1.892,1.069,3.857,1.933,5.651c1.54,3.202,3.174,6.373,4.997,9.419c1.938,3.236,8.102,7.025,12.129,8.886
	c3.678,1.7,7.355,1.822,11.212,1.944c5.11,0.163,9.654-1.381,13.808-4.095c2.406-1.572,4.738-3.383,6.703-5.466
	c1.934-2.046,4.003-4.372,4.808-6.95c0.65-2.09,2.06-3.846,2.326-6.061c0.206-1.708,0.779-3.378,0.937-5.089
	C306.09,82.555,305.96,80.711,305.96,78.456z"/>
<path fill="#FFFFFF" d="M262.638,119.192c-5.048-1.135-9.719,0.351-14.164,1.977c-2.713,0.992-5.078,3.202-7.292,5.204
	c-1.891,1.71-3.813,3.678-4.891,5.93c-2.208,4.615-4.412,9.256-4.372,14.673c0.134,17.797,0.051,35.597,0.051,53.395
	c0,1.463,0,2.927,0,4.36c1.515,0,2.749,0,3.992,0c-0.18-3.316,1.637-6.161,1.035-9.288c1.615-1.056,0.717-2.708,0.98-4.086
	c0.293-1.533,0.937-3.056,0.924-4.578c-0.017-2.153,0.418-4.056,1.752-5.986c8.977,0,18.077,0,27.312,0
	c0-6.481,0.006-12.784-0.003-19.086c-0.003-2.395-0.177-4.59-1.48-6.888c-2.226-3.923-1.938-5.593-0.101-9.748
	c0.311-0.704,0.797-1.342,1.026-2.068c0.282-0.891,0.697-1.915,0.502-2.752c-0.737-3.163-1.766-6.256-2.559-9.408
	C264.397,127.057,263.573,123.238,262.638,119.192z"/>
<path fill="#FFFFFF" d="M320.958,204.859c0-1.562,0-3.025,0-4.488c0-16.8-0.064-33.602,0.044-50.401
	c0.028-4.374-0.473-8.51-1.976-12.67c-2.75-7.615-8.157-12.778-15.067-16.182c-4.202-2.07-9.033-3.087-13.997-1.748
	c0,0.674,0.133,1.359-0.021,1.974c-1.428,5.739-3.223,11.39-4.104,17.26c-2.291,2.18-0.397,4.194,0.406,6.093
	c1.941,4.586,2.488,4.76,0.595,8.797c-2.038,4.346-1.847,8.727-1.872,13.204c-0.021,3.492-0.004,6.986-0.004,10.479
	c0,1.266,0,2.53,0,3.798c1.821,0,3.15,0,4.479,0c7.153,0,14.306-0.021,21.458,0.014c2.169,0.01,2.933,0.761,3.051,2.798
	c0.102,1.742-0.364,3.588,1.008,5.075c-0.14,5.466,2.083,10.582,2.105,15.999C318.449,204.859,319.564,204.859,320.958,204.859z"/>
<path fill="#FFFFFF" d="M114.821,139.192c-1.697-6.694-3.414-13.461-5.125-20.21c-1.179,0-2.178,0.053-3.169-0.01
	c-3.923-0.246-7.333,1.015-10.906,2.65c-3.745,1.714-6.124,4.668-9.002,7.213c-2.953,2.609-4.392,6.116-5.583,9.682
	c-1.253,3.752-2.099,7.617-2.069,11.648c0.068,8.994,0.021,17.988,0.021,26.982c0,1.27,0,2.539,0,3.668c9.589,0,18.704,0,27.796,0
	c0.412-3.661,0.699-7.179,1.24-10.657c0.333-2.138,0.811-4.322,1.667-6.293c0.915-2.107-0.845-4.64,1.241-6.439
	c-1.28-0.699-0.591-2.127-1.1-3.037c-1.771-3.171-1.149-6.246,0.44-9.107C111.432,143.195,113.133,141.411,114.821,139.192z"/>
<path fill="#FFFFFF" d="M147.89,186.142c-22.218,0-43.98,0-65.496,0c-2.092,6.331-4.11,12.438-6.165,18.659
	c23.828,0,47.709,0,71.66,0C147.89,198.518,147.89,192.404,147.89,186.142z"/>
<path fill="#FFFFFF" d="M311.906,204.866c0.432-6.009-2.123-11.32-2.035-16.969c0.01-0.632-1.112-1.614-1.885-1.845
	c-1.07-0.319-2.307-0.08-3.473-0.08c-18.311,0-36.622,0-54.935,0c-1.797,0-3.596,0-5.548,0c-1.382,6.353-2.459,12.51-3.179,18.894
	C264.688,204.866,288.119,204.866,311.906,204.866z"/>
<path fill="#FFFFFF" d="M111.046,180.974c1.939,0,3.439,0.036,4.937-0.009c2.188-0.064,2.938-0.67,2.966-2.866
	c0.037-2.908,1.706-5.602,1.034-8.579c1.923-1.575,0.201-3.97,1.105-5.52c1.095-1.877,0.673-3.749,0.96-5.589
	c0.726-0.726,1.328-1.604,2.159-2.105c2.077-1.25,1.837-3.614,2.679-5.415c0.777-1.663-0.739-3.251-1.283-4.876
	c-0.512-1.529-1.637-2.367-2.851-2.652c-1.478-0.347-3.242-0.383-4.658,0.102c-3.665,1.252-5.912,7.921-3.528,11.358
	c1.013,1.46,0.593,2.289,0.453,3.54c-0.213,1.891,0.394,3.914-1.036,5.577c-0.048,4.972-2.052,9.671-2.037,14.66
	C111.949,179.278,111.447,179.959,111.046,180.974z"/>
<path fill="#FFFFFF" d="M279.963,180.974c0-7.476,0.044-14.605-0.031-21.734c-0.018-1.723,0.243-3.054,1.552-4.389
	c1.971-2.014,1.777-4.843,1.354-7.318c-0.238-1.395-1.715-2.594-2.679-3.846c-1.004-1.303-2.464-0.655-3.693-0.652
	s-2.689-0.655-3.694,0.649c-0.965,1.251-2.443,2.45-2.682,3.844c-0.423,2.476-0.615,5.304,1.352,7.32
	c1.304,1.335,1.579,2.663,1.556,4.388c-0.085,5.985-0.042,11.972-0.026,17.958c0.004,1.267,0.096,2.532,0.146,3.78
	C275.464,180.974,277.459,180.974,279.963,180.974z"/>
<path fill="#FFFFFF" d="M36.087,344.797c8.178,0,15.95,0,23.654,0c0-4.061,0-7.958,0-11.687c-8.021,0-15.793,0-23.654,0
	C36.087,337.045,36.087,340.822,36.087,344.797z"/>
<path fill="#FFFFFF" d="M118.853,138.002c4.051-0.23,7.305,0.949,10.13,4.662c0-3.559,0.082-6.185-0.046-8.8
	c-0.042-0.871-0.87-1.706-0.905-2.575c-0.091-2.22-0.345-4.479,0.93-6.561c1.078-1.758,1.969-3.631,2.973-5.51
	c-5.498,0-10.716,0-15.855,0c1.182,2.354,2.375,4.509,3.344,6.761c0.423,0.982,0.905,2.474,0.469,3.194
	C118.194,131.972,119.413,134.861,118.853,138.002z"/>
<path fill="#FFFFFF" d="M271.965,138.922c3.436-1.682,6.578-1.072,10.69,0.588c-2.46-3.964-1.227-7.391-1.748-10.648
	c-0.6-3.747,2.46-6.244,3.134-9.701c-5.18,0-10.059,0-15.378,0c0.537,1.108,0.87,1.926,1.311,2.681
	c1.556,2.67,2.308,5.464,2.04,8.618C271.779,133.217,271.965,136.01,271.965,138.922z"/>
<path fill-rule="evenodd" clip-rule="evenodd" fill="#FFFFFF" d="M167.777,204.831c-4.798,0-9.581,0-14.71,0
	c0-7.816,0-15.72,0-23.784c-10.123,0-19.901,0-30.139,0c0.397-1.538,0.832-2.794,1.024-4.086c0.186-1.253-0.324-2.668,1.03-3.577
	c-0.335-2.614,0.667-5.063,0.912-7.587c0.318-3.276,0.851-6.205,3.323-8.677c1.159-1.159,1.968-2.803,1.787-4.731
	c-0.519-5.515,1.484-10.577,2.729-15.819c1.08-4.549,2.348-9.066,3.252-13.661c0.502-2.551,1.108-4.516,4.476-5.164
	c2.384-0.459,4.684-2.353,6.695-4.311c5.473-5.328,10.33-11.166,14.317-17.606c2.743-4.43,5.373-9.033,7.124-14.011
	c0.362-1.03,0.363-2.223,0.365-3.341c0.021-14.819,0.002-29.639,0.02-44.458c0.009-7.322,3.638-12.112,10.123-14.551
	c4.305-1.619,8.445-0.33,12.145,2.302c3.997,2.843,5.571,7.13,5.631,11.618c0.229,17.146,0.235,34.301-0.055,51.446
	c-0.045,2.677-0.648,5.579-1.459,8.323c-1.373,4.653-3.659,8.883-6.132,12.935c-3.409,5.585-6.896,11.127-10.312,16.715
	c-3.662,5.991-6.085,12.445-8.458,18.992c-0.585,1.615,0.532,3.764-1.488,4.871c-0.334,3.192-0.579,6.396-1.015,9.575
	C166.752,172.349,168.736,188.557,167.777,204.831z"/>
<path fill-rule="evenodd" clip-rule="evenodd" fill="#FFFFFF" d="M124.194,111.949c-4.67,0.21-8.647-0.848-12.638-2.751
	c-5.032-2.401-8.431-6.255-11.583-10.576c-5.365-7.354-6.687-15.787-5.829-24.461c0.431-4.359,1.639-8.843,3.966-12.779
	c2.131-3.606,4.587-6.959,7.737-9.784c2.568-2.303,7.969-4.613,11.624-5.727c2.404-0.733,4.714-0.813,7.109-0.881
	c5.392-0.152,10.054,2.072,14.531,4.672c6.015,3.494,9.645,9.019,12.283,15.269c0.657,1.556,1.468,3.209,1.509,4.835
	c0.119,4.709,2.707,9.429,0.077,14.143c0.396,4.646-1.841,8.419-3.737,12.432c-3.274,6.93-8.918,11.179-15.493,14.165
	C130.829,111.833,127.339,112.617,124.194,111.949z"/>
<path fill-rule="evenodd" clip-rule="evenodd" fill="#FFFFFF" d="M305.96,78.456c0,2.255,0.13,4.099-0.038,5.916
	c-0.157,1.71-0.73,3.38-0.937,5.089c-0.267,2.215-1.676,3.971-2.326,6.061c-0.805,2.579-2.874,4.904-4.808,6.95
	c-1.965,2.083-4.297,3.894-6.703,5.466c-4.153,2.714-8.697,4.258-13.808,4.095c-3.856-0.122-7.534-0.244-11.212-1.944
	c-4.027-1.861-10.19-5.649-12.129-8.886c-1.823-3.046-3.457-6.218-4.997-9.419c-0.863-1.794-1.927-3.759-1.933-5.651
	c-0.021-6.195-0.955-12.493,0.927-18.566c2.065-6.665,7.186-13.861,13.042-18.033c2.089-1.488,4.65-2.559,7.154-3.146
	c2.591-0.608,5.136-1.536,7.936-1.458c5.314,0.147,10.237,1.571,14.802,4.116c2.182,1.217,4.407,2.726,5.955,4.636
	c3.737,4.61,7.246,9.452,8.074,15.615C307.031,72.311,305.413,75.708,305.96,78.456z"/>
<path fill-rule="evenodd" clip-rule="evenodd" fill="#FFFFFF" d="M262.638,119.192c0.936,4.045,1.76,7.864,2.713,11.651
	c0.793,3.152,1.821,6.245,2.559,9.408c0.195,0.837-0.22,1.861-0.502,2.752c-0.229,0.726-0.716,1.364-1.026,2.068
	c-1.837,4.155-2.125,5.825,0.101,9.748c1.304,2.297,1.478,4.493,1.48,6.888c0.009,6.302,0.003,12.605,0.003,19.086
	c-9.234,0-18.335,0-27.312,0c-1.334,1.931-1.769,3.833-1.752,5.986c0.013,1.522-0.631,3.045-0.924,4.578
	c-0.264,1.378,0.635,3.03-0.98,4.086c0.602,3.127-1.215,5.972-1.035,9.288c-1.243,0-2.478,0-3.992,0c0-1.434,0-2.897,0-4.36
	c0-17.798,0.083-35.598-0.051-53.395c-0.04-5.417,2.164-10.059,4.372-14.673c1.077-2.251,3-4.22,4.891-5.93
	c2.214-2.002,4.579-4.211,7.292-5.204C252.919,119.543,257.59,118.058,262.638,119.192z"/>
<path fill-rule="evenodd" clip-rule="evenodd" fill="#FFFFFF" d="M320.958,204.859c-1.394,0-2.509,0-3.894,0
	c-0.022-5.417-2.245-10.533-2.105-15.999c-1.372-1.487-0.906-3.333-1.008-5.075c-0.118-2.037-0.882-2.788-3.051-2.798
	c-7.152-0.035-14.305-0.014-21.458-0.014c-1.329,0-2.658,0-4.479,0c0-1.268,0-2.532,0-3.798c0-3.492-0.017-6.986,0.004-10.479
	c0.025-4.477-0.166-8.857,1.872-13.204c1.894-4.037,1.347-4.21-0.595-8.797c-0.804-1.899-2.697-3.913-0.406-6.093
	c0.881-5.87,2.676-11.521,4.104-17.26c0.153-0.615,0.021-1.3,0.021-1.974c4.964-1.34,9.795-0.322,13.997,1.748
	c6.91,3.404,12.317,8.566,15.067,16.182c1.503,4.161,2.004,8.297,1.976,12.67c-0.108,16.8-0.044,33.602-0.044,50.401
	C320.958,201.834,320.958,203.298,320.958,204.859z"/>
<path fill-rule="evenodd" clip-rule="evenodd" fill="#FFFFFF" d="M114.821,139.192c-1.688,2.219-3.39,4.003-4.548,6.089
	c-1.59,2.862-2.212,5.936-0.44,9.107c0.508,0.91-0.18,2.337,1.1,3.037c-2.086,1.8-0.326,4.333-1.241,6.439
	c-0.856,1.971-1.334,4.155-1.667,6.293c-0.541,3.479-0.828,6.996-1.24,10.657c-9.092,0-18.207,0-27.796,0c0-1.129,0-2.398,0-3.668
	c0-8.994,0.047-17.988-0.021-26.982c-0.03-4.031,0.816-7.896,2.069-11.648c1.191-3.566,2.63-7.072,5.583-9.682
	c2.878-2.544,5.257-5.499,9.002-7.213c3.573-1.635,6.983-2.896,10.906-2.65c0.991,0.062,1.99,0.01,3.169,0.01
	C111.408,125.73,113.124,132.498,114.821,139.192z"/>
<path fill-rule="evenodd" clip-rule="evenodd" fill="#FFFFFF" d="M147.89,186.142c0,6.263,0,12.376,0,18.659
	c-23.951,0-47.833,0-71.66,0c2.055-6.221,4.072-12.328,6.165-18.659C103.91,186.142,125.671,186.142,147.89,186.142z"/>
<path fill-rule="evenodd" clip-rule="evenodd" fill="#FFFFFF" d="M311.906,204.866c-23.787,0-47.218,0-71.054,0
	c0.72-6.384,1.797-12.541,3.179-18.894c1.952,0,3.751,0,5.548,0c18.312,0,36.624,0,54.935,0c1.166,0,2.402-0.239,3.473,0.08
	c0.772,0.23,1.895,1.213,1.885,1.845C309.783,193.546,312.338,198.857,311.906,204.866z"/>
<path fill-rule="evenodd" clip-rule="evenodd" fill="#FFFFFF" d="M111.046,180.974c0.401-1.015,0.903-1.695,0.901-2.375
	c-0.015-4.989,1.989-9.688,2.037-14.66c1.43-1.664,0.823-3.686,1.036-5.577c0.141-1.251,0.561-2.079-0.453-3.54
	c-2.384-3.437-0.137-10.105,3.528-11.358c1.416-0.484,3.181-0.448,4.658-0.102c1.214,0.285,2.339,1.123,2.851,2.652
	c0.544,1.625,2.06,3.213,1.283,4.876c-0.842,1.801-0.602,4.165-2.679,5.415c-0.831,0.501-1.434,1.38-2.159,2.105
	c-0.287,1.84,0.134,3.711-0.96,5.589c-0.904,1.55,0.818,3.944-1.105,5.52c0.672,2.978-0.997,5.671-1.034,8.579
	c-0.028,2.196-0.778,2.802-2.966,2.866C114.485,181.01,112.985,180.974,111.046,180.974z"/>
<path fill-rule="evenodd" clip-rule="evenodd" fill="#FFFFFF" d="M279.963,180.974c-2.504,0-4.499,0-6.846,0
	c-0.051-1.248-0.143-2.514-0.146-3.78c-0.016-5.986-0.059-11.973,0.026-17.958c0.023-1.726-0.252-3.053-1.556-4.388
	c-1.967-2.016-1.774-4.844-1.352-7.32c0.238-1.394,1.717-2.592,2.682-3.844c1.005-1.305,2.465-0.646,3.694-0.649
	s2.689-0.65,3.693,0.652c0.964,1.251,2.44,2.451,2.679,3.846c0.423,2.475,0.616,5.304-1.354,7.318
	c-1.309,1.335-1.569,2.667-1.552,4.389C280.007,166.368,279.963,173.498,279.963,180.974z"/>
<path fill-rule="evenodd" clip-rule="evenodd" fill="#FFFFFF" d="M36.087,344.797c0-3.975,0-7.752,0-11.687
	c7.861,0,15.632,0,23.654,0c0,3.729,0,7.626,0,11.687C52.037,344.797,44.266,344.797,36.087,344.797z"/>
<path fill-rule="evenodd" clip-rule="evenodd" fill="#FFFFFF" d="M118.853,138.002c0.561-3.141-0.658-6.031,1.04-8.829
	c0.436-0.72-0.046-2.211-0.469-3.194c-0.969-2.251-2.162-4.407-3.344-6.761c5.139,0,10.357,0,15.855,0
	c-1.004,1.878-1.896,3.751-2.973,5.51c-1.274,2.082-1.021,4.341-0.93,6.561c0.036,0.869,0.863,1.704,0.905,2.575
	c0.127,2.615,0.046,5.241,0.046,8.8C126.158,138.952,122.903,137.772,118.853,138.002z"/>
<path fill-rule="evenodd" clip-rule="evenodd" fill="#FFFFFF" d="M271.965,138.922c0-2.912-0.186-5.706,0.049-8.462
	c0.268-3.154-0.484-5.948-2.04-8.618c-0.44-0.755-0.773-1.573-1.311-2.681c5.319,0,10.198,0,15.378,0
	c-0.674,3.457-3.733,5.954-3.134,9.701c0.521,3.257-0.712,6.684,1.748,10.648C278.543,137.85,275.4,137.241,271.965,138.922z"/>
</svg>
