<?xml version="1.0" encoding="utf-8"?>
<!-- Generator: Adobe Illustrator 16.0.0, SVG Export Plug-In . SVG Version: 6.00 Build 0)  -->
<!DOCTYPE svg PUBLIC "-//W3C//DTD SVG 1.1//EN" "http://www.w3.org/Graphics/SVG/1.1/DTD/svg11.dtd">
<svg version="1.1"
	 id="Layer_1" xmlns:dc="http://purl.org/dc/elements/1.1/" xmlns:cc="http://creativecommons.org/ns#" xmlns:rdf="http://www.w3.org/1999/02/22-rdf-syntax-ns#" xmlns:svg="http://www.w3.org/2000/svg" xmlns:sodipodi="http://sodipodi.sourceforge.net/DTD/sodipodi-0.dtd" xmlns:inkscape="http://www.inkscape.org/namespaces/inkscape"
	 xmlns="http://www.w3.org/2000/svg" xmlns:xlink="http://www.w3.org/1999/xlink" x="0px" y="0px" width="612px" height="493.793px"
	 viewBox="0 70.5 612 493.793" enable-background="new 0 70.5 612 493.793" xml:space="preserve">
<g transform="translate(0,-952.36218)">
	<path fill="#FFFFFF" d="M104.04,1033.188v33.852c-10.53-2.891-21.627-3.249-31.173-3.251c-3.008,0.284-5.56,3.098-5.546,6.12
		v33.851c-10.531-2.891-21.627-3.249-31.173-3.251c-3.009,0.283-5.56,3.098-5.547,6.12v391.679
		c-0.061,4.143,5.072,7.358,8.798,5.547c22.747-11.373,66.665-19.306,115.707-18.551c49.041,0.754,103.411,9.881,148.218,30.791
		c1.741,0.811,3.866,0.738,5.546-0.189c38.347-20.648,92.656-29.846,143.246-30.601s97.924,7.269,120.487,18.552
		c3.726,1.812,8.826-1.404,8.798-5.547v-391.68c0-3.204-2.916-6.12-6.12-6.12c-9.584,0-19.991-0.049-30.601,3.251v-33.852
		c0-3.204-2.915-6.12-6.119-6.12c-9.584,0-19.991-0.049-30.601,3.251v-33.851c0-3.204-2.915-6.12-6.12-6.12
		c-50.224,0-133.771,24.18-195.84,60.626c-62.069-36.446-145.616-60.626-195.84-60.626c-6.12,0-6.12,6.12-6.12,6.12V1033.188z
		 M116.28,1039.882c47.037,1.677,125.974,24.407,183.6,58.14v329.715c-78.608-37.73-136.814-45.023-183.6-45.518V1039.882z
		 M495.72,1039.882v342.338c-46.785,0.496-104.991,7.787-183.6,45.518v-329.715C369.746,1064.289,448.684,1041.558,495.72,1039.882z
		"/>
</g>
</svg>
